G04 #@! TF.GenerationSoftware,KiCad,Pcbnew,(5.1.8)-1*
G04 #@! TF.CreationDate,2021-04-20T17:46:31-05:00*
G04 #@! TF.ProjectId,Graduation_Cap,47726164-7561-4746-996f-6e5f4361702e,rev?*
G04 #@! TF.SameCoordinates,Original*
G04 #@! TF.FileFunction,Legend,Bot*
G04 #@! TF.FilePolarity,Positive*
%FSLAX46Y46*%
G04 Gerber Fmt 4.6, Leading zero omitted, Abs format (unit mm)*
G04 Created by KiCad (PCBNEW (5.1.8)-1) date 2021-04-20 17:46:31*
%MOMM*%
%LPD*%
G01*
G04 APERTURE LIST*
%ADD10C,0.300000*%
G04 #@! TA.AperFunction,Profile*
%ADD11C,0.254000*%
G04 #@! TD*
G04 APERTURE END LIST*
D10*
X206928571Y-116178571D02*
X206928571Y-117250000D01*
X207000000Y-117464285D01*
X207142857Y-117607142D01*
X207357142Y-117678571D01*
X207500000Y-117678571D01*
X205500000Y-117678571D02*
X206214285Y-117678571D01*
X206214285Y-116178571D01*
X204142857Y-117535714D02*
X204214285Y-117607142D01*
X204428571Y-117678571D01*
X204571428Y-117678571D01*
X204785714Y-117607142D01*
X204928571Y-117464285D01*
X205000000Y-117321428D01*
X205071428Y-117035714D01*
X205071428Y-116821428D01*
X205000000Y-116535714D01*
X204928571Y-116392857D01*
X204785714Y-116250000D01*
X204571428Y-116178571D01*
X204428571Y-116178571D01*
X204214285Y-116250000D01*
X204142857Y-116321428D01*
X203071428Y-116178571D02*
X203071428Y-117250000D01*
X203142857Y-117464285D01*
X203285714Y-117607142D01*
X203500000Y-117678571D01*
X203642857Y-117678571D01*
X201642857Y-117678571D02*
X202357142Y-117678571D01*
X202357142Y-116178571D01*
X200285714Y-117535714D02*
X200357142Y-117607142D01*
X200571428Y-117678571D01*
X200714285Y-117678571D01*
X200928571Y-117607142D01*
X201071428Y-117464285D01*
X201142857Y-117321428D01*
X201214285Y-117035714D01*
X201214285Y-116821428D01*
X201142857Y-116535714D01*
X201071428Y-116392857D01*
X200928571Y-116250000D01*
X200714285Y-116178571D01*
X200571428Y-116178571D01*
X200357142Y-116250000D01*
X200285714Y-116321428D01*
X199214285Y-116178571D02*
X199214285Y-117250000D01*
X199285714Y-117464285D01*
X199428571Y-117607142D01*
X199642857Y-117678571D01*
X199785714Y-117678571D01*
X197785714Y-117678571D02*
X198500000Y-117678571D01*
X198500000Y-116178571D01*
X196428571Y-117535714D02*
X196500000Y-117607142D01*
X196714285Y-117678571D01*
X196857142Y-117678571D01*
X197071428Y-117607142D01*
X197214285Y-117464285D01*
X197285714Y-117321428D01*
X197357142Y-117035714D01*
X197357142Y-116821428D01*
X197285714Y-116535714D01*
X197214285Y-116392857D01*
X197071428Y-116250000D01*
X196857142Y-116178571D01*
X196714285Y-116178571D01*
X196500000Y-116250000D01*
X196428571Y-116321428D01*
X195357142Y-116178571D02*
X195357142Y-117250000D01*
X195428571Y-117464285D01*
X195571428Y-117607142D01*
X195785714Y-117678571D01*
X195928571Y-117678571D01*
X193928571Y-117678571D02*
X194642857Y-117678571D01*
X194642857Y-116178571D01*
X192571428Y-117535714D02*
X192642857Y-117607142D01*
X192857142Y-117678571D01*
X193000000Y-117678571D01*
X193214285Y-117607142D01*
X193357142Y-117464285D01*
X193428571Y-117321428D01*
X193500000Y-117035714D01*
X193500000Y-116821428D01*
X193428571Y-116535714D01*
X193357142Y-116392857D01*
X193214285Y-116250000D01*
X193000000Y-116178571D01*
X192857142Y-116178571D01*
X192642857Y-116250000D01*
X192571428Y-116321428D01*
D11*
X208000000Y-150000000D02*
G75*
G03*
X208000000Y-150000000I-8000000J0D01*
G01*
X310000000Y-150000000D02*
X200000000Y-260000000D01*
X200000000Y-260000000D02*
X90000000Y-150000000D01*
X310000000Y-150000000D02*
X200000000Y-40000000D01*
X90000000Y-150000000D02*
X200000000Y-40000000D01*
M02*
