G04 #@! TF.GenerationSoftware,KiCad,Pcbnew,(5.1.8)-1*
G04 #@! TF.CreationDate,2021-04-20T17:46:32-05:00*
G04 #@! TF.ProjectId,Graduation_Cap,47726164-7561-4746-996f-6e5f4361702e,rev?*
G04 #@! TF.SameCoordinates,Original*
G04 #@! TF.FileFunction,Soldermask,Top*
G04 #@! TF.FilePolarity,Negative*
%FSLAX46Y46*%
G04 Gerber Fmt 4.6, Leading zero omitted, Abs format (unit mm)*
G04 Created by KiCad (PCBNEW (5.1.8)-1) date 2021-04-20 17:46:32*
%MOMM*%
%LPD*%
G01*
G04 APERTURE LIST*
G04 #@! TA.AperFunction,Profile*
%ADD10C,0.254000*%
G04 #@! TD*
%ADD11C,0.010000*%
%ADD12C,0.900000*%
%ADD13R,2.500000X0.500000*%
%ADD14R,2.500000X2.000000*%
%ADD15C,1.600000*%
%ADD16O,2.000000X1.905000*%
%ADD17R,2.000000X1.905000*%
%ADD18O,3.500000X3.500000*%
%ADD19C,1.800000*%
%ADD20R,1.800000X1.800000*%
%ADD21R,1.600000X1.600000*%
%ADD22O,1.400000X1.400000*%
%ADD23C,1.400000*%
%ADD24O,1.600000X1.600000*%
%ADD25R,1.500000X1.500000*%
%ADD26C,1.500000*%
%ADD27O,2.200000X2.200000*%
%ADD28R,2.200000X2.200000*%
%ADD29C,1.750000*%
%ADD30C,0.150000*%
%ADD31C,3.000000*%
%ADD32C,0.254000*%
G04 APERTURE END LIST*
D10*
X208000000Y-150000000D02*
G75*
G03*
X208000000Y-150000000I-8000000J0D01*
G01*
X310000000Y-150000000D02*
X200000000Y-260000000D01*
X200000000Y-260000000D02*
X90000000Y-150000000D01*
X310000000Y-150000000D02*
X200000000Y-40000000D01*
X90000000Y-150000000D02*
X200000000Y-40000000D01*
D11*
G36*
X142783604Y-118935804D02*
G01*
X142902783Y-119007137D01*
X142951404Y-119127554D01*
X142897444Y-119203422D01*
X142772827Y-119206295D01*
X142708925Y-119179875D01*
X142448208Y-119109661D01*
X142186453Y-119173023D01*
X142027367Y-119279283D01*
X141847723Y-119502328D01*
X141775027Y-119754860D01*
X141796253Y-120011407D01*
X141898377Y-120246494D01*
X142068372Y-120434647D01*
X142293214Y-120550391D01*
X142559878Y-120568253D01*
X142673453Y-120542865D01*
X142831449Y-120508296D01*
X142909549Y-120538672D01*
X142931555Y-120579490D01*
X142950786Y-120669012D01*
X142908090Y-120724647D01*
X142779795Y-120757742D01*
X142542232Y-120779640D01*
X142509508Y-120781783D01*
X142235218Y-120783370D01*
X142036727Y-120739231D01*
X141912846Y-120675465D01*
X141677779Y-120454433D01*
X141535831Y-120167238D01*
X141487866Y-119846914D01*
X141534750Y-119526496D01*
X141677347Y-119239017D01*
X141870260Y-119048202D01*
X142067169Y-118957026D01*
X142315597Y-118906686D01*
X142569693Y-118899004D01*
X142783604Y-118935804D01*
G37*
X142783604Y-118935804D02*
X142902783Y-119007137D01*
X142951404Y-119127554D01*
X142897444Y-119203422D01*
X142772827Y-119206295D01*
X142708925Y-119179875D01*
X142448208Y-119109661D01*
X142186453Y-119173023D01*
X142027367Y-119279283D01*
X141847723Y-119502328D01*
X141775027Y-119754860D01*
X141796253Y-120011407D01*
X141898377Y-120246494D01*
X142068372Y-120434647D01*
X142293214Y-120550391D01*
X142559878Y-120568253D01*
X142673453Y-120542865D01*
X142831449Y-120508296D01*
X142909549Y-120538672D01*
X142931555Y-120579490D01*
X142950786Y-120669012D01*
X142908090Y-120724647D01*
X142779795Y-120757742D01*
X142542232Y-120779640D01*
X142509508Y-120781783D01*
X142235218Y-120783370D01*
X142036727Y-120739231D01*
X141912846Y-120675465D01*
X141677779Y-120454433D01*
X141535831Y-120167238D01*
X141487866Y-119846914D01*
X141534750Y-119526496D01*
X141677347Y-119239017D01*
X141870260Y-119048202D01*
X142067169Y-118957026D01*
X142315597Y-118906686D01*
X142569693Y-118899004D01*
X142783604Y-118935804D01*
G36*
X144268218Y-118883921D02*
G01*
X144340476Y-118982441D01*
X144428324Y-119160889D01*
X144540271Y-119436312D01*
X144668557Y-119780912D01*
X144787078Y-120110470D01*
X144886869Y-120394666D01*
X144959602Y-120609259D01*
X144996950Y-120730012D01*
X145000134Y-120746112D01*
X144943398Y-120789570D01*
X144867386Y-120799200D01*
X144760869Y-120753908D01*
X144678017Y-120602985D01*
X144653464Y-120528267D01*
X144572291Y-120257334D01*
X143802376Y-120257334D01*
X143721203Y-120528267D01*
X143642175Y-120717969D01*
X143545215Y-120794778D01*
X143507281Y-120799200D01*
X143398561Y-120781118D01*
X143374534Y-120756948D01*
X143396211Y-120684514D01*
X143454590Y-120512814D01*
X143539690Y-120269753D01*
X143640403Y-119986400D01*
X143928855Y-119986400D01*
X144445812Y-119986400D01*
X144337511Y-119647734D01*
X144269526Y-119457818D01*
X144211613Y-119334933D01*
X144187334Y-119309067D01*
X144145093Y-119367724D01*
X144081755Y-119518270D01*
X144037156Y-119647734D01*
X143928855Y-119986400D01*
X143640403Y-119986400D01*
X143641529Y-119983233D01*
X143750127Y-119681158D01*
X143855504Y-119391432D01*
X143947678Y-119141959D01*
X144016668Y-118960641D01*
X144020899Y-118949886D01*
X144121241Y-118854805D01*
X144203045Y-118848286D01*
X144268218Y-118883921D01*
G37*
X144268218Y-118883921D02*
X144340476Y-118982441D01*
X144428324Y-119160889D01*
X144540271Y-119436312D01*
X144668557Y-119780912D01*
X144787078Y-120110470D01*
X144886869Y-120394666D01*
X144959602Y-120609259D01*
X144996950Y-120730012D01*
X145000134Y-120746112D01*
X144943398Y-120789570D01*
X144867386Y-120799200D01*
X144760869Y-120753908D01*
X144678017Y-120602985D01*
X144653464Y-120528267D01*
X144572291Y-120257334D01*
X143802376Y-120257334D01*
X143721203Y-120528267D01*
X143642175Y-120717969D01*
X143545215Y-120794778D01*
X143507281Y-120799200D01*
X143398561Y-120781118D01*
X143374534Y-120756948D01*
X143396211Y-120684514D01*
X143454590Y-120512814D01*
X143539690Y-120269753D01*
X143640403Y-119986400D01*
X143928855Y-119986400D01*
X144445812Y-119986400D01*
X144337511Y-119647734D01*
X144269526Y-119457818D01*
X144211613Y-119334933D01*
X144187334Y-119309067D01*
X144145093Y-119367724D01*
X144081755Y-119518270D01*
X144037156Y-119647734D01*
X143928855Y-119986400D01*
X143640403Y-119986400D01*
X143641529Y-119983233D01*
X143750127Y-119681158D01*
X143855504Y-119391432D01*
X143947678Y-119141959D01*
X144016668Y-118960641D01*
X144020899Y-118949886D01*
X144121241Y-118854805D01*
X144203045Y-118848286D01*
X144268218Y-118883921D01*
G36*
X146173334Y-118910113D02*
G01*
X146338528Y-118940543D01*
X146457697Y-119006094D01*
X146527212Y-119068921D01*
X146667460Y-119282990D01*
X146673297Y-119506677D01*
X146544970Y-119734811D01*
X146492813Y-119791075D01*
X146292158Y-119991729D01*
X146526679Y-120358344D01*
X146665808Y-120579537D01*
X146736447Y-120710784D01*
X146744258Y-120775512D01*
X146694901Y-120797148D01*
X146633190Y-120799200D01*
X146516184Y-120737830D01*
X146359020Y-120560313D01*
X146243723Y-120393393D01*
X146059284Y-120133825D01*
X145920104Y-120000881D01*
X145823307Y-119994556D01*
X145766018Y-120114847D01*
X145745362Y-120361751D01*
X145745200Y-120392800D01*
X145735226Y-120638494D01*
X145702682Y-120767714D01*
X145654889Y-120799200D01*
X145539693Y-120769113D01*
X145519422Y-120754045D01*
X145502735Y-120673075D01*
X145488831Y-120483162D01*
X145478975Y-120210819D01*
X145474429Y-119882561D01*
X145474267Y-119805778D01*
X145474267Y-119551350D01*
X145752626Y-119551350D01*
X145771171Y-119685340D01*
X145772169Y-119688048D01*
X145864810Y-119766769D01*
X146021401Y-119775480D01*
X146192350Y-119718065D01*
X146287067Y-119647734D01*
X146387390Y-119515498D01*
X146422533Y-119415505D01*
X146362352Y-119259461D01*
X146209291Y-119150863D01*
X146004577Y-119118006D01*
X145990704Y-119119142D01*
X145842738Y-119151620D01*
X145777559Y-119239966D01*
X145757361Y-119366315D01*
X145752626Y-119551350D01*
X145474267Y-119551350D01*
X145474267Y-118902667D01*
X145917612Y-118902667D01*
X146173334Y-118910113D01*
G37*
X146173334Y-118910113D02*
X146338528Y-118940543D01*
X146457697Y-119006094D01*
X146527212Y-119068921D01*
X146667460Y-119282990D01*
X146673297Y-119506677D01*
X146544970Y-119734811D01*
X146492813Y-119791075D01*
X146292158Y-119991729D01*
X146526679Y-120358344D01*
X146665808Y-120579537D01*
X146736447Y-120710784D01*
X146744258Y-120775512D01*
X146694901Y-120797148D01*
X146633190Y-120799200D01*
X146516184Y-120737830D01*
X146359020Y-120560313D01*
X146243723Y-120393393D01*
X146059284Y-120133825D01*
X145920104Y-120000881D01*
X145823307Y-119994556D01*
X145766018Y-120114847D01*
X145745362Y-120361751D01*
X145745200Y-120392800D01*
X145735226Y-120638494D01*
X145702682Y-120767714D01*
X145654889Y-120799200D01*
X145539693Y-120769113D01*
X145519422Y-120754045D01*
X145502735Y-120673075D01*
X145488831Y-120483162D01*
X145478975Y-120210819D01*
X145474429Y-119882561D01*
X145474267Y-119805778D01*
X145474267Y-119551350D01*
X145752626Y-119551350D01*
X145771171Y-119685340D01*
X145772169Y-119688048D01*
X145864810Y-119766769D01*
X146021401Y-119775480D01*
X146192350Y-119718065D01*
X146287067Y-119647734D01*
X146387390Y-119515498D01*
X146422533Y-119415505D01*
X146362352Y-119259461D01*
X146209291Y-119150863D01*
X146004577Y-119118006D01*
X145990704Y-119119142D01*
X145842738Y-119151620D01*
X145777559Y-119239966D01*
X145757361Y-119366315D01*
X145752626Y-119551350D01*
X145474267Y-119551350D01*
X145474267Y-118902667D01*
X145917612Y-118902667D01*
X146173334Y-118910113D01*
G36*
X148099124Y-118932010D02*
G01*
X148320822Y-119023039D01*
X148434732Y-119180248D01*
X148454534Y-119317360D01*
X148430055Y-119514938D01*
X148381402Y-119657821D01*
X148346999Y-119796263D01*
X148415268Y-119912701D01*
X148487976Y-120066016D01*
X148519973Y-120278231D01*
X148505413Y-120479795D01*
X148470430Y-120568927D01*
X148301120Y-120704637D01*
X148019618Y-120781879D01*
X147747786Y-120799200D01*
X147370800Y-120799200D01*
X147370800Y-120536023D01*
X147565832Y-120536023D01*
X147891649Y-120515211D01*
X148088185Y-120496603D01*
X148187289Y-120456462D01*
X148226928Y-120368899D01*
X148238356Y-120278767D01*
X148205200Y-120079232D01*
X148068054Y-119958925D01*
X147838990Y-119927216D01*
X147790784Y-119931424D01*
X147674117Y-119960348D01*
X147615834Y-120038085D01*
X147589894Y-120204585D01*
X147586849Y-120244278D01*
X147565832Y-120536023D01*
X147370800Y-120536023D01*
X147370800Y-119507261D01*
X147581846Y-119507261D01*
X147600690Y-119619588D01*
X147694961Y-119698167D01*
X147860328Y-119708200D01*
X148049499Y-119646990D01*
X148052586Y-119645350D01*
X148156707Y-119523505D01*
X148177426Y-119354247D01*
X148110259Y-119200269D01*
X148086096Y-119177000D01*
X147949307Y-119123941D01*
X147798229Y-119117906D01*
X147652484Y-119163964D01*
X147592561Y-119285725D01*
X147585882Y-119331722D01*
X147581846Y-119507261D01*
X147370800Y-119507261D01*
X147370800Y-118902667D01*
X147762129Y-118902667D01*
X148099124Y-118932010D01*
G37*
X148099124Y-118932010D02*
X148320822Y-119023039D01*
X148434732Y-119180248D01*
X148454534Y-119317360D01*
X148430055Y-119514938D01*
X148381402Y-119657821D01*
X148346999Y-119796263D01*
X148415268Y-119912701D01*
X148487976Y-120066016D01*
X148519973Y-120278231D01*
X148505413Y-120479795D01*
X148470430Y-120568927D01*
X148301120Y-120704637D01*
X148019618Y-120781879D01*
X147747786Y-120799200D01*
X147370800Y-120799200D01*
X147370800Y-120536023D01*
X147565832Y-120536023D01*
X147891649Y-120515211D01*
X148088185Y-120496603D01*
X148187289Y-120456462D01*
X148226928Y-120368899D01*
X148238356Y-120278767D01*
X148205200Y-120079232D01*
X148068054Y-119958925D01*
X147838990Y-119927216D01*
X147790784Y-119931424D01*
X147674117Y-119960348D01*
X147615834Y-120038085D01*
X147589894Y-120204585D01*
X147586849Y-120244278D01*
X147565832Y-120536023D01*
X147370800Y-120536023D01*
X147370800Y-119507261D01*
X147581846Y-119507261D01*
X147600690Y-119619588D01*
X147694961Y-119698167D01*
X147860328Y-119708200D01*
X148049499Y-119646990D01*
X148052586Y-119645350D01*
X148156707Y-119523505D01*
X148177426Y-119354247D01*
X148110259Y-119200269D01*
X148086096Y-119177000D01*
X147949307Y-119123941D01*
X147798229Y-119117906D01*
X147652484Y-119163964D01*
X147592561Y-119285725D01*
X147585882Y-119331722D01*
X147581846Y-119507261D01*
X147370800Y-119507261D01*
X147370800Y-118902667D01*
X147762129Y-118902667D01*
X148099124Y-118932010D01*
G36*
X150282251Y-118945059D02*
G01*
X150500674Y-119048202D01*
X150722393Y-119281197D01*
X150849185Y-119574450D01*
X150881916Y-119895005D01*
X150821450Y-120209907D01*
X150668652Y-120486199D01*
X150458088Y-120671477D01*
X150178550Y-120773900D01*
X149854268Y-120792649D01*
X149547037Y-120727725D01*
X149431246Y-120671477D01*
X149197776Y-120456548D01*
X149055877Y-120173958D01*
X149012641Y-119896619D01*
X149297663Y-119896619D01*
X149336797Y-120093242D01*
X149453070Y-120295296D01*
X149636814Y-120469731D01*
X149841437Y-120578047D01*
X149944667Y-120595494D01*
X150067633Y-120561944D01*
X150235468Y-120479754D01*
X150259417Y-120465522D01*
X150464670Y-120269125D01*
X150572491Y-120012788D01*
X150581611Y-119731987D01*
X150490761Y-119462196D01*
X150303162Y-119242393D01*
X150068476Y-119127669D01*
X149832089Y-119127580D01*
X149615409Y-119223278D01*
X149439840Y-119395915D01*
X149326789Y-119626644D01*
X149297663Y-119896619D01*
X149012641Y-119896619D01*
X149006412Y-119856665D01*
X149050246Y-119537624D01*
X149188245Y-119249791D01*
X149388660Y-119048202D01*
X149653400Y-118932292D01*
X149970030Y-118897911D01*
X150282251Y-118945059D01*
G37*
X150282251Y-118945059D02*
X150500674Y-119048202D01*
X150722393Y-119281197D01*
X150849185Y-119574450D01*
X150881916Y-119895005D01*
X150821450Y-120209907D01*
X150668652Y-120486199D01*
X150458088Y-120671477D01*
X150178550Y-120773900D01*
X149854268Y-120792649D01*
X149547037Y-120727725D01*
X149431246Y-120671477D01*
X149197776Y-120456548D01*
X149055877Y-120173958D01*
X149012641Y-119896619D01*
X149297663Y-119896619D01*
X149336797Y-120093242D01*
X149453070Y-120295296D01*
X149636814Y-120469731D01*
X149841437Y-120578047D01*
X149944667Y-120595494D01*
X150067633Y-120561944D01*
X150235468Y-120479754D01*
X150259417Y-120465522D01*
X150464670Y-120269125D01*
X150572491Y-120012788D01*
X150581611Y-119731987D01*
X150490761Y-119462196D01*
X150303162Y-119242393D01*
X150068476Y-119127669D01*
X149832089Y-119127580D01*
X149615409Y-119223278D01*
X149439840Y-119395915D01*
X149326789Y-119626644D01*
X149297663Y-119896619D01*
X149012641Y-119896619D01*
X149006412Y-119856665D01*
X149050246Y-119537624D01*
X149188245Y-119249791D01*
X149388660Y-119048202D01*
X149653400Y-118932292D01*
X149970030Y-118897911D01*
X150282251Y-118945059D01*
G36*
X151689057Y-118919892D02*
G01*
X151779249Y-118983278D01*
X151891600Y-119110396D01*
X152041608Y-119318814D01*
X152244769Y-119626100D01*
X152247814Y-119630800D01*
X152719378Y-120358934D01*
X152720556Y-119630800D01*
X152722711Y-119309085D01*
X152730893Y-119099151D01*
X152749544Y-118977319D01*
X152783108Y-118919914D01*
X152836028Y-118903258D01*
X152857200Y-118902667D01*
X152910806Y-118909701D01*
X152948035Y-118944684D01*
X152971860Y-119028432D01*
X152985254Y-119181764D01*
X152991194Y-119425498D01*
X152992651Y-119780452D01*
X152992667Y-119850934D01*
X152991991Y-120225667D01*
X152987724Y-120485822D01*
X152976508Y-120652289D01*
X152954983Y-120745956D01*
X152919792Y-120787712D01*
X152867574Y-120798445D01*
X152840267Y-120798728D01*
X152759397Y-120773883D01*
X152660587Y-120689377D01*
X152530638Y-120529542D01*
X152356354Y-120278708D01*
X152198424Y-120036728D01*
X151708982Y-119275200D01*
X151707358Y-120037200D01*
X151705147Y-120367619D01*
X151697416Y-120585739D01*
X151680000Y-120714720D01*
X151648731Y-120777725D01*
X151599443Y-120797913D01*
X151570267Y-120799200D01*
X151516661Y-120792166D01*
X151479432Y-120757183D01*
X151455607Y-120673435D01*
X151442213Y-120520103D01*
X151436273Y-120276369D01*
X151434816Y-119921415D01*
X151434800Y-119850934D01*
X151434800Y-118902667D01*
X151605525Y-118902667D01*
X151689057Y-118919892D01*
G37*
X151689057Y-118919892D02*
X151779249Y-118983278D01*
X151891600Y-119110396D01*
X152041608Y-119318814D01*
X152244769Y-119626100D01*
X152247814Y-119630800D01*
X152719378Y-120358934D01*
X152720556Y-119630800D01*
X152722711Y-119309085D01*
X152730893Y-119099151D01*
X152749544Y-118977319D01*
X152783108Y-118919914D01*
X152836028Y-118903258D01*
X152857200Y-118902667D01*
X152910806Y-118909701D01*
X152948035Y-118944684D01*
X152971860Y-119028432D01*
X152985254Y-119181764D01*
X152991194Y-119425498D01*
X152992651Y-119780452D01*
X152992667Y-119850934D01*
X152991991Y-120225667D01*
X152987724Y-120485822D01*
X152976508Y-120652289D01*
X152954983Y-120745956D01*
X152919792Y-120787712D01*
X152867574Y-120798445D01*
X152840267Y-120798728D01*
X152759397Y-120773883D01*
X152660587Y-120689377D01*
X152530638Y-120529542D01*
X152356354Y-120278708D01*
X152198424Y-120036728D01*
X151708982Y-119275200D01*
X151707358Y-120037200D01*
X151705147Y-120367619D01*
X151697416Y-120585739D01*
X151680000Y-120714720D01*
X151648731Y-120777725D01*
X151599443Y-120797913D01*
X151570267Y-120799200D01*
X151516661Y-120792166D01*
X151479432Y-120757183D01*
X151455607Y-120673435D01*
X151442213Y-120520103D01*
X151436273Y-120276369D01*
X151434816Y-119921415D01*
X151434800Y-119850934D01*
X151434800Y-118902667D01*
X151605525Y-118902667D01*
X151689057Y-118919892D01*
G36*
X154580689Y-118950658D02*
G01*
X154910276Y-119090322D01*
X155143166Y-119315190D01*
X155271638Y-119618797D01*
X155295495Y-119851990D01*
X155237439Y-120198706D01*
X155069144Y-120473931D01*
X154799919Y-120669884D01*
X154439077Y-120778783D01*
X154162124Y-120799200D01*
X153737733Y-120799200D01*
X153737733Y-120528267D01*
X154008667Y-120528267D01*
X154316546Y-120528267D01*
X154556192Y-120504642D01*
X154726375Y-120419927D01*
X154787924Y-120364767D01*
X154964396Y-120110131D01*
X155020326Y-119842212D01*
X154965384Y-119585100D01*
X154809238Y-119362883D01*
X154561556Y-119199651D01*
X154290669Y-119125855D01*
X154008667Y-119088030D01*
X154008667Y-120528267D01*
X153737733Y-120528267D01*
X153737733Y-118902667D01*
X154162124Y-118902667D01*
X154580689Y-118950658D01*
G37*
X154580689Y-118950658D02*
X154910276Y-119090322D01*
X155143166Y-119315190D01*
X155271638Y-119618797D01*
X155295495Y-119851990D01*
X155237439Y-120198706D01*
X155069144Y-120473931D01*
X154799919Y-120669884D01*
X154439077Y-120778783D01*
X154162124Y-120799200D01*
X153737733Y-120799200D01*
X153737733Y-120528267D01*
X154008667Y-120528267D01*
X154316546Y-120528267D01*
X154556192Y-120504642D01*
X154726375Y-120419927D01*
X154787924Y-120364767D01*
X154964396Y-120110131D01*
X155020326Y-119842212D01*
X154965384Y-119585100D01*
X154809238Y-119362883D01*
X154561556Y-119199651D01*
X154290669Y-119125855D01*
X154008667Y-119088030D01*
X154008667Y-120528267D01*
X153737733Y-120528267D01*
X153737733Y-118902667D01*
X154162124Y-118902667D01*
X154580689Y-118950658D01*
G36*
X156550677Y-118918364D02*
G01*
X156658868Y-119119762D01*
X156788707Y-119442192D01*
X156869688Y-119661077D01*
X157019189Y-120070421D01*
X157126758Y-120369142D01*
X157196146Y-120574153D01*
X157231100Y-120702362D01*
X157235370Y-120770681D01*
X157212705Y-120796021D01*
X157166854Y-120795291D01*
X157119485Y-120787806D01*
X156980636Y-120709380D01*
X156887281Y-120528267D01*
X156833577Y-120391741D01*
X156762792Y-120318648D01*
X156634066Y-120285713D01*
X156436015Y-120271234D01*
X156063927Y-120251267D01*
X155981845Y-120525234D01*
X155903015Y-120716007D01*
X155807182Y-120794196D01*
X155767015Y-120799200D01*
X155658395Y-120772902D01*
X155634267Y-120737593D01*
X155656397Y-120654812D01*
X155717175Y-120469643D01*
X155808185Y-120206725D01*
X155921010Y-119890696D01*
X155923314Y-119884353D01*
X156202772Y-119884353D01*
X156224393Y-119957959D01*
X156314239Y-119983491D01*
X156439498Y-119986400D01*
X156711991Y-119986400D01*
X156615079Y-119711723D01*
X156528288Y-119481545D01*
X156465751Y-119370201D01*
X156413741Y-119366495D01*
X156358533Y-119459227D01*
X156344727Y-119491143D01*
X156244506Y-119737228D01*
X156202772Y-119884353D01*
X155923314Y-119884353D01*
X155963988Y-119772393D01*
X156122704Y-119349115D01*
X156250147Y-119053374D01*
X156356900Y-118883869D01*
X156453549Y-118839300D01*
X156550677Y-118918364D01*
G37*
X156550677Y-118918364D02*
X156658868Y-119119762D01*
X156788707Y-119442192D01*
X156869688Y-119661077D01*
X157019189Y-120070421D01*
X157126758Y-120369142D01*
X157196146Y-120574153D01*
X157231100Y-120702362D01*
X157235370Y-120770681D01*
X157212705Y-120796021D01*
X157166854Y-120795291D01*
X157119485Y-120787806D01*
X156980636Y-120709380D01*
X156887281Y-120528267D01*
X156833577Y-120391741D01*
X156762792Y-120318648D01*
X156634066Y-120285713D01*
X156436015Y-120271234D01*
X156063927Y-120251267D01*
X155981845Y-120525234D01*
X155903015Y-120716007D01*
X155807182Y-120794196D01*
X155767015Y-120799200D01*
X155658395Y-120772902D01*
X155634267Y-120737593D01*
X155656397Y-120654812D01*
X155717175Y-120469643D01*
X155808185Y-120206725D01*
X155921010Y-119890696D01*
X155923314Y-119884353D01*
X156202772Y-119884353D01*
X156224393Y-119957959D01*
X156314239Y-119983491D01*
X156439498Y-119986400D01*
X156711991Y-119986400D01*
X156615079Y-119711723D01*
X156528288Y-119481545D01*
X156465751Y-119370201D01*
X156413741Y-119366495D01*
X156358533Y-119459227D01*
X156344727Y-119491143D01*
X156244506Y-119737228D01*
X156202772Y-119884353D01*
X155923314Y-119884353D01*
X155963988Y-119772393D01*
X156122704Y-119349115D01*
X156250147Y-119053374D01*
X156356900Y-118883869D01*
X156453549Y-118839300D01*
X156550677Y-118918364D01*
G36*
X157926651Y-118910641D02*
G01*
X157965000Y-118949531D01*
X157988256Y-119041784D01*
X158000159Y-119209851D01*
X158004452Y-119476178D01*
X158004934Y-119715467D01*
X158004934Y-120528267D01*
X158411334Y-120528267D01*
X158638316Y-120533210D01*
X158760966Y-120554923D01*
X158810262Y-120603733D01*
X158817734Y-120663734D01*
X158805484Y-120733620D01*
X158749827Y-120774313D01*
X158622400Y-120793548D01*
X158394840Y-120799060D01*
X158321022Y-120799200D01*
X158073253Y-120793440D01*
X157881289Y-120778251D01*
X157782785Y-120756772D01*
X157779156Y-120754045D01*
X157762468Y-120673075D01*
X157748565Y-120483162D01*
X157738709Y-120210819D01*
X157734162Y-119882561D01*
X157734000Y-119805778D01*
X157735098Y-119440985D01*
X157740522Y-119190331D01*
X157753473Y-119032495D01*
X157777147Y-118946154D01*
X157814743Y-118909985D01*
X157869460Y-118902667D01*
X157869467Y-118902667D01*
X157926651Y-118910641D01*
G37*
X157926651Y-118910641D02*
X157965000Y-118949531D01*
X157988256Y-119041784D01*
X158000159Y-119209851D01*
X158004452Y-119476178D01*
X158004934Y-119715467D01*
X158004934Y-120528267D01*
X158411334Y-120528267D01*
X158638316Y-120533210D01*
X158760966Y-120554923D01*
X158810262Y-120603733D01*
X158817734Y-120663734D01*
X158805484Y-120733620D01*
X158749827Y-120774313D01*
X158622400Y-120793548D01*
X158394840Y-120799060D01*
X158321022Y-120799200D01*
X158073253Y-120793440D01*
X157881289Y-120778251D01*
X157782785Y-120756772D01*
X157779156Y-120754045D01*
X157762468Y-120673075D01*
X157748565Y-120483162D01*
X157738709Y-120210819D01*
X157734162Y-119882561D01*
X157734000Y-119805778D01*
X157735098Y-119440985D01*
X157740522Y-119190331D01*
X157753473Y-119032495D01*
X157777147Y-118946154D01*
X157814743Y-118909985D01*
X157869460Y-118902667D01*
X157869467Y-118902667D01*
X157926651Y-118910641D01*
G36*
X160179494Y-118907452D02*
G01*
X160346348Y-118924815D01*
X160426084Y-118959266D01*
X160443334Y-119004267D01*
X160412123Y-119063261D01*
X160301482Y-119094935D01*
X160085900Y-119105666D01*
X160036934Y-119105867D01*
X159630534Y-119105867D01*
X159630534Y-119715467D01*
X159969200Y-119715467D01*
X160182175Y-119726344D01*
X160286195Y-119764001D01*
X160307867Y-119817067D01*
X160271611Y-119880959D01*
X160146085Y-119912165D01*
X159969200Y-119918667D01*
X159630534Y-119918667D01*
X159630534Y-120528267D01*
X160036934Y-120528267D01*
X160263916Y-120533210D01*
X160386566Y-120554923D01*
X160435862Y-120603733D01*
X160443334Y-120663734D01*
X160432021Y-120731229D01*
X160379916Y-120771680D01*
X160259770Y-120791901D01*
X160044334Y-120798702D01*
X159901467Y-120799200D01*
X159359600Y-120799200D01*
X159359600Y-118902667D01*
X159901467Y-118902667D01*
X160179494Y-118907452D01*
G37*
X160179494Y-118907452D02*
X160346348Y-118924815D01*
X160426084Y-118959266D01*
X160443334Y-119004267D01*
X160412123Y-119063261D01*
X160301482Y-119094935D01*
X160085900Y-119105666D01*
X160036934Y-119105867D01*
X159630534Y-119105867D01*
X159630534Y-119715467D01*
X159969200Y-119715467D01*
X160182175Y-119726344D01*
X160286195Y-119764001D01*
X160307867Y-119817067D01*
X160271611Y-119880959D01*
X160146085Y-119912165D01*
X159969200Y-119918667D01*
X159630534Y-119918667D01*
X159630534Y-120528267D01*
X160036934Y-120528267D01*
X160263916Y-120533210D01*
X160386566Y-120554923D01*
X160435862Y-120603733D01*
X160443334Y-120663734D01*
X160432021Y-120731229D01*
X160379916Y-120771680D01*
X160259770Y-120791901D01*
X160044334Y-120798702D01*
X159901467Y-120799200D01*
X159359600Y-120799200D01*
X159359600Y-118902667D01*
X159901467Y-118902667D01*
X160179494Y-118907452D01*
G36*
X157124400Y-107516740D02*
G01*
X156714163Y-107563153D01*
X156544102Y-107580080D01*
X156403662Y-107596864D01*
X156289934Y-107625590D01*
X156200011Y-107678339D01*
X156130984Y-107767195D01*
X156079945Y-107904241D01*
X156043985Y-108101560D01*
X156020195Y-108371236D01*
X156005669Y-108725350D01*
X155997496Y-109175987D01*
X155992769Y-109735229D01*
X155988579Y-110415159D01*
X155987439Y-110582364D01*
X155984064Y-111355097D01*
X155985360Y-112041016D01*
X155991175Y-112630982D01*
X156001356Y-113115856D01*
X156015751Y-113486500D01*
X156034207Y-113733775D01*
X156040897Y-113785042D01*
X156167224Y-114335019D01*
X156363298Y-114776638D01*
X156637256Y-115122185D01*
X156997234Y-115383948D01*
X157150257Y-115460403D01*
X157308280Y-115525323D01*
X157464149Y-115569576D01*
X157648852Y-115597013D01*
X157893378Y-115611484D01*
X158228718Y-115616842D01*
X158412758Y-115617305D01*
X158783567Y-115616271D01*
X159051234Y-115609349D01*
X159248078Y-115591226D01*
X159406422Y-115556590D01*
X159558587Y-115500129D01*
X159736896Y-115416529D01*
X159788476Y-115391195D01*
X160141276Y-115182023D01*
X160408416Y-114931868D01*
X160614183Y-114610511D01*
X160782864Y-114187735D01*
X160800892Y-114131534D01*
X160837410Y-114011134D01*
X160867488Y-113894538D01*
X160891751Y-113767733D01*
X160910822Y-113616707D01*
X160925324Y-113427446D01*
X160935881Y-113185936D01*
X160943118Y-112878165D01*
X160947658Y-112490119D01*
X160950125Y-112007785D01*
X160951142Y-111417150D01*
X160951334Y-110751804D01*
X160951334Y-107850275D01*
X160802770Y-107729920D01*
X160650547Y-107654479D01*
X160418031Y-107590952D01*
X160243970Y-107563153D01*
X159833734Y-107516740D01*
X159833734Y-106947734D01*
X163017200Y-106947734D01*
X163017200Y-107516740D01*
X162606963Y-107563153D01*
X162444648Y-107578791D01*
X162309238Y-107593380D01*
X162198155Y-107618377D01*
X162108820Y-107665242D01*
X162038655Y-107745435D01*
X161985082Y-107870413D01*
X161945523Y-108051636D01*
X161917399Y-108300563D01*
X161898132Y-108628654D01*
X161885145Y-109047366D01*
X161875858Y-109568159D01*
X161867693Y-110202492D01*
X161859078Y-110887122D01*
X161848307Y-111640148D01*
X161837478Y-112270095D01*
X161826051Y-112789353D01*
X161813486Y-113210309D01*
X161799242Y-113545351D01*
X161782778Y-113806867D01*
X161763554Y-114007245D01*
X161741030Y-114158873D01*
X161714665Y-114274139D01*
X161710690Y-114287898D01*
X161462725Y-114923342D01*
X161124558Y-115458349D01*
X160694017Y-115894921D01*
X160168929Y-116235060D01*
X159547120Y-116480767D01*
X159244629Y-116558965D01*
X158929445Y-116607954D01*
X158521163Y-116641167D01*
X158061289Y-116658106D01*
X157591328Y-116658271D01*
X157152786Y-116641161D01*
X156787168Y-116606278D01*
X156684134Y-116589782D01*
X155984040Y-116411370D01*
X155374880Y-116154047D01*
X154863910Y-115823032D01*
X154458387Y-115423541D01*
X154165567Y-114960791D01*
X154063097Y-114705538D01*
X154041180Y-114577418D01*
X154021149Y-114329456D01*
X154002917Y-113959086D01*
X153986402Y-113463737D01*
X153971518Y-112840841D01*
X153958181Y-112087830D01*
X153946307Y-111202136D01*
X153945409Y-111124734D01*
X153942981Y-110895172D01*
X155095798Y-110895172D01*
X155097704Y-111456750D01*
X155102256Y-112001928D01*
X155109435Y-112511724D01*
X155119220Y-112967160D01*
X155131592Y-113349255D01*
X155146532Y-113639030D01*
X155164019Y-113817504D01*
X155164136Y-113818225D01*
X155300829Y-114375869D01*
X155514354Y-114825647D01*
X155808582Y-115173835D01*
X156142267Y-115403790D01*
X156325767Y-115491110D01*
X156399397Y-115503697D01*
X156361427Y-115442498D01*
X156252503Y-115343540D01*
X156060671Y-115121765D01*
X155879798Y-114803639D01*
X155729074Y-114428025D01*
X155642028Y-114107200D01*
X155620819Y-113931552D01*
X155602972Y-113624902D01*
X155588588Y-113191674D01*
X155577768Y-112636292D01*
X155570614Y-111963181D01*
X155567227Y-111176766D01*
X155566951Y-110822133D01*
X155567741Y-110091498D01*
X155570130Y-109484580D01*
X155574485Y-108989634D01*
X155581176Y-108594914D01*
X155590570Y-108288677D01*
X155603035Y-108059178D01*
X155618940Y-107894671D01*
X155638654Y-107783413D01*
X155662543Y-107713659D01*
X155664534Y-107709734D01*
X155723126Y-107579345D01*
X155709583Y-107529198D01*
X155667894Y-107523467D01*
X155512257Y-107581890D01*
X155351219Y-107731600D01*
X155218722Y-107934255D01*
X155158203Y-108099200D01*
X155141035Y-108244150D01*
X155126650Y-108505559D01*
X155115030Y-108864445D01*
X155106155Y-109301829D01*
X155100004Y-109798731D01*
X155096558Y-110336172D01*
X155095798Y-110895172D01*
X153942981Y-110895172D01*
X153937170Y-110345857D01*
X153930365Y-109691424D01*
X153922784Y-109150464D01*
X153912216Y-108712003D01*
X153896452Y-108365068D01*
X153873280Y-108098688D01*
X153840490Y-107901889D01*
X153795873Y-107763698D01*
X153737216Y-107673142D01*
X153662311Y-107619250D01*
X153568945Y-107591047D01*
X153454910Y-107577563D01*
X153317994Y-107567822D01*
X153227209Y-107559563D01*
X152789467Y-107512685D01*
X152789467Y-106947734D01*
X157124400Y-106947734D01*
X157124400Y-107516740D01*
G37*
X157124400Y-107516740D02*
X156714163Y-107563153D01*
X156544102Y-107580080D01*
X156403662Y-107596864D01*
X156289934Y-107625590D01*
X156200011Y-107678339D01*
X156130984Y-107767195D01*
X156079945Y-107904241D01*
X156043985Y-108101560D01*
X156020195Y-108371236D01*
X156005669Y-108725350D01*
X155997496Y-109175987D01*
X155992769Y-109735229D01*
X155988579Y-110415159D01*
X155987439Y-110582364D01*
X155984064Y-111355097D01*
X155985360Y-112041016D01*
X155991175Y-112630982D01*
X156001356Y-113115856D01*
X156015751Y-113486500D01*
X156034207Y-113733775D01*
X156040897Y-113785042D01*
X156167224Y-114335019D01*
X156363298Y-114776638D01*
X156637256Y-115122185D01*
X156997234Y-115383948D01*
X157150257Y-115460403D01*
X157308280Y-115525323D01*
X157464149Y-115569576D01*
X157648852Y-115597013D01*
X157893378Y-115611484D01*
X158228718Y-115616842D01*
X158412758Y-115617305D01*
X158783567Y-115616271D01*
X159051234Y-115609349D01*
X159248078Y-115591226D01*
X159406422Y-115556590D01*
X159558587Y-115500129D01*
X159736896Y-115416529D01*
X159788476Y-115391195D01*
X160141276Y-115182023D01*
X160408416Y-114931868D01*
X160614183Y-114610511D01*
X160782864Y-114187735D01*
X160800892Y-114131534D01*
X160837410Y-114011134D01*
X160867488Y-113894538D01*
X160891751Y-113767733D01*
X160910822Y-113616707D01*
X160925324Y-113427446D01*
X160935881Y-113185936D01*
X160943118Y-112878165D01*
X160947658Y-112490119D01*
X160950125Y-112007785D01*
X160951142Y-111417150D01*
X160951334Y-110751804D01*
X160951334Y-107850275D01*
X160802770Y-107729920D01*
X160650547Y-107654479D01*
X160418031Y-107590952D01*
X160243970Y-107563153D01*
X159833734Y-107516740D01*
X159833734Y-106947734D01*
X163017200Y-106947734D01*
X163017200Y-107516740D01*
X162606963Y-107563153D01*
X162444648Y-107578791D01*
X162309238Y-107593380D01*
X162198155Y-107618377D01*
X162108820Y-107665242D01*
X162038655Y-107745435D01*
X161985082Y-107870413D01*
X161945523Y-108051636D01*
X161917399Y-108300563D01*
X161898132Y-108628654D01*
X161885145Y-109047366D01*
X161875858Y-109568159D01*
X161867693Y-110202492D01*
X161859078Y-110887122D01*
X161848307Y-111640148D01*
X161837478Y-112270095D01*
X161826051Y-112789353D01*
X161813486Y-113210309D01*
X161799242Y-113545351D01*
X161782778Y-113806867D01*
X161763554Y-114007245D01*
X161741030Y-114158873D01*
X161714665Y-114274139D01*
X161710690Y-114287898D01*
X161462725Y-114923342D01*
X161124558Y-115458349D01*
X160694017Y-115894921D01*
X160168929Y-116235060D01*
X159547120Y-116480767D01*
X159244629Y-116558965D01*
X158929445Y-116607954D01*
X158521163Y-116641167D01*
X158061289Y-116658106D01*
X157591328Y-116658271D01*
X157152786Y-116641161D01*
X156787168Y-116606278D01*
X156684134Y-116589782D01*
X155984040Y-116411370D01*
X155374880Y-116154047D01*
X154863910Y-115823032D01*
X154458387Y-115423541D01*
X154165567Y-114960791D01*
X154063097Y-114705538D01*
X154041180Y-114577418D01*
X154021149Y-114329456D01*
X154002917Y-113959086D01*
X153986402Y-113463737D01*
X153971518Y-112840841D01*
X153958181Y-112087830D01*
X153946307Y-111202136D01*
X153945409Y-111124734D01*
X153942981Y-110895172D01*
X155095798Y-110895172D01*
X155097704Y-111456750D01*
X155102256Y-112001928D01*
X155109435Y-112511724D01*
X155119220Y-112967160D01*
X155131592Y-113349255D01*
X155146532Y-113639030D01*
X155164019Y-113817504D01*
X155164136Y-113818225D01*
X155300829Y-114375869D01*
X155514354Y-114825647D01*
X155808582Y-115173835D01*
X156142267Y-115403790D01*
X156325767Y-115491110D01*
X156399397Y-115503697D01*
X156361427Y-115442498D01*
X156252503Y-115343540D01*
X156060671Y-115121765D01*
X155879798Y-114803639D01*
X155729074Y-114428025D01*
X155642028Y-114107200D01*
X155620819Y-113931552D01*
X155602972Y-113624902D01*
X155588588Y-113191674D01*
X155577768Y-112636292D01*
X155570614Y-111963181D01*
X155567227Y-111176766D01*
X155566951Y-110822133D01*
X155567741Y-110091498D01*
X155570130Y-109484580D01*
X155574485Y-108989634D01*
X155581176Y-108594914D01*
X155590570Y-108288677D01*
X155603035Y-108059178D01*
X155618940Y-107894671D01*
X155638654Y-107783413D01*
X155662543Y-107713659D01*
X155664534Y-107709734D01*
X155723126Y-107579345D01*
X155709583Y-107529198D01*
X155667894Y-107523467D01*
X155512257Y-107581890D01*
X155351219Y-107731600D01*
X155218722Y-107934255D01*
X155158203Y-108099200D01*
X155141035Y-108244150D01*
X155126650Y-108505559D01*
X155115030Y-108864445D01*
X155106155Y-109301829D01*
X155100004Y-109798731D01*
X155096558Y-110336172D01*
X155095798Y-110895172D01*
X153942981Y-110895172D01*
X153937170Y-110345857D01*
X153930365Y-109691424D01*
X153922784Y-109150464D01*
X153912216Y-108712003D01*
X153896452Y-108365068D01*
X153873280Y-108098688D01*
X153840490Y-107901889D01*
X153795873Y-107763698D01*
X153737216Y-107673142D01*
X153662311Y-107619250D01*
X153568945Y-107591047D01*
X153454910Y-107577563D01*
X153317994Y-107567822D01*
X153227209Y-107559563D01*
X152789467Y-107512685D01*
X152789467Y-106947734D01*
X157124400Y-106947734D01*
X157124400Y-107516740D01*
G36*
X152247600Y-107513719D02*
G01*
X151858134Y-107556406D01*
X151540430Y-107601148D01*
X151332685Y-107660868D01*
X151209398Y-107749141D01*
X151145068Y-107879542D01*
X151130646Y-107943683D01*
X151123391Y-108052172D01*
X151117267Y-108282928D01*
X151112343Y-108622756D01*
X151108687Y-109058461D01*
X151106369Y-109576847D01*
X151105457Y-110164719D01*
X151106018Y-110808882D01*
X151108123Y-111496141D01*
X151110059Y-111905851D01*
X151115608Y-112783477D01*
X151122298Y-113532290D01*
X151130301Y-114158941D01*
X151139788Y-114670081D01*
X151150933Y-115072358D01*
X151163906Y-115372425D01*
X151178879Y-115576930D01*
X151196026Y-115692526D01*
X151208776Y-115723507D01*
X151319468Y-115776034D01*
X151510046Y-115819234D01*
X151615176Y-115832436D01*
X151909847Y-115862249D01*
X152094965Y-115895440D01*
X152195981Y-115946585D01*
X152238346Y-116030259D01*
X152247512Y-116161037D01*
X152247600Y-116194624D01*
X152247600Y-116464267D01*
X147912667Y-116464267D01*
X147912667Y-116194624D01*
X147918202Y-116052510D01*
X147951773Y-115960458D01*
X148038832Y-115903893D01*
X148204829Y-115868237D01*
X148475215Y-115838918D01*
X148545091Y-115832436D01*
X148754493Y-115799167D01*
X148911035Y-115749327D01*
X148951491Y-115723507D01*
X148970184Y-115663605D01*
X148986590Y-115519235D01*
X149000881Y-115283748D01*
X149013228Y-114950493D01*
X149023803Y-114512819D01*
X149032779Y-113964076D01*
X149040327Y-113297613D01*
X149046619Y-112506781D01*
X149050208Y-111905851D01*
X149051902Y-111509960D01*
X150215904Y-111509960D01*
X150217470Y-112138035D01*
X150221265Y-112756056D01*
X150227256Y-113348013D01*
X150235406Y-113897895D01*
X150245681Y-114389688D01*
X150258046Y-114807381D01*
X150272465Y-115134964D01*
X150288904Y-115356423D01*
X150304090Y-115448267D01*
X150447428Y-115681820D01*
X150622000Y-115803762D01*
X150775457Y-115878970D01*
X150864502Y-115919838D01*
X150871983Y-115922295D01*
X150853729Y-115870237D01*
X150791835Y-115744016D01*
X150787734Y-115736133D01*
X150766540Y-115676911D01*
X150748547Y-115580170D01*
X150733508Y-115435741D01*
X150721179Y-115233455D01*
X150711315Y-114963144D01*
X150703671Y-114614639D01*
X150698002Y-114177771D01*
X150694062Y-113642372D01*
X150691607Y-112998273D01*
X150690391Y-112235305D01*
X150690151Y-111687205D01*
X150690411Y-110855516D01*
X150691568Y-110148825D01*
X150693896Y-109556660D01*
X150697670Y-109068555D01*
X150703162Y-108674039D01*
X150710646Y-108362644D01*
X150720398Y-108123901D01*
X150732691Y-107947341D01*
X150747798Y-107822496D01*
X150765994Y-107738896D01*
X150787553Y-107686072D01*
X150795174Y-107674005D01*
X150857689Y-107559652D01*
X150822415Y-107532015D01*
X150686672Y-107590870D01*
X150575357Y-107655663D01*
X150370529Y-107854619D01*
X150287868Y-108044877D01*
X150270331Y-108176950D01*
X150255304Y-108427065D01*
X150242753Y-108779209D01*
X150232643Y-109217371D01*
X150224938Y-109725539D01*
X150219603Y-110287701D01*
X150216604Y-110887845D01*
X150215904Y-111509960D01*
X149051902Y-111509960D01*
X149053231Y-111199781D01*
X149054672Y-110529216D01*
X149054599Y-109907353D01*
X149053081Y-109347386D01*
X149050186Y-108862510D01*
X149045983Y-108465921D01*
X149040541Y-108170814D01*
X149033928Y-107990384D01*
X149029621Y-107943683D01*
X148981156Y-107793496D01*
X148883526Y-107690650D01*
X148711233Y-107621571D01*
X148438773Y-107572682D01*
X148302134Y-107556406D01*
X147912667Y-107513719D01*
X147912667Y-106947734D01*
X152247600Y-106947734D01*
X152247600Y-107513719D01*
G37*
X152247600Y-107513719D02*
X151858134Y-107556406D01*
X151540430Y-107601148D01*
X151332685Y-107660868D01*
X151209398Y-107749141D01*
X151145068Y-107879542D01*
X151130646Y-107943683D01*
X151123391Y-108052172D01*
X151117267Y-108282928D01*
X151112343Y-108622756D01*
X151108687Y-109058461D01*
X151106369Y-109576847D01*
X151105457Y-110164719D01*
X151106018Y-110808882D01*
X151108123Y-111496141D01*
X151110059Y-111905851D01*
X151115608Y-112783477D01*
X151122298Y-113532290D01*
X151130301Y-114158941D01*
X151139788Y-114670081D01*
X151150933Y-115072358D01*
X151163906Y-115372425D01*
X151178879Y-115576930D01*
X151196026Y-115692526D01*
X151208776Y-115723507D01*
X151319468Y-115776034D01*
X151510046Y-115819234D01*
X151615176Y-115832436D01*
X151909847Y-115862249D01*
X152094965Y-115895440D01*
X152195981Y-115946585D01*
X152238346Y-116030259D01*
X152247512Y-116161037D01*
X152247600Y-116194624D01*
X152247600Y-116464267D01*
X147912667Y-116464267D01*
X147912667Y-116194624D01*
X147918202Y-116052510D01*
X147951773Y-115960458D01*
X148038832Y-115903893D01*
X148204829Y-115868237D01*
X148475215Y-115838918D01*
X148545091Y-115832436D01*
X148754493Y-115799167D01*
X148911035Y-115749327D01*
X148951491Y-115723507D01*
X148970184Y-115663605D01*
X148986590Y-115519235D01*
X149000881Y-115283748D01*
X149013228Y-114950493D01*
X149023803Y-114512819D01*
X149032779Y-113964076D01*
X149040327Y-113297613D01*
X149046619Y-112506781D01*
X149050208Y-111905851D01*
X149051902Y-111509960D01*
X150215904Y-111509960D01*
X150217470Y-112138035D01*
X150221265Y-112756056D01*
X150227256Y-113348013D01*
X150235406Y-113897895D01*
X150245681Y-114389688D01*
X150258046Y-114807381D01*
X150272465Y-115134964D01*
X150288904Y-115356423D01*
X150304090Y-115448267D01*
X150447428Y-115681820D01*
X150622000Y-115803762D01*
X150775457Y-115878970D01*
X150864502Y-115919838D01*
X150871983Y-115922295D01*
X150853729Y-115870237D01*
X150791835Y-115744016D01*
X150787734Y-115736133D01*
X150766540Y-115676911D01*
X150748547Y-115580170D01*
X150733508Y-115435741D01*
X150721179Y-115233455D01*
X150711315Y-114963144D01*
X150703671Y-114614639D01*
X150698002Y-114177771D01*
X150694062Y-113642372D01*
X150691607Y-112998273D01*
X150690391Y-112235305D01*
X150690151Y-111687205D01*
X150690411Y-110855516D01*
X150691568Y-110148825D01*
X150693896Y-109556660D01*
X150697670Y-109068555D01*
X150703162Y-108674039D01*
X150710646Y-108362644D01*
X150720398Y-108123901D01*
X150732691Y-107947341D01*
X150747798Y-107822496D01*
X150765994Y-107738896D01*
X150787553Y-107686072D01*
X150795174Y-107674005D01*
X150857689Y-107559652D01*
X150822415Y-107532015D01*
X150686672Y-107590870D01*
X150575357Y-107655663D01*
X150370529Y-107854619D01*
X150287868Y-108044877D01*
X150270331Y-108176950D01*
X150255304Y-108427065D01*
X150242753Y-108779209D01*
X150232643Y-109217371D01*
X150224938Y-109725539D01*
X150219603Y-110287701D01*
X150216604Y-110887845D01*
X150215904Y-111509960D01*
X149051902Y-111509960D01*
X149053231Y-111199781D01*
X149054672Y-110529216D01*
X149054599Y-109907353D01*
X149053081Y-109347386D01*
X149050186Y-108862510D01*
X149045983Y-108465921D01*
X149040541Y-108170814D01*
X149033928Y-107990384D01*
X149029621Y-107943683D01*
X148981156Y-107793496D01*
X148883526Y-107690650D01*
X148711233Y-107621571D01*
X148438773Y-107572682D01*
X148302134Y-107556406D01*
X147912667Y-107513719D01*
X147912667Y-106947734D01*
X152247600Y-106947734D01*
X152247600Y-107513719D01*
G36*
X144982355Y-106817164D02*
G01*
X145747667Y-106957817D01*
X145986820Y-107015039D01*
X146431484Y-107131137D01*
X146756142Y-107228295D01*
X146973995Y-107312204D01*
X147098246Y-107388555D01*
X147142096Y-107463036D01*
X147135027Y-107509926D01*
X147100338Y-107653552D01*
X147062630Y-107894398D01*
X147026069Y-108194409D01*
X146994820Y-108515532D01*
X146973046Y-108819709D01*
X146964914Y-109064400D01*
X146964400Y-109420000D01*
X146102280Y-109420000D01*
X146059207Y-109105747D01*
X146031716Y-108843860D01*
X146016942Y-108583701D01*
X146016133Y-108526779D01*
X145982115Y-108296381D01*
X145859418Y-108115345D01*
X145829867Y-108086427D01*
X145496708Y-107849841D01*
X145074041Y-107666548D01*
X144600957Y-107547256D01*
X144116546Y-107502673D01*
X143775926Y-107523776D01*
X143290224Y-107646928D01*
X142889674Y-107863686D01*
X142583781Y-108164074D01*
X142382048Y-108538117D01*
X142293980Y-108975840D01*
X142290800Y-109082522D01*
X142332677Y-109445909D01*
X142471107Y-109742576D01*
X142674220Y-109971068D01*
X142803952Y-110081930D01*
X142944913Y-110176713D01*
X143117654Y-110263458D01*
X143342722Y-110350209D01*
X143640670Y-110445009D01*
X144032045Y-110555901D01*
X144464159Y-110671627D01*
X144879238Y-110786293D01*
X145280235Y-110906277D01*
X145635638Y-111021484D01*
X145913936Y-111121816D01*
X146050000Y-111179721D01*
X146548151Y-111488360D01*
X146938456Y-111875622D01*
X147217547Y-112333905D01*
X147382057Y-112855604D01*
X147428619Y-113433114D01*
X147353865Y-114058831D01*
X147344345Y-114102704D01*
X147145290Y-114711185D01*
X146836836Y-115240331D01*
X146418138Y-115691176D01*
X145888355Y-116064757D01*
X145643600Y-116193536D01*
X145313423Y-116334445D01*
X144945402Y-116463183D01*
X144613207Y-116554279D01*
X144579656Y-116561389D01*
X144080163Y-116630977D01*
X143503260Y-116659850D01*
X142900568Y-116648555D01*
X142323705Y-116597641D01*
X141936955Y-116533341D01*
X141534395Y-116439864D01*
X141147128Y-116334470D01*
X140804431Y-116226406D01*
X140535579Y-116124922D01*
X140369849Y-116039266D01*
X140367435Y-116037520D01*
X140318137Y-115988284D01*
X140290045Y-115911525D01*
X140281783Y-115781264D01*
X140290180Y-115608447D01*
X140811529Y-115608447D01*
X140852528Y-115700850D01*
X140979975Y-115777304D01*
X141047964Y-115808077D01*
X141219263Y-115872771D01*
X141462538Y-115951176D01*
X141738981Y-116032416D01*
X142009782Y-116105617D01*
X142236132Y-116159903D01*
X142379220Y-116184399D01*
X142392400Y-116184820D01*
X142378107Y-116160517D01*
X142266527Y-116099700D01*
X142170457Y-116055091D01*
X141868126Y-115899782D01*
X141575978Y-115713559D01*
X141331566Y-115522989D01*
X141172444Y-115354640D01*
X141165136Y-115343865D01*
X141086540Y-115182186D01*
X141006359Y-114953519D01*
X140970465Y-114822901D01*
X140883380Y-114466134D01*
X140875145Y-114838667D01*
X140862739Y-115102562D01*
X140840495Y-115353195D01*
X140827085Y-115451891D01*
X140811529Y-115608447D01*
X140290180Y-115608447D01*
X140291975Y-115571519D01*
X140319245Y-115256310D01*
X140323613Y-115210015D01*
X140353716Y-114851903D01*
X140377430Y-114492442D01*
X140391600Y-114183763D01*
X140394210Y-114042800D01*
X140394267Y-113619467D01*
X141258691Y-113619467D01*
X141354725Y-114900385D01*
X141658293Y-115180204D01*
X142104983Y-115508348D01*
X142609333Y-115736098D01*
X143147282Y-115861761D01*
X143694766Y-115883643D01*
X144227722Y-115800049D01*
X144722086Y-115609286D01*
X145024332Y-115417182D01*
X145276318Y-115151883D01*
X145474160Y-114801548D01*
X145595895Y-114412730D01*
X145624037Y-114146065D01*
X145584421Y-113770845D01*
X145446317Y-113459833D01*
X145192167Y-113174527D01*
X145173388Y-113157863D01*
X145099595Y-113096495D01*
X145018693Y-113040686D01*
X144916263Y-112985209D01*
X144777888Y-112924834D01*
X144589151Y-112854333D01*
X144335633Y-112768480D01*
X144002917Y-112662044D01*
X143576585Y-112529800D01*
X143042219Y-112366517D01*
X142725617Y-112270267D01*
X142064551Y-112024809D01*
X141526069Y-111725460D01*
X141106927Y-111368519D01*
X140803885Y-110950287D01*
X140613700Y-110467061D01*
X140533129Y-109915142D01*
X140529733Y-109763975D01*
X140576362Y-109233753D01*
X141485979Y-109233753D01*
X141488821Y-109475636D01*
X141535359Y-109820609D01*
X141640331Y-110120418D01*
X141814521Y-110382895D01*
X142068714Y-110615868D01*
X142413693Y-110827169D01*
X142860245Y-111024627D01*
X143419152Y-111216074D01*
X144101199Y-111409338D01*
X144180690Y-111430132D01*
X144786976Y-111599946D01*
X145275229Y-111767019D01*
X145662332Y-111940816D01*
X145965170Y-112130802D01*
X146200624Y-112346442D01*
X146385578Y-112597200D01*
X146443457Y-112698654D01*
X146515157Y-112855040D01*
X146559826Y-113023466D01*
X146583294Y-113241476D01*
X146591390Y-113546614D01*
X146591697Y-113653334D01*
X146587752Y-113979852D01*
X146570497Y-114215918D01*
X146531508Y-114406457D01*
X146462361Y-114596394D01*
X146381545Y-114774142D01*
X146237808Y-115045017D01*
X146073043Y-115307860D01*
X145941448Y-115482949D01*
X145711333Y-115748281D01*
X145926474Y-115597217D01*
X146087522Y-115456606D01*
X146272927Y-115255602D01*
X146388210Y-115110222D01*
X146690928Y-114591751D01*
X146865809Y-114031979D01*
X146916268Y-113484000D01*
X146893119Y-113025774D01*
X146815823Y-112636682D01*
X146673290Y-112306441D01*
X146454430Y-112024767D01*
X146148150Y-111781376D01*
X145743360Y-111565983D01*
X145228969Y-111368306D01*
X144593886Y-111178061D01*
X144363660Y-111117150D01*
X143670648Y-110920289D01*
X143103677Y-110716433D01*
X142653323Y-110498050D01*
X142310164Y-110257608D01*
X142064773Y-109987573D01*
X141907728Y-109680413D01*
X141829605Y-109328596D01*
X141816667Y-109081333D01*
X141851235Y-108696221D01*
X141966618Y-108365180D01*
X142180334Y-108048779D01*
X142364567Y-107848033D01*
X142550446Y-107659301D01*
X142646856Y-107553514D01*
X142660244Y-107517955D01*
X142597058Y-107539906D01*
X142495057Y-107590661D01*
X142230243Y-107772135D01*
X141965553Y-108030527D01*
X141736684Y-108323972D01*
X141579331Y-108610604D01*
X141547700Y-108701775D01*
X141506323Y-108936087D01*
X141485979Y-109233753D01*
X140576362Y-109233753D01*
X140587165Y-109110921D01*
X140757352Y-108531040D01*
X141037134Y-108027402D01*
X141423350Y-107603077D01*
X141682750Y-107421867D01*
X142832667Y-107421867D01*
X142866533Y-107455734D01*
X142900400Y-107421867D01*
X142866533Y-107388000D01*
X142832667Y-107421867D01*
X141682750Y-107421867D01*
X141912840Y-107261133D01*
X142077260Y-107189606D01*
X145000134Y-107189606D01*
X145004879Y-107209021D01*
X145115312Y-107257187D01*
X145304934Y-107322815D01*
X145597621Y-107443515D01*
X145900479Y-107609173D01*
X146050000Y-107710833D01*
X146238300Y-107862309D01*
X146342631Y-107982510D01*
X146390776Y-108116731D01*
X146409697Y-108297271D01*
X146433895Y-108493920D01*
X146468461Y-108565183D01*
X146506688Y-108520062D01*
X146541869Y-108367557D01*
X146567298Y-108116669D01*
X146569227Y-108083174D01*
X146591867Y-107660748D01*
X146275703Y-107524887D01*
X146049952Y-107440700D01*
X145769418Y-107353831D01*
X145477117Y-107275585D01*
X145216068Y-107217271D01*
X145029288Y-107190195D01*
X145000134Y-107189606D01*
X142077260Y-107189606D01*
X142502442Y-107004641D01*
X143188996Y-106836669D01*
X143598544Y-106783888D01*
X144277085Y-106760263D01*
X144982355Y-106817164D01*
G37*
X144982355Y-106817164D02*
X145747667Y-106957817D01*
X145986820Y-107015039D01*
X146431484Y-107131137D01*
X146756142Y-107228295D01*
X146973995Y-107312204D01*
X147098246Y-107388555D01*
X147142096Y-107463036D01*
X147135027Y-107509926D01*
X147100338Y-107653552D01*
X147062630Y-107894398D01*
X147026069Y-108194409D01*
X146994820Y-108515532D01*
X146973046Y-108819709D01*
X146964914Y-109064400D01*
X146964400Y-109420000D01*
X146102280Y-109420000D01*
X146059207Y-109105747D01*
X146031716Y-108843860D01*
X146016942Y-108583701D01*
X146016133Y-108526779D01*
X145982115Y-108296381D01*
X145859418Y-108115345D01*
X145829867Y-108086427D01*
X145496708Y-107849841D01*
X145074041Y-107666548D01*
X144600957Y-107547256D01*
X144116546Y-107502673D01*
X143775926Y-107523776D01*
X143290224Y-107646928D01*
X142889674Y-107863686D01*
X142583781Y-108164074D01*
X142382048Y-108538117D01*
X142293980Y-108975840D01*
X142290800Y-109082522D01*
X142332677Y-109445909D01*
X142471107Y-109742576D01*
X142674220Y-109971068D01*
X142803952Y-110081930D01*
X142944913Y-110176713D01*
X143117654Y-110263458D01*
X143342722Y-110350209D01*
X143640670Y-110445009D01*
X144032045Y-110555901D01*
X144464159Y-110671627D01*
X144879238Y-110786293D01*
X145280235Y-110906277D01*
X145635638Y-111021484D01*
X145913936Y-111121816D01*
X146050000Y-111179721D01*
X146548151Y-111488360D01*
X146938456Y-111875622D01*
X147217547Y-112333905D01*
X147382057Y-112855604D01*
X147428619Y-113433114D01*
X147353865Y-114058831D01*
X147344345Y-114102704D01*
X147145290Y-114711185D01*
X146836836Y-115240331D01*
X146418138Y-115691176D01*
X145888355Y-116064757D01*
X145643600Y-116193536D01*
X145313423Y-116334445D01*
X144945402Y-116463183D01*
X144613207Y-116554279D01*
X144579656Y-116561389D01*
X144080163Y-116630977D01*
X143503260Y-116659850D01*
X142900568Y-116648555D01*
X142323705Y-116597641D01*
X141936955Y-116533341D01*
X141534395Y-116439864D01*
X141147128Y-116334470D01*
X140804431Y-116226406D01*
X140535579Y-116124922D01*
X140369849Y-116039266D01*
X140367435Y-116037520D01*
X140318137Y-115988284D01*
X140290045Y-115911525D01*
X140281783Y-115781264D01*
X140290180Y-115608447D01*
X140811529Y-115608447D01*
X140852528Y-115700850D01*
X140979975Y-115777304D01*
X141047964Y-115808077D01*
X141219263Y-115872771D01*
X141462538Y-115951176D01*
X141738981Y-116032416D01*
X142009782Y-116105617D01*
X142236132Y-116159903D01*
X142379220Y-116184399D01*
X142392400Y-116184820D01*
X142378107Y-116160517D01*
X142266527Y-116099700D01*
X142170457Y-116055091D01*
X141868126Y-115899782D01*
X141575978Y-115713559D01*
X141331566Y-115522989D01*
X141172444Y-115354640D01*
X141165136Y-115343865D01*
X141086540Y-115182186D01*
X141006359Y-114953519D01*
X140970465Y-114822901D01*
X140883380Y-114466134D01*
X140875145Y-114838667D01*
X140862739Y-115102562D01*
X140840495Y-115353195D01*
X140827085Y-115451891D01*
X140811529Y-115608447D01*
X140290180Y-115608447D01*
X140291975Y-115571519D01*
X140319245Y-115256310D01*
X140323613Y-115210015D01*
X140353716Y-114851903D01*
X140377430Y-114492442D01*
X140391600Y-114183763D01*
X140394210Y-114042800D01*
X140394267Y-113619467D01*
X141258691Y-113619467D01*
X141354725Y-114900385D01*
X141658293Y-115180204D01*
X142104983Y-115508348D01*
X142609333Y-115736098D01*
X143147282Y-115861761D01*
X143694766Y-115883643D01*
X144227722Y-115800049D01*
X144722086Y-115609286D01*
X145024332Y-115417182D01*
X145276318Y-115151883D01*
X145474160Y-114801548D01*
X145595895Y-114412730D01*
X145624037Y-114146065D01*
X145584421Y-113770845D01*
X145446317Y-113459833D01*
X145192167Y-113174527D01*
X145173388Y-113157863D01*
X145099595Y-113096495D01*
X145018693Y-113040686D01*
X144916263Y-112985209D01*
X144777888Y-112924834D01*
X144589151Y-112854333D01*
X144335633Y-112768480D01*
X144002917Y-112662044D01*
X143576585Y-112529800D01*
X143042219Y-112366517D01*
X142725617Y-112270267D01*
X142064551Y-112024809D01*
X141526069Y-111725460D01*
X141106927Y-111368519D01*
X140803885Y-110950287D01*
X140613700Y-110467061D01*
X140533129Y-109915142D01*
X140529733Y-109763975D01*
X140576362Y-109233753D01*
X141485979Y-109233753D01*
X141488821Y-109475636D01*
X141535359Y-109820609D01*
X141640331Y-110120418D01*
X141814521Y-110382895D01*
X142068714Y-110615868D01*
X142413693Y-110827169D01*
X142860245Y-111024627D01*
X143419152Y-111216074D01*
X144101199Y-111409338D01*
X144180690Y-111430132D01*
X144786976Y-111599946D01*
X145275229Y-111767019D01*
X145662332Y-111940816D01*
X145965170Y-112130802D01*
X146200624Y-112346442D01*
X146385578Y-112597200D01*
X146443457Y-112698654D01*
X146515157Y-112855040D01*
X146559826Y-113023466D01*
X146583294Y-113241476D01*
X146591390Y-113546614D01*
X146591697Y-113653334D01*
X146587752Y-113979852D01*
X146570497Y-114215918D01*
X146531508Y-114406457D01*
X146462361Y-114596394D01*
X146381545Y-114774142D01*
X146237808Y-115045017D01*
X146073043Y-115307860D01*
X145941448Y-115482949D01*
X145711333Y-115748281D01*
X145926474Y-115597217D01*
X146087522Y-115456606D01*
X146272927Y-115255602D01*
X146388210Y-115110222D01*
X146690928Y-114591751D01*
X146865809Y-114031979D01*
X146916268Y-113484000D01*
X146893119Y-113025774D01*
X146815823Y-112636682D01*
X146673290Y-112306441D01*
X146454430Y-112024767D01*
X146148150Y-111781376D01*
X145743360Y-111565983D01*
X145228969Y-111368306D01*
X144593886Y-111178061D01*
X144363660Y-111117150D01*
X143670648Y-110920289D01*
X143103677Y-110716433D01*
X142653323Y-110498050D01*
X142310164Y-110257608D01*
X142064773Y-109987573D01*
X141907728Y-109680413D01*
X141829605Y-109328596D01*
X141816667Y-109081333D01*
X141851235Y-108696221D01*
X141966618Y-108365180D01*
X142180334Y-108048779D01*
X142364567Y-107848033D01*
X142550446Y-107659301D01*
X142646856Y-107553514D01*
X142660244Y-107517955D01*
X142597058Y-107539906D01*
X142495057Y-107590661D01*
X142230243Y-107772135D01*
X141965553Y-108030527D01*
X141736684Y-108323972D01*
X141579331Y-108610604D01*
X141547700Y-108701775D01*
X141506323Y-108936087D01*
X141485979Y-109233753D01*
X140576362Y-109233753D01*
X140587165Y-109110921D01*
X140757352Y-108531040D01*
X141037134Y-108027402D01*
X141423350Y-107603077D01*
X141682750Y-107421867D01*
X142832667Y-107421867D01*
X142866533Y-107455734D01*
X142900400Y-107421867D01*
X142866533Y-107388000D01*
X142832667Y-107421867D01*
X141682750Y-107421867D01*
X141912840Y-107261133D01*
X142077260Y-107189606D01*
X145000134Y-107189606D01*
X145004879Y-107209021D01*
X145115312Y-107257187D01*
X145304934Y-107322815D01*
X145597621Y-107443515D01*
X145900479Y-107609173D01*
X146050000Y-107710833D01*
X146238300Y-107862309D01*
X146342631Y-107982510D01*
X146390776Y-108116731D01*
X146409697Y-108297271D01*
X146433895Y-108493920D01*
X146468461Y-108565183D01*
X146506688Y-108520062D01*
X146541869Y-108367557D01*
X146567298Y-108116669D01*
X146569227Y-108083174D01*
X146591867Y-107660748D01*
X146275703Y-107524887D01*
X146049952Y-107440700D01*
X145769418Y-107353831D01*
X145477117Y-107275585D01*
X145216068Y-107217271D01*
X145029288Y-107190195D01*
X145000134Y-107189606D01*
X142077260Y-107189606D01*
X142502442Y-107004641D01*
X143188996Y-106836669D01*
X143598544Y-106783888D01*
X144277085Y-106760263D01*
X144982355Y-106817164D01*
G36*
X248085791Y-99355780D02*
G01*
X248190132Y-99378262D01*
X248288863Y-99423692D01*
X248389170Y-99498127D01*
X248498237Y-99607621D01*
X248623248Y-99758231D01*
X248771391Y-99956011D01*
X248898286Y-100133680D01*
X249342724Y-100741797D01*
X249836868Y-101378271D01*
X250373325Y-102035020D01*
X250944701Y-102703964D01*
X251543604Y-103377025D01*
X252162642Y-104046120D01*
X252794420Y-104703172D01*
X253431547Y-105340098D01*
X254066628Y-105948821D01*
X254692272Y-106521258D01*
X254953066Y-106751198D01*
X255287297Y-107037352D01*
X255647410Y-107336572D01*
X256023672Y-107641319D01*
X256406353Y-107944054D01*
X256785721Y-108237238D01*
X257152044Y-108513332D01*
X257495592Y-108764798D01*
X257806632Y-108984096D01*
X258024534Y-109130662D01*
X258232535Y-109269913D01*
X258390382Y-109384125D01*
X258507059Y-109481276D01*
X258591554Y-109569345D01*
X258652851Y-109656311D01*
X258685042Y-109717145D01*
X258756013Y-109918183D01*
X258768336Y-110103552D01*
X258720233Y-110276951D01*
X258609925Y-110442076D01*
X258435631Y-110602627D01*
X258195573Y-110762300D01*
X258176934Y-110773151D01*
X258049903Y-110852348D01*
X257878694Y-110967785D01*
X257671850Y-111113180D01*
X257437916Y-111282252D01*
X257185436Y-111468718D01*
X256922953Y-111666294D01*
X256659011Y-111868701D01*
X256402155Y-112069654D01*
X256263467Y-112180116D01*
X255645678Y-112683357D01*
X255069337Y-113169602D01*
X254518305Y-113653308D01*
X253976445Y-114148937D01*
X253427619Y-114670947D01*
X252857814Y-115231678D01*
X252133880Y-115969324D01*
X251458542Y-116689162D01*
X250820280Y-117404599D01*
X250207574Y-118129037D01*
X249608906Y-118875881D01*
X249012757Y-119658536D01*
X248767692Y-119991102D01*
X248642794Y-120159142D01*
X248525142Y-120311940D01*
X248422824Y-120439408D01*
X248343928Y-120531460D01*
X248297738Y-120577144D01*
X248178110Y-120631039D01*
X248017526Y-120654737D01*
X247836195Y-120647133D01*
X247668480Y-120611558D01*
X247592870Y-120586652D01*
X247530872Y-120557974D01*
X247474381Y-120516797D01*
X247415292Y-120454392D01*
X247345503Y-120362029D01*
X247256909Y-120230982D01*
X247141405Y-120052521D01*
X247123445Y-120024533D01*
X246970006Y-119795234D01*
X246777955Y-119524257D01*
X246554058Y-119220212D01*
X246305080Y-118891708D01*
X246037787Y-118547354D01*
X245758943Y-118195759D01*
X245475314Y-117845532D01*
X245193665Y-117505282D01*
X244920763Y-117183618D01*
X244663371Y-116889150D01*
X244631228Y-116853121D01*
X244382572Y-116580059D01*
X244096516Y-116274351D01*
X243782693Y-115945727D01*
X243450734Y-115603914D01*
X243110274Y-115258641D01*
X242770945Y-114919637D01*
X242442379Y-114596629D01*
X242134209Y-114299347D01*
X241856068Y-114037519D01*
X241717734Y-113910658D01*
X240684092Y-113002515D01*
X239649871Y-112151857D01*
X238603523Y-111349330D01*
X238127867Y-111003004D01*
X237892477Y-110833759D01*
X237705948Y-110697643D01*
X237561666Y-110588923D01*
X237453016Y-110501866D01*
X237373383Y-110430741D01*
X237316152Y-110369814D01*
X237274708Y-110313354D01*
X237242436Y-110255628D01*
X237226475Y-110221870D01*
X237176273Y-110079027D01*
X237174871Y-110056936D01*
X239978391Y-110056936D01*
X239980171Y-110094506D01*
X239990303Y-110208291D01*
X240009649Y-110314082D01*
X240042548Y-110419900D01*
X240093342Y-110533761D01*
X240166373Y-110663685D01*
X240265981Y-110817689D01*
X240396507Y-111003792D01*
X240562293Y-111230012D01*
X240681044Y-111389068D01*
X241011887Y-111821015D01*
X241346188Y-112237944D01*
X241689947Y-112646236D01*
X242049163Y-113052268D01*
X242429835Y-113462420D01*
X242837962Y-113883072D01*
X243279543Y-114320601D01*
X243760577Y-114781388D01*
X244287063Y-115271811D01*
X244612181Y-115569226D01*
X245057577Y-115970341D01*
X245461656Y-116325506D01*
X245829175Y-116638421D01*
X246164890Y-116912784D01*
X246473559Y-117152295D01*
X246759938Y-117360651D01*
X247028785Y-117541553D01*
X247284857Y-117698699D01*
X247515002Y-117826396D01*
X247646360Y-117893587D01*
X247742683Y-117933803D01*
X247828148Y-117952961D01*
X247926931Y-117956976D01*
X248033150Y-117953199D01*
X248189959Y-117939603D01*
X248322646Y-117909929D01*
X248463921Y-117855574D01*
X248541867Y-117819400D01*
X248716121Y-117724447D01*
X248932977Y-117587530D01*
X249186059Y-117413472D01*
X249468993Y-117207097D01*
X249775404Y-116973228D01*
X250098916Y-116716688D01*
X250433154Y-116442302D01*
X250771743Y-116154892D01*
X250968003Y-115983778D01*
X251331213Y-115656550D01*
X251721783Y-115291422D01*
X252129793Y-114898449D01*
X252545322Y-114487685D01*
X252958449Y-114069186D01*
X253359253Y-113653006D01*
X253737814Y-113249198D01*
X254084211Y-112867819D01*
X254388523Y-112518923D01*
X254399384Y-112506133D01*
X254678660Y-112174327D01*
X254916864Y-111885093D01*
X255119069Y-111631426D01*
X255290350Y-111406315D01*
X255435781Y-111202753D01*
X255560434Y-111013732D01*
X255669383Y-110832242D01*
X255767703Y-110651276D01*
X255825685Y-110535987D01*
X255891172Y-110398445D01*
X255930892Y-110297923D01*
X255950200Y-110211281D01*
X255954452Y-110115380D01*
X255949719Y-110000000D01*
X255934544Y-109841189D01*
X255902948Y-109709232D01*
X255845484Y-109569730D01*
X255813984Y-109505778D01*
X255730316Y-109359602D01*
X255606354Y-109169444D01*
X255447074Y-108941702D01*
X255257456Y-108682775D01*
X255042477Y-108399060D01*
X254807116Y-108096956D01*
X254556351Y-107782859D01*
X254295161Y-107463169D01*
X254028522Y-107144282D01*
X253761415Y-106832598D01*
X253523844Y-106562533D01*
X253376574Y-106400858D01*
X253197158Y-106209465D01*
X252993061Y-105995859D01*
X252771746Y-105767541D01*
X252540679Y-105532014D01*
X252307324Y-105296780D01*
X252079146Y-105069342D01*
X251863607Y-104857201D01*
X251668174Y-104667862D01*
X251500309Y-104508825D01*
X251367478Y-104387594D01*
X251313779Y-104341188D01*
X251196016Y-104241226D01*
X251043824Y-104110096D01*
X250873288Y-103961757D01*
X250700490Y-103810167D01*
X250619512Y-103738617D01*
X250407558Y-103554315D01*
X250178726Y-103361447D01*
X249941807Y-103166910D01*
X249705592Y-102977600D01*
X249478871Y-102800412D01*
X249270434Y-102642243D01*
X249089073Y-102509989D01*
X248943579Y-102410545D01*
X248866403Y-102363377D01*
X248545359Y-102211307D01*
X248235976Y-102119425D01*
X247942144Y-102088000D01*
X247667753Y-102117303D01*
X247416693Y-102207602D01*
X247329907Y-102256896D01*
X247233401Y-102321932D01*
X247093778Y-102421581D01*
X246920961Y-102548329D01*
X246724871Y-102694662D01*
X246515432Y-102853067D01*
X246302565Y-103016030D01*
X246096194Y-103176037D01*
X245906239Y-103325574D01*
X245742624Y-103457127D01*
X245714000Y-103480565D01*
X245277976Y-103848133D01*
X244826377Y-104246099D01*
X244364764Y-104668657D01*
X243898697Y-105110003D01*
X243433736Y-105564332D01*
X242975439Y-106025837D01*
X242529367Y-106488714D01*
X242101080Y-106947157D01*
X241696137Y-107395361D01*
X241320098Y-107827521D01*
X240978523Y-108237832D01*
X240676972Y-108620488D01*
X240421004Y-108969683D01*
X240330627Y-109101679D01*
X240184952Y-109332232D01*
X240081903Y-109528835D01*
X240016468Y-109705687D01*
X239983635Y-109876987D01*
X239978391Y-110056936D01*
X237174871Y-110056936D01*
X237167742Y-109944691D01*
X237198832Y-109786457D01*
X237198921Y-109786134D01*
X237228112Y-109709734D01*
X237276775Y-109632084D01*
X237351316Y-109547264D01*
X237458141Y-109449350D01*
X237603655Y-109332420D01*
X237794264Y-109190552D01*
X238009356Y-109036871D01*
X239152591Y-108197459D01*
X240254180Y-107321398D01*
X241322876Y-106401125D01*
X242367434Y-105429082D01*
X243396605Y-104397707D01*
X243474969Y-104316132D01*
X243946248Y-103818274D01*
X244387385Y-103339093D01*
X244808452Y-102866798D01*
X245219518Y-102389598D01*
X245630653Y-101895704D01*
X246051929Y-101373325D01*
X246493415Y-100810670D01*
X246720599Y-100516138D01*
X246937093Y-100234857D01*
X247117899Y-100002902D01*
X247268111Y-99815516D01*
X247392818Y-99667943D01*
X247497114Y-99555426D01*
X247586089Y-99473209D01*
X247664835Y-99416534D01*
X247738444Y-99380646D01*
X247812007Y-99360788D01*
X247890615Y-99352203D01*
X247968655Y-99350191D01*
X248085791Y-99355780D01*
G37*
X248085791Y-99355780D02*
X248190132Y-99378262D01*
X248288863Y-99423692D01*
X248389170Y-99498127D01*
X248498237Y-99607621D01*
X248623248Y-99758231D01*
X248771391Y-99956011D01*
X248898286Y-100133680D01*
X249342724Y-100741797D01*
X249836868Y-101378271D01*
X250373325Y-102035020D01*
X250944701Y-102703964D01*
X251543604Y-103377025D01*
X252162642Y-104046120D01*
X252794420Y-104703172D01*
X253431547Y-105340098D01*
X254066628Y-105948821D01*
X254692272Y-106521258D01*
X254953066Y-106751198D01*
X255287297Y-107037352D01*
X255647410Y-107336572D01*
X256023672Y-107641319D01*
X256406353Y-107944054D01*
X256785721Y-108237238D01*
X257152044Y-108513332D01*
X257495592Y-108764798D01*
X257806632Y-108984096D01*
X258024534Y-109130662D01*
X258232535Y-109269913D01*
X258390382Y-109384125D01*
X258507059Y-109481276D01*
X258591554Y-109569345D01*
X258652851Y-109656311D01*
X258685042Y-109717145D01*
X258756013Y-109918183D01*
X258768336Y-110103552D01*
X258720233Y-110276951D01*
X258609925Y-110442076D01*
X258435631Y-110602627D01*
X258195573Y-110762300D01*
X258176934Y-110773151D01*
X258049903Y-110852348D01*
X257878694Y-110967785D01*
X257671850Y-111113180D01*
X257437916Y-111282252D01*
X257185436Y-111468718D01*
X256922953Y-111666294D01*
X256659011Y-111868701D01*
X256402155Y-112069654D01*
X256263467Y-112180116D01*
X255645678Y-112683357D01*
X255069337Y-113169602D01*
X254518305Y-113653308D01*
X253976445Y-114148937D01*
X253427619Y-114670947D01*
X252857814Y-115231678D01*
X252133880Y-115969324D01*
X251458542Y-116689162D01*
X250820280Y-117404599D01*
X250207574Y-118129037D01*
X249608906Y-118875881D01*
X249012757Y-119658536D01*
X248767692Y-119991102D01*
X248642794Y-120159142D01*
X248525142Y-120311940D01*
X248422824Y-120439408D01*
X248343928Y-120531460D01*
X248297738Y-120577144D01*
X248178110Y-120631039D01*
X248017526Y-120654737D01*
X247836195Y-120647133D01*
X247668480Y-120611558D01*
X247592870Y-120586652D01*
X247530872Y-120557974D01*
X247474381Y-120516797D01*
X247415292Y-120454392D01*
X247345503Y-120362029D01*
X247256909Y-120230982D01*
X247141405Y-120052521D01*
X247123445Y-120024533D01*
X246970006Y-119795234D01*
X246777955Y-119524257D01*
X246554058Y-119220212D01*
X246305080Y-118891708D01*
X246037787Y-118547354D01*
X245758943Y-118195759D01*
X245475314Y-117845532D01*
X245193665Y-117505282D01*
X244920763Y-117183618D01*
X244663371Y-116889150D01*
X244631228Y-116853121D01*
X244382572Y-116580059D01*
X244096516Y-116274351D01*
X243782693Y-115945727D01*
X243450734Y-115603914D01*
X243110274Y-115258641D01*
X242770945Y-114919637D01*
X242442379Y-114596629D01*
X242134209Y-114299347D01*
X241856068Y-114037519D01*
X241717734Y-113910658D01*
X240684092Y-113002515D01*
X239649871Y-112151857D01*
X238603523Y-111349330D01*
X238127867Y-111003004D01*
X237892477Y-110833759D01*
X237705948Y-110697643D01*
X237561666Y-110588923D01*
X237453016Y-110501866D01*
X237373383Y-110430741D01*
X237316152Y-110369814D01*
X237274708Y-110313354D01*
X237242436Y-110255628D01*
X237226475Y-110221870D01*
X237176273Y-110079027D01*
X237174871Y-110056936D01*
X239978391Y-110056936D01*
X239980171Y-110094506D01*
X239990303Y-110208291D01*
X240009649Y-110314082D01*
X240042548Y-110419900D01*
X240093342Y-110533761D01*
X240166373Y-110663685D01*
X240265981Y-110817689D01*
X240396507Y-111003792D01*
X240562293Y-111230012D01*
X240681044Y-111389068D01*
X241011887Y-111821015D01*
X241346188Y-112237944D01*
X241689947Y-112646236D01*
X242049163Y-113052268D01*
X242429835Y-113462420D01*
X242837962Y-113883072D01*
X243279543Y-114320601D01*
X243760577Y-114781388D01*
X244287063Y-115271811D01*
X244612181Y-115569226D01*
X245057577Y-115970341D01*
X245461656Y-116325506D01*
X245829175Y-116638421D01*
X246164890Y-116912784D01*
X246473559Y-117152295D01*
X246759938Y-117360651D01*
X247028785Y-117541553D01*
X247284857Y-117698699D01*
X247515002Y-117826396D01*
X247646360Y-117893587D01*
X247742683Y-117933803D01*
X247828148Y-117952961D01*
X247926931Y-117956976D01*
X248033150Y-117953199D01*
X248189959Y-117939603D01*
X248322646Y-117909929D01*
X248463921Y-117855574D01*
X248541867Y-117819400D01*
X248716121Y-117724447D01*
X248932977Y-117587530D01*
X249186059Y-117413472D01*
X249468993Y-117207097D01*
X249775404Y-116973228D01*
X250098916Y-116716688D01*
X250433154Y-116442302D01*
X250771743Y-116154892D01*
X250968003Y-115983778D01*
X251331213Y-115656550D01*
X251721783Y-115291422D01*
X252129793Y-114898449D01*
X252545322Y-114487685D01*
X252958449Y-114069186D01*
X253359253Y-113653006D01*
X253737814Y-113249198D01*
X254084211Y-112867819D01*
X254388523Y-112518923D01*
X254399384Y-112506133D01*
X254678660Y-112174327D01*
X254916864Y-111885093D01*
X255119069Y-111631426D01*
X255290350Y-111406315D01*
X255435781Y-111202753D01*
X255560434Y-111013732D01*
X255669383Y-110832242D01*
X255767703Y-110651276D01*
X255825685Y-110535987D01*
X255891172Y-110398445D01*
X255930892Y-110297923D01*
X255950200Y-110211281D01*
X255954452Y-110115380D01*
X255949719Y-110000000D01*
X255934544Y-109841189D01*
X255902948Y-109709232D01*
X255845484Y-109569730D01*
X255813984Y-109505778D01*
X255730316Y-109359602D01*
X255606354Y-109169444D01*
X255447074Y-108941702D01*
X255257456Y-108682775D01*
X255042477Y-108399060D01*
X254807116Y-108096956D01*
X254556351Y-107782859D01*
X254295161Y-107463169D01*
X254028522Y-107144282D01*
X253761415Y-106832598D01*
X253523844Y-106562533D01*
X253376574Y-106400858D01*
X253197158Y-106209465D01*
X252993061Y-105995859D01*
X252771746Y-105767541D01*
X252540679Y-105532014D01*
X252307324Y-105296780D01*
X252079146Y-105069342D01*
X251863607Y-104857201D01*
X251668174Y-104667862D01*
X251500309Y-104508825D01*
X251367478Y-104387594D01*
X251313779Y-104341188D01*
X251196016Y-104241226D01*
X251043824Y-104110096D01*
X250873288Y-103961757D01*
X250700490Y-103810167D01*
X250619512Y-103738617D01*
X250407558Y-103554315D01*
X250178726Y-103361447D01*
X249941807Y-103166910D01*
X249705592Y-102977600D01*
X249478871Y-102800412D01*
X249270434Y-102642243D01*
X249089073Y-102509989D01*
X248943579Y-102410545D01*
X248866403Y-102363377D01*
X248545359Y-102211307D01*
X248235976Y-102119425D01*
X247942144Y-102088000D01*
X247667753Y-102117303D01*
X247416693Y-102207602D01*
X247329907Y-102256896D01*
X247233401Y-102321932D01*
X247093778Y-102421581D01*
X246920961Y-102548329D01*
X246724871Y-102694662D01*
X246515432Y-102853067D01*
X246302565Y-103016030D01*
X246096194Y-103176037D01*
X245906239Y-103325574D01*
X245742624Y-103457127D01*
X245714000Y-103480565D01*
X245277976Y-103848133D01*
X244826377Y-104246099D01*
X244364764Y-104668657D01*
X243898697Y-105110003D01*
X243433736Y-105564332D01*
X242975439Y-106025837D01*
X242529367Y-106488714D01*
X242101080Y-106947157D01*
X241696137Y-107395361D01*
X241320098Y-107827521D01*
X240978523Y-108237832D01*
X240676972Y-108620488D01*
X240421004Y-108969683D01*
X240330627Y-109101679D01*
X240184952Y-109332232D01*
X240081903Y-109528835D01*
X240016468Y-109705687D01*
X239983635Y-109876987D01*
X239978391Y-110056936D01*
X237174871Y-110056936D01*
X237167742Y-109944691D01*
X237198832Y-109786457D01*
X237198921Y-109786134D01*
X237228112Y-109709734D01*
X237276775Y-109632084D01*
X237351316Y-109547264D01*
X237458141Y-109449350D01*
X237603655Y-109332420D01*
X237794264Y-109190552D01*
X238009356Y-109036871D01*
X239152591Y-108197459D01*
X240254180Y-107321398D01*
X241322876Y-106401125D01*
X242367434Y-105429082D01*
X243396605Y-104397707D01*
X243474969Y-104316132D01*
X243946248Y-103818274D01*
X244387385Y-103339093D01*
X244808452Y-102866798D01*
X245219518Y-102389598D01*
X245630653Y-101895704D01*
X246051929Y-101373325D01*
X246493415Y-100810670D01*
X246720599Y-100516138D01*
X246937093Y-100234857D01*
X247117899Y-100002902D01*
X247268111Y-99815516D01*
X247392818Y-99667943D01*
X247497114Y-99555426D01*
X247586089Y-99473209D01*
X247664835Y-99416534D01*
X247738444Y-99380646D01*
X247812007Y-99360788D01*
X247890615Y-99352203D01*
X247968655Y-99350191D01*
X248085791Y-99355780D01*
G36*
X248043144Y-102622103D02*
G01*
X248188938Y-102637472D01*
X248330334Y-102671595D01*
X248477268Y-102729421D01*
X248639678Y-102815899D01*
X248827502Y-102935976D01*
X249050678Y-103094601D01*
X249169167Y-103182793D01*
X249684856Y-103584963D01*
X250227251Y-104034419D01*
X250786281Y-104521567D01*
X251351877Y-105036813D01*
X251913972Y-105570562D01*
X252462496Y-106113219D01*
X252987380Y-106655189D01*
X253478556Y-107186879D01*
X253925955Y-107698692D01*
X253997760Y-107784020D01*
X254171326Y-107995558D01*
X254352894Y-108224031D01*
X254536206Y-108460922D01*
X254715004Y-108697717D01*
X254883030Y-108925903D01*
X255034025Y-109136963D01*
X255161731Y-109322383D01*
X255259891Y-109473649D01*
X255322245Y-109582245D01*
X255327781Y-109593600D01*
X255387019Y-109732900D01*
X255418989Y-109854203D01*
X255431414Y-109992416D01*
X255432679Y-110067733D01*
X255428480Y-110219142D01*
X255410024Y-110333869D01*
X255370766Y-110442526D01*
X255337921Y-110510816D01*
X255256157Y-110652369D01*
X255134241Y-110836288D01*
X254977995Y-111055196D01*
X254793237Y-111301715D01*
X254585790Y-111568467D01*
X254361474Y-111848076D01*
X254126109Y-112133164D01*
X253885515Y-112416354D01*
X253645514Y-112690268D01*
X253435600Y-112921929D01*
X253127506Y-113250760D01*
X252800096Y-113590908D01*
X252459041Y-113937042D01*
X252110014Y-114283833D01*
X251758685Y-114625950D01*
X251410725Y-114958062D01*
X251071807Y-115274839D01*
X250747601Y-115570952D01*
X250443778Y-115841068D01*
X250166011Y-116079858D01*
X249919971Y-116281992D01*
X249711328Y-116442139D01*
X249625600Y-116502891D01*
X249555635Y-116553277D01*
X249445916Y-116635287D01*
X249309949Y-116738703D01*
X249161244Y-116853305D01*
X249117600Y-116887224D01*
X248818645Y-117104644D01*
X248550611Y-117266077D01*
X248309041Y-117373290D01*
X248089475Y-117428052D01*
X247887452Y-117432134D01*
X247787807Y-117414804D01*
X247674748Y-117378666D01*
X247549720Y-117326744D01*
X247516874Y-117310777D01*
X247408557Y-117246326D01*
X247255909Y-117141911D01*
X247065217Y-117002577D01*
X246842764Y-116833368D01*
X246594835Y-116639332D01*
X246327717Y-116425513D01*
X246047692Y-116196957D01*
X245761047Y-115958710D01*
X245474065Y-115715817D01*
X245193033Y-115473324D01*
X244924235Y-115236275D01*
X244896963Y-115211835D01*
X247212638Y-115211835D01*
X247411586Y-115224180D01*
X247588279Y-115232646D01*
X247785620Y-115238042D01*
X247988424Y-115240399D01*
X248181507Y-115239745D01*
X248349686Y-115236111D01*
X248477775Y-115229526D01*
X248542059Y-115221981D01*
X248660784Y-115198533D01*
X248586752Y-113589866D01*
X248571802Y-113265006D01*
X248557765Y-112959950D01*
X248544955Y-112681553D01*
X248533687Y-112436667D01*
X248524278Y-112232144D01*
X248517043Y-112074839D01*
X248512296Y-111971603D01*
X248510360Y-111929459D01*
X248501028Y-111910080D01*
X248468986Y-111896123D01*
X248405108Y-111886748D01*
X248300265Y-111881116D01*
X248145330Y-111878387D01*
X247947957Y-111877718D01*
X247741251Y-111878115D01*
X247592438Y-111880089D01*
X247491677Y-111884818D01*
X247429128Y-111893480D01*
X247394952Y-111907251D01*
X247379308Y-111927310D01*
X247373978Y-111946392D01*
X247368390Y-112001463D01*
X247361485Y-112111895D01*
X247353881Y-112265344D01*
X247346199Y-112449466D01*
X247339944Y-112624666D01*
X247329183Y-112934095D01*
X247316977Y-113256050D01*
X247303803Y-113580076D01*
X247290139Y-113895715D01*
X247276462Y-114192513D01*
X247263247Y-114460012D01*
X247250973Y-114687756D01*
X247240115Y-114865289D01*
X247233850Y-114951184D01*
X247212638Y-115211835D01*
X244896963Y-115211835D01*
X244850400Y-115170108D01*
X244575162Y-114917216D01*
X244274633Y-114631705D01*
X243956349Y-114321378D01*
X243627847Y-113994043D01*
X243296661Y-113657502D01*
X242970329Y-113319561D01*
X242656386Y-112988025D01*
X242362367Y-112670698D01*
X242095809Y-112375385D01*
X241864247Y-112109892D01*
X241675218Y-111882022D01*
X241673280Y-111879600D01*
X241433952Y-111579881D01*
X241233401Y-111327291D01*
X241067814Y-111116288D01*
X240933382Y-110941332D01*
X240826292Y-110796881D01*
X240742734Y-110677393D01*
X240678897Y-110577328D01*
X240630969Y-110491145D01*
X240595139Y-110413302D01*
X240567597Y-110338258D01*
X240544530Y-110260471D01*
X240534975Y-110224557D01*
X240505744Y-110067894D01*
X240505543Y-110041292D01*
X243264092Y-110041292D01*
X243281671Y-110146156D01*
X243324526Y-110250128D01*
X243418249Y-110393478D01*
X243560280Y-110547388D01*
X243735736Y-110698035D01*
X243929733Y-110831593D01*
X243985714Y-110864250D01*
X244295434Y-111016303D01*
X244662211Y-111159893D01*
X245075594Y-111292076D01*
X245525131Y-111409908D01*
X246000371Y-111510444D01*
X246490864Y-111590740D01*
X246630615Y-111609335D01*
X246838908Y-111628508D01*
X247100647Y-111641532D01*
X247401846Y-111648639D01*
X247728520Y-111650060D01*
X248066682Y-111646026D01*
X248402347Y-111636766D01*
X248721528Y-111622513D01*
X249010239Y-111603497D01*
X249254495Y-111579948D01*
X249371600Y-111564099D01*
X249944202Y-111461453D01*
X250451725Y-111342648D01*
X250894052Y-111207735D01*
X251271064Y-111056765D01*
X251582646Y-110889791D01*
X251828678Y-110706863D01*
X252009044Y-110508034D01*
X252091004Y-110370307D01*
X252154551Y-110168767D01*
X252151026Y-109968341D01*
X252081093Y-109770238D01*
X251945413Y-109575667D01*
X251744648Y-109385838D01*
X251479461Y-109201959D01*
X251437467Y-109176897D01*
X251200400Y-109037862D01*
X251433524Y-108967495D01*
X251666649Y-108897128D01*
X251416591Y-108854399D01*
X251310070Y-108833426D01*
X251151386Y-108798552D01*
X250953936Y-108752900D01*
X250731116Y-108699593D01*
X250496322Y-108641754D01*
X250394844Y-108616225D01*
X250142185Y-108553047D01*
X249948666Y-108506736D01*
X249808138Y-108476125D01*
X249714451Y-108460048D01*
X249661457Y-108457337D01*
X249643007Y-108466828D01*
X249643926Y-108473789D01*
X249662526Y-108525037D01*
X249698052Y-108626007D01*
X249745487Y-108762342D01*
X249799812Y-108919683D01*
X249802577Y-108927720D01*
X249861143Y-109094799D01*
X249904421Y-109207185D01*
X249937758Y-109274698D01*
X249966496Y-109307158D01*
X249995981Y-109314388D01*
X250011629Y-109311860D01*
X250079068Y-109296423D01*
X250189626Y-109271578D01*
X250320273Y-109242496D01*
X250330072Y-109240325D01*
X250577344Y-109185571D01*
X250855005Y-109316199D01*
X251068197Y-109426010D01*
X251226124Y-109531245D01*
X251339918Y-109640728D01*
X251420708Y-109763288D01*
X251422019Y-109765844D01*
X251484139Y-109949401D01*
X251479765Y-110124739D01*
X251409706Y-110291251D01*
X251274770Y-110448332D01*
X251075769Y-110595378D01*
X250813511Y-110731781D01*
X250488805Y-110856936D01*
X250102461Y-110970239D01*
X249685428Y-111065071D01*
X249013464Y-111168694D01*
X248318568Y-111215871D01*
X247615036Y-111206747D01*
X246917161Y-111141462D01*
X246289734Y-111031341D01*
X245890592Y-110929436D01*
X245553392Y-110811313D01*
X245279031Y-110677485D01*
X245068408Y-110528466D01*
X244922421Y-110364769D01*
X244847755Y-110207724D01*
X244826717Y-110119927D01*
X244831537Y-110051457D01*
X244867242Y-109971386D01*
X244893713Y-109925054D01*
X245020929Y-109753034D01*
X245192625Y-109583873D01*
X245387554Y-109436789D01*
X245515255Y-109362832D01*
X245677118Y-109291368D01*
X245887899Y-109213734D01*
X246129886Y-109135927D01*
X246385367Y-109063944D01*
X246438356Y-109050310D01*
X246526564Y-109024173D01*
X246558183Y-109000955D01*
X246543442Y-108972485D01*
X246539956Y-108969168D01*
X246471744Y-108915595D01*
X246363168Y-108841207D01*
X246226282Y-108753182D01*
X246073142Y-108658697D01*
X245915803Y-108564930D01*
X245766319Y-108479058D01*
X245636746Y-108408259D01*
X245539139Y-108359710D01*
X245485552Y-108340588D01*
X245484128Y-108340533D01*
X245362726Y-108357347D01*
X245195837Y-108404199D01*
X244995705Y-108475706D01*
X244774576Y-108566485D01*
X244544694Y-108671154D01*
X244318306Y-108784328D01*
X244107657Y-108900624D01*
X243924991Y-109014660D01*
X243880372Y-109045563D01*
X243639345Y-109239738D01*
X243461632Y-109436160D01*
X243342924Y-109640945D01*
X243278913Y-109860214D01*
X243271897Y-109909688D01*
X243264092Y-110041292D01*
X240505543Y-110041292D01*
X240504592Y-109915902D01*
X240534886Y-109760110D01*
X240599995Y-109592049D01*
X240703284Y-109403249D01*
X240848122Y-109185240D01*
X241037875Y-108929551D01*
X241062430Y-108897733D01*
X241665149Y-108150457D01*
X242082123Y-107670125D01*
X246768147Y-107670125D01*
X246806770Y-107681028D01*
X246898580Y-107689814D01*
X247029038Y-107695471D01*
X247155332Y-107697067D01*
X247525867Y-107697067D01*
X247524807Y-107942600D01*
X247522984Y-108030822D01*
X247518238Y-108177786D01*
X247510928Y-108374580D01*
X247501414Y-108612293D01*
X247490054Y-108882013D01*
X247477207Y-109174829D01*
X247463234Y-109481827D01*
X247459608Y-109559733D01*
X247446232Y-109858007D01*
X247434909Y-110135074D01*
X247425854Y-110383661D01*
X247419282Y-110596496D01*
X247415409Y-110766304D01*
X247414450Y-110885812D01*
X247416619Y-110947748D01*
X247418334Y-110954701D01*
X247468257Y-110971875D01*
X247569893Y-110984626D01*
X247707949Y-110992960D01*
X247867133Y-110996881D01*
X248032151Y-110996394D01*
X248187712Y-110991503D01*
X248318522Y-110982213D01*
X248409290Y-110968529D01*
X248442820Y-110954393D01*
X248445642Y-110916599D01*
X248445487Y-110818468D01*
X248442565Y-110667319D01*
X248437089Y-110470473D01*
X248429270Y-110235251D01*
X248419319Y-109968973D01*
X248407448Y-109678959D01*
X248403030Y-109576667D01*
X248389767Y-109268414D01*
X248377407Y-108971303D01*
X248366300Y-108694461D01*
X248356795Y-108447016D01*
X248349240Y-108238097D01*
X248343985Y-108076831D01*
X248341379Y-107972346D01*
X248341210Y-107959533D01*
X248338667Y-107697067D01*
X248702734Y-107696604D01*
X248860470Y-107694611D01*
X248999041Y-107689595D01*
X249100610Y-107682382D01*
X249140895Y-107676271D01*
X249214990Y-107656401D01*
X249111623Y-107380400D01*
X249076336Y-107285186D01*
X249021303Y-107135427D01*
X248949847Y-106940261D01*
X248865295Y-106708826D01*
X248770973Y-106450261D01*
X248670204Y-106173703D01*
X248566316Y-105888289D01*
X248462633Y-105603159D01*
X248362480Y-105327449D01*
X248269184Y-105070298D01*
X248186068Y-104840844D01*
X248116460Y-104648225D01*
X248063683Y-104501578D01*
X248045908Y-104451888D01*
X248001762Y-104339280D01*
X247963246Y-104260971D01*
X247937160Y-104230244D01*
X247933194Y-104231754D01*
X247913542Y-104274041D01*
X247879652Y-104366238D01*
X247836819Y-104493397D01*
X247803395Y-104598267D01*
X247768970Y-104704762D01*
X247715121Y-104866197D01*
X247644910Y-105073618D01*
X247561401Y-105318072D01*
X247467654Y-105590607D01*
X247366733Y-105882269D01*
X247261700Y-106184107D01*
X247224688Y-106290058D01*
X247124499Y-106578260D01*
X247032314Y-106846745D01*
X246950362Y-107088775D01*
X246880873Y-107297607D01*
X246826076Y-107466501D01*
X246788203Y-107588717D01*
X246769481Y-107657513D01*
X246768147Y-107670125D01*
X242082123Y-107670125D01*
X242319974Y-107396134D01*
X243016890Y-106644523D01*
X243745881Y-105905383D01*
X244496934Y-105188474D01*
X245260033Y-104503553D01*
X246025164Y-103860381D01*
X246782312Y-103268717D01*
X247017867Y-103094346D01*
X247236419Y-102937140D01*
X247412284Y-102817591D01*
X247555641Y-102731010D01*
X247676667Y-102672710D01*
X247785542Y-102638003D01*
X247892442Y-102622200D01*
X248007546Y-102620613D01*
X248043144Y-102622103D01*
G37*
X248043144Y-102622103D02*
X248188938Y-102637472D01*
X248330334Y-102671595D01*
X248477268Y-102729421D01*
X248639678Y-102815899D01*
X248827502Y-102935976D01*
X249050678Y-103094601D01*
X249169167Y-103182793D01*
X249684856Y-103584963D01*
X250227251Y-104034419D01*
X250786281Y-104521567D01*
X251351877Y-105036813D01*
X251913972Y-105570562D01*
X252462496Y-106113219D01*
X252987380Y-106655189D01*
X253478556Y-107186879D01*
X253925955Y-107698692D01*
X253997760Y-107784020D01*
X254171326Y-107995558D01*
X254352894Y-108224031D01*
X254536206Y-108460922D01*
X254715004Y-108697717D01*
X254883030Y-108925903D01*
X255034025Y-109136963D01*
X255161731Y-109322383D01*
X255259891Y-109473649D01*
X255322245Y-109582245D01*
X255327781Y-109593600D01*
X255387019Y-109732900D01*
X255418989Y-109854203D01*
X255431414Y-109992416D01*
X255432679Y-110067733D01*
X255428480Y-110219142D01*
X255410024Y-110333869D01*
X255370766Y-110442526D01*
X255337921Y-110510816D01*
X255256157Y-110652369D01*
X255134241Y-110836288D01*
X254977995Y-111055196D01*
X254793237Y-111301715D01*
X254585790Y-111568467D01*
X254361474Y-111848076D01*
X254126109Y-112133164D01*
X253885515Y-112416354D01*
X253645514Y-112690268D01*
X253435600Y-112921929D01*
X253127506Y-113250760D01*
X252800096Y-113590908D01*
X252459041Y-113937042D01*
X252110014Y-114283833D01*
X251758685Y-114625950D01*
X251410725Y-114958062D01*
X251071807Y-115274839D01*
X250747601Y-115570952D01*
X250443778Y-115841068D01*
X250166011Y-116079858D01*
X249919971Y-116281992D01*
X249711328Y-116442139D01*
X249625600Y-116502891D01*
X249555635Y-116553277D01*
X249445916Y-116635287D01*
X249309949Y-116738703D01*
X249161244Y-116853305D01*
X249117600Y-116887224D01*
X248818645Y-117104644D01*
X248550611Y-117266077D01*
X248309041Y-117373290D01*
X248089475Y-117428052D01*
X247887452Y-117432134D01*
X247787807Y-117414804D01*
X247674748Y-117378666D01*
X247549720Y-117326744D01*
X247516874Y-117310777D01*
X247408557Y-117246326D01*
X247255909Y-117141911D01*
X247065217Y-117002577D01*
X246842764Y-116833368D01*
X246594835Y-116639332D01*
X246327717Y-116425513D01*
X246047692Y-116196957D01*
X245761047Y-115958710D01*
X245474065Y-115715817D01*
X245193033Y-115473324D01*
X244924235Y-115236275D01*
X244896963Y-115211835D01*
X247212638Y-115211835D01*
X247411586Y-115224180D01*
X247588279Y-115232646D01*
X247785620Y-115238042D01*
X247988424Y-115240399D01*
X248181507Y-115239745D01*
X248349686Y-115236111D01*
X248477775Y-115229526D01*
X248542059Y-115221981D01*
X248660784Y-115198533D01*
X248586752Y-113589866D01*
X248571802Y-113265006D01*
X248557765Y-112959950D01*
X248544955Y-112681553D01*
X248533687Y-112436667D01*
X248524278Y-112232144D01*
X248517043Y-112074839D01*
X248512296Y-111971603D01*
X248510360Y-111929459D01*
X248501028Y-111910080D01*
X248468986Y-111896123D01*
X248405108Y-111886748D01*
X248300265Y-111881116D01*
X248145330Y-111878387D01*
X247947957Y-111877718D01*
X247741251Y-111878115D01*
X247592438Y-111880089D01*
X247491677Y-111884818D01*
X247429128Y-111893480D01*
X247394952Y-111907251D01*
X247379308Y-111927310D01*
X247373978Y-111946392D01*
X247368390Y-112001463D01*
X247361485Y-112111895D01*
X247353881Y-112265344D01*
X247346199Y-112449466D01*
X247339944Y-112624666D01*
X247329183Y-112934095D01*
X247316977Y-113256050D01*
X247303803Y-113580076D01*
X247290139Y-113895715D01*
X247276462Y-114192513D01*
X247263247Y-114460012D01*
X247250973Y-114687756D01*
X247240115Y-114865289D01*
X247233850Y-114951184D01*
X247212638Y-115211835D01*
X244896963Y-115211835D01*
X244850400Y-115170108D01*
X244575162Y-114917216D01*
X244274633Y-114631705D01*
X243956349Y-114321378D01*
X243627847Y-113994043D01*
X243296661Y-113657502D01*
X242970329Y-113319561D01*
X242656386Y-112988025D01*
X242362367Y-112670698D01*
X242095809Y-112375385D01*
X241864247Y-112109892D01*
X241675218Y-111882022D01*
X241673280Y-111879600D01*
X241433952Y-111579881D01*
X241233401Y-111327291D01*
X241067814Y-111116288D01*
X240933382Y-110941332D01*
X240826292Y-110796881D01*
X240742734Y-110677393D01*
X240678897Y-110577328D01*
X240630969Y-110491145D01*
X240595139Y-110413302D01*
X240567597Y-110338258D01*
X240544530Y-110260471D01*
X240534975Y-110224557D01*
X240505744Y-110067894D01*
X240505543Y-110041292D01*
X243264092Y-110041292D01*
X243281671Y-110146156D01*
X243324526Y-110250128D01*
X243418249Y-110393478D01*
X243560280Y-110547388D01*
X243735736Y-110698035D01*
X243929733Y-110831593D01*
X243985714Y-110864250D01*
X244295434Y-111016303D01*
X244662211Y-111159893D01*
X245075594Y-111292076D01*
X245525131Y-111409908D01*
X246000371Y-111510444D01*
X246490864Y-111590740D01*
X246630615Y-111609335D01*
X246838908Y-111628508D01*
X247100647Y-111641532D01*
X247401846Y-111648639D01*
X247728520Y-111650060D01*
X248066682Y-111646026D01*
X248402347Y-111636766D01*
X248721528Y-111622513D01*
X249010239Y-111603497D01*
X249254495Y-111579948D01*
X249371600Y-111564099D01*
X249944202Y-111461453D01*
X250451725Y-111342648D01*
X250894052Y-111207735D01*
X251271064Y-111056765D01*
X251582646Y-110889791D01*
X251828678Y-110706863D01*
X252009044Y-110508034D01*
X252091004Y-110370307D01*
X252154551Y-110168767D01*
X252151026Y-109968341D01*
X252081093Y-109770238D01*
X251945413Y-109575667D01*
X251744648Y-109385838D01*
X251479461Y-109201959D01*
X251437467Y-109176897D01*
X251200400Y-109037862D01*
X251433524Y-108967495D01*
X251666649Y-108897128D01*
X251416591Y-108854399D01*
X251310070Y-108833426D01*
X251151386Y-108798552D01*
X250953936Y-108752900D01*
X250731116Y-108699593D01*
X250496322Y-108641754D01*
X250394844Y-108616225D01*
X250142185Y-108553047D01*
X249948666Y-108506736D01*
X249808138Y-108476125D01*
X249714451Y-108460048D01*
X249661457Y-108457337D01*
X249643007Y-108466828D01*
X249643926Y-108473789D01*
X249662526Y-108525037D01*
X249698052Y-108626007D01*
X249745487Y-108762342D01*
X249799812Y-108919683D01*
X249802577Y-108927720D01*
X249861143Y-109094799D01*
X249904421Y-109207185D01*
X249937758Y-109274698D01*
X249966496Y-109307158D01*
X249995981Y-109314388D01*
X250011629Y-109311860D01*
X250079068Y-109296423D01*
X250189626Y-109271578D01*
X250320273Y-109242496D01*
X250330072Y-109240325D01*
X250577344Y-109185571D01*
X250855005Y-109316199D01*
X251068197Y-109426010D01*
X251226124Y-109531245D01*
X251339918Y-109640728D01*
X251420708Y-109763288D01*
X251422019Y-109765844D01*
X251484139Y-109949401D01*
X251479765Y-110124739D01*
X251409706Y-110291251D01*
X251274770Y-110448332D01*
X251075769Y-110595378D01*
X250813511Y-110731781D01*
X250488805Y-110856936D01*
X250102461Y-110970239D01*
X249685428Y-111065071D01*
X249013464Y-111168694D01*
X248318568Y-111215871D01*
X247615036Y-111206747D01*
X246917161Y-111141462D01*
X246289734Y-111031341D01*
X245890592Y-110929436D01*
X245553392Y-110811313D01*
X245279031Y-110677485D01*
X245068408Y-110528466D01*
X244922421Y-110364769D01*
X244847755Y-110207724D01*
X244826717Y-110119927D01*
X244831537Y-110051457D01*
X244867242Y-109971386D01*
X244893713Y-109925054D01*
X245020929Y-109753034D01*
X245192625Y-109583873D01*
X245387554Y-109436789D01*
X245515255Y-109362832D01*
X245677118Y-109291368D01*
X245887899Y-109213734D01*
X246129886Y-109135927D01*
X246385367Y-109063944D01*
X246438356Y-109050310D01*
X246526564Y-109024173D01*
X246558183Y-109000955D01*
X246543442Y-108972485D01*
X246539956Y-108969168D01*
X246471744Y-108915595D01*
X246363168Y-108841207D01*
X246226282Y-108753182D01*
X246073142Y-108658697D01*
X245915803Y-108564930D01*
X245766319Y-108479058D01*
X245636746Y-108408259D01*
X245539139Y-108359710D01*
X245485552Y-108340588D01*
X245484128Y-108340533D01*
X245362726Y-108357347D01*
X245195837Y-108404199D01*
X244995705Y-108475706D01*
X244774576Y-108566485D01*
X244544694Y-108671154D01*
X244318306Y-108784328D01*
X244107657Y-108900624D01*
X243924991Y-109014660D01*
X243880372Y-109045563D01*
X243639345Y-109239738D01*
X243461632Y-109436160D01*
X243342924Y-109640945D01*
X243278913Y-109860214D01*
X243271897Y-109909688D01*
X243264092Y-110041292D01*
X240505543Y-110041292D01*
X240504592Y-109915902D01*
X240534886Y-109760110D01*
X240599995Y-109592049D01*
X240703284Y-109403249D01*
X240848122Y-109185240D01*
X241037875Y-108929551D01*
X241062430Y-108897733D01*
X241665149Y-108150457D01*
X242082123Y-107670125D01*
X246768147Y-107670125D01*
X246806770Y-107681028D01*
X246898580Y-107689814D01*
X247029038Y-107695471D01*
X247155332Y-107697067D01*
X247525867Y-107697067D01*
X247524807Y-107942600D01*
X247522984Y-108030822D01*
X247518238Y-108177786D01*
X247510928Y-108374580D01*
X247501414Y-108612293D01*
X247490054Y-108882013D01*
X247477207Y-109174829D01*
X247463234Y-109481827D01*
X247459608Y-109559733D01*
X247446232Y-109858007D01*
X247434909Y-110135074D01*
X247425854Y-110383661D01*
X247419282Y-110596496D01*
X247415409Y-110766304D01*
X247414450Y-110885812D01*
X247416619Y-110947748D01*
X247418334Y-110954701D01*
X247468257Y-110971875D01*
X247569893Y-110984626D01*
X247707949Y-110992960D01*
X247867133Y-110996881D01*
X248032151Y-110996394D01*
X248187712Y-110991503D01*
X248318522Y-110982213D01*
X248409290Y-110968529D01*
X248442820Y-110954393D01*
X248445642Y-110916599D01*
X248445487Y-110818468D01*
X248442565Y-110667319D01*
X248437089Y-110470473D01*
X248429270Y-110235251D01*
X248419319Y-109968973D01*
X248407448Y-109678959D01*
X248403030Y-109576667D01*
X248389767Y-109268414D01*
X248377407Y-108971303D01*
X248366300Y-108694461D01*
X248356795Y-108447016D01*
X248349240Y-108238097D01*
X248343985Y-108076831D01*
X248341379Y-107972346D01*
X248341210Y-107959533D01*
X248338667Y-107697067D01*
X248702734Y-107696604D01*
X248860470Y-107694611D01*
X248999041Y-107689595D01*
X249100610Y-107682382D01*
X249140895Y-107676271D01*
X249214990Y-107656401D01*
X249111623Y-107380400D01*
X249076336Y-107285186D01*
X249021303Y-107135427D01*
X248949847Y-106940261D01*
X248865295Y-106708826D01*
X248770973Y-106450261D01*
X248670204Y-106173703D01*
X248566316Y-105888289D01*
X248462633Y-105603159D01*
X248362480Y-105327449D01*
X248269184Y-105070298D01*
X248186068Y-104840844D01*
X248116460Y-104648225D01*
X248063683Y-104501578D01*
X248045908Y-104451888D01*
X248001762Y-104339280D01*
X247963246Y-104260971D01*
X247937160Y-104230244D01*
X247933194Y-104231754D01*
X247913542Y-104274041D01*
X247879652Y-104366238D01*
X247836819Y-104493397D01*
X247803395Y-104598267D01*
X247768970Y-104704762D01*
X247715121Y-104866197D01*
X247644910Y-105073618D01*
X247561401Y-105318072D01*
X247467654Y-105590607D01*
X247366733Y-105882269D01*
X247261700Y-106184107D01*
X247224688Y-106290058D01*
X247124499Y-106578260D01*
X247032314Y-106846745D01*
X246950362Y-107088775D01*
X246880873Y-107297607D01*
X246826076Y-107466501D01*
X246788203Y-107588717D01*
X246769481Y-107657513D01*
X246768147Y-107670125D01*
X242082123Y-107670125D01*
X242319974Y-107396134D01*
X243016890Y-106644523D01*
X243745881Y-105905383D01*
X244496934Y-105188474D01*
X245260033Y-104503553D01*
X246025164Y-103860381D01*
X246782312Y-103268717D01*
X247017867Y-103094346D01*
X247236419Y-102937140D01*
X247412284Y-102817591D01*
X247555641Y-102731010D01*
X247676667Y-102672710D01*
X247785542Y-102638003D01*
X247892442Y-102622200D01*
X248007546Y-102620613D01*
X248043144Y-102622103D01*
G36*
X145450867Y-184569091D02*
G01*
X145449047Y-184572265D01*
X145432991Y-184597071D01*
X145401589Y-184645151D01*
X145359443Y-184709469D01*
X145313359Y-184779643D01*
X145158972Y-185029090D01*
X145004119Y-185307044D01*
X144852377Y-185605951D01*
X144707326Y-185918258D01*
X144572544Y-186236412D01*
X144451610Y-186552861D01*
X144392042Y-186724202D01*
X144211502Y-187320311D01*
X144066207Y-187924086D01*
X143956145Y-188535699D01*
X143881304Y-189155321D01*
X143841672Y-189783122D01*
X143837238Y-190419275D01*
X143867989Y-191063949D01*
X143933913Y-191717316D01*
X144009944Y-192234283D01*
X144026833Y-192338179D01*
X144040745Y-192429126D01*
X144050864Y-192501332D01*
X144056378Y-192549005D01*
X144056638Y-192566267D01*
X144048025Y-192553120D01*
X144029720Y-192511850D01*
X144004231Y-192448507D01*
X143974067Y-192369141D01*
X143967235Y-192350627D01*
X143789968Y-191825219D01*
X143644487Y-191302179D01*
X143530769Y-190782844D01*
X143448796Y-190268550D01*
X143398548Y-189760635D01*
X143380005Y-189260434D01*
X143393146Y-188769285D01*
X143437953Y-188288524D01*
X143514405Y-187819489D01*
X143622482Y-187363515D01*
X143762165Y-186921939D01*
X143933433Y-186496099D01*
X144058139Y-186235326D01*
X144265595Y-185864892D01*
X144497420Y-185520005D01*
X144752749Y-185201862D01*
X144969493Y-184971237D01*
X145032700Y-184910363D01*
X145103228Y-184845425D01*
X145176898Y-184779899D01*
X145249530Y-184717261D01*
X145316947Y-184660989D01*
X145374968Y-184614559D01*
X145419414Y-184581448D01*
X145446107Y-184565133D01*
X145450867Y-184569091D01*
G37*
X145450867Y-184569091D02*
X145449047Y-184572265D01*
X145432991Y-184597071D01*
X145401589Y-184645151D01*
X145359443Y-184709469D01*
X145313359Y-184779643D01*
X145158972Y-185029090D01*
X145004119Y-185307044D01*
X144852377Y-185605951D01*
X144707326Y-185918258D01*
X144572544Y-186236412D01*
X144451610Y-186552861D01*
X144392042Y-186724202D01*
X144211502Y-187320311D01*
X144066207Y-187924086D01*
X143956145Y-188535699D01*
X143881304Y-189155321D01*
X143841672Y-189783122D01*
X143837238Y-190419275D01*
X143867989Y-191063949D01*
X143933913Y-191717316D01*
X144009944Y-192234283D01*
X144026833Y-192338179D01*
X144040745Y-192429126D01*
X144050864Y-192501332D01*
X144056378Y-192549005D01*
X144056638Y-192566267D01*
X144048025Y-192553120D01*
X144029720Y-192511850D01*
X144004231Y-192448507D01*
X143974067Y-192369141D01*
X143967235Y-192350627D01*
X143789968Y-191825219D01*
X143644487Y-191302179D01*
X143530769Y-190782844D01*
X143448796Y-190268550D01*
X143398548Y-189760635D01*
X143380005Y-189260434D01*
X143393146Y-188769285D01*
X143437953Y-188288524D01*
X143514405Y-187819489D01*
X143622482Y-187363515D01*
X143762165Y-186921939D01*
X143933433Y-186496099D01*
X144058139Y-186235326D01*
X144265595Y-185864892D01*
X144497420Y-185520005D01*
X144752749Y-185201862D01*
X144969493Y-184971237D01*
X145032700Y-184910363D01*
X145103228Y-184845425D01*
X145176898Y-184779899D01*
X145249530Y-184717261D01*
X145316947Y-184660989D01*
X145374968Y-184614559D01*
X145419414Y-184581448D01*
X145446107Y-184565133D01*
X145450867Y-184569091D01*
G36*
X149167316Y-181245090D02*
G01*
X149524057Y-181306332D01*
X149876755Y-181403381D01*
X149897947Y-181410406D01*
X149991245Y-181442883D01*
X150085721Y-181477931D01*
X150175537Y-181513122D01*
X150254855Y-181546030D01*
X150317840Y-181574230D01*
X150358652Y-181595293D01*
X150371455Y-181606795D01*
X150371205Y-181607128D01*
X150351672Y-181608122D01*
X150303846Y-181605841D01*
X150235528Y-181600753D01*
X150175759Y-181595398D01*
X149959165Y-181586512D01*
X149723516Y-181597724D01*
X149477493Y-181627345D01*
X149229781Y-181673686D01*
X148989063Y-181735058D01*
X148764023Y-181809772D01*
X148563344Y-181896139D01*
X148522468Y-181916989D01*
X148455944Y-181952834D01*
X148404177Y-181982203D01*
X148373728Y-182001287D01*
X148368509Y-182006414D01*
X148387655Y-182006818D01*
X148434672Y-182003474D01*
X148501410Y-181997038D01*
X148545277Y-181992221D01*
X148641631Y-181984888D01*
X148751192Y-181982555D01*
X148867169Y-181984711D01*
X148982774Y-181990843D01*
X149091217Y-182000441D01*
X149185710Y-182012994D01*
X149259463Y-182027989D01*
X149305688Y-182044915D01*
X149312906Y-182050050D01*
X149308898Y-182066131D01*
X149279542Y-182088673D01*
X149267549Y-182095222D01*
X149213875Y-182125646D01*
X149137547Y-182173125D01*
X149045128Y-182233194D01*
X148943179Y-182301392D01*
X148838263Y-182373254D01*
X148736943Y-182444317D01*
X148645781Y-182510117D01*
X148571340Y-182566190D01*
X148548300Y-182584424D01*
X148186800Y-182898257D01*
X147847407Y-183238486D01*
X147529382Y-183606053D01*
X147231984Y-184001899D01*
X146954473Y-184426962D01*
X146696108Y-184882185D01*
X146613141Y-185042714D01*
X146382530Y-185533588D01*
X146185362Y-186025804D01*
X146022435Y-186517174D01*
X145894543Y-187005509D01*
X145887166Y-187038429D01*
X145862880Y-187150980D01*
X145841694Y-187256816D01*
X145822277Y-187363835D01*
X145803298Y-187479932D01*
X145783429Y-187613007D01*
X145761339Y-187770955D01*
X145751191Y-187845786D01*
X145746043Y-187876112D01*
X145742253Y-187879227D01*
X145739772Y-187853487D01*
X145738546Y-187797249D01*
X145738524Y-187708872D01*
X145739655Y-187586713D01*
X145740670Y-187510143D01*
X145749071Y-187201495D01*
X145765706Y-186916684D01*
X145791584Y-186643987D01*
X145827713Y-186371683D01*
X145851441Y-186223046D01*
X145948499Y-185731546D01*
X146069859Y-185266864D01*
X146215629Y-184828771D01*
X146385918Y-184417043D01*
X146580832Y-184031453D01*
X146800481Y-183671775D01*
X147044972Y-183337783D01*
X147314413Y-183029252D01*
X147435878Y-182906393D01*
X147510380Y-182833446D01*
X147561410Y-182780320D01*
X147587179Y-182745107D01*
X147585896Y-182725897D01*
X147555773Y-182720781D01*
X147495019Y-182727848D01*
X147401844Y-182745191D01*
X147303392Y-182765051D01*
X146972607Y-182849945D01*
X146642407Y-182970181D01*
X146314568Y-183124831D01*
X145990866Y-183312972D01*
X145673078Y-183533677D01*
X145392283Y-183760521D01*
X145313429Y-183828456D01*
X145258710Y-183874546D01*
X145224870Y-183900747D01*
X145208653Y-183909012D01*
X145206801Y-183901295D01*
X145216060Y-183879552D01*
X145225615Y-183860542D01*
X145339871Y-183658443D01*
X145479664Y-183446934D01*
X145638630Y-183233890D01*
X145810402Y-183027184D01*
X145988613Y-182834691D01*
X146166897Y-182664285D01*
X146250878Y-182592444D01*
X146490112Y-182412753D01*
X146746583Y-182250441D01*
X147013321Y-182109019D01*
X147283355Y-181992002D01*
X147549716Y-181902903D01*
X147688608Y-181867846D01*
X147758254Y-181851663D01*
X147813214Y-181837484D01*
X147844703Y-181827629D01*
X147848646Y-181825545D01*
X147836017Y-181820262D01*
X147794802Y-181813564D01*
X147732610Y-181806572D01*
X147699762Y-181803624D01*
X147487181Y-181798088D01*
X147254950Y-181813873D01*
X147011748Y-181849626D01*
X146766252Y-181903990D01*
X146527141Y-181975612D01*
X146471072Y-181995436D01*
X146404358Y-182018856D01*
X146351970Y-182035498D01*
X146322088Y-182042838D01*
X146318277Y-182042611D01*
X146329336Y-182030176D01*
X146366049Y-182002280D01*
X146423169Y-181962475D01*
X146495446Y-181914315D01*
X146577631Y-181861353D01*
X146664475Y-181807143D01*
X146681101Y-181796976D01*
X146749233Y-181757797D01*
X146837779Y-181710166D01*
X146934156Y-181660723D01*
X147007673Y-181624690D01*
X147364030Y-181472924D01*
X147723386Y-181356441D01*
X148084566Y-181275329D01*
X148446397Y-181229676D01*
X148807705Y-181219567D01*
X149167316Y-181245090D01*
G37*
X149167316Y-181245090D02*
X149524057Y-181306332D01*
X149876755Y-181403381D01*
X149897947Y-181410406D01*
X149991245Y-181442883D01*
X150085721Y-181477931D01*
X150175537Y-181513122D01*
X150254855Y-181546030D01*
X150317840Y-181574230D01*
X150358652Y-181595293D01*
X150371455Y-181606795D01*
X150371205Y-181607128D01*
X150351672Y-181608122D01*
X150303846Y-181605841D01*
X150235528Y-181600753D01*
X150175759Y-181595398D01*
X149959165Y-181586512D01*
X149723516Y-181597724D01*
X149477493Y-181627345D01*
X149229781Y-181673686D01*
X148989063Y-181735058D01*
X148764023Y-181809772D01*
X148563344Y-181896139D01*
X148522468Y-181916989D01*
X148455944Y-181952834D01*
X148404177Y-181982203D01*
X148373728Y-182001287D01*
X148368509Y-182006414D01*
X148387655Y-182006818D01*
X148434672Y-182003474D01*
X148501410Y-181997038D01*
X148545277Y-181992221D01*
X148641631Y-181984888D01*
X148751192Y-181982555D01*
X148867169Y-181984711D01*
X148982774Y-181990843D01*
X149091217Y-182000441D01*
X149185710Y-182012994D01*
X149259463Y-182027989D01*
X149305688Y-182044915D01*
X149312906Y-182050050D01*
X149308898Y-182066131D01*
X149279542Y-182088673D01*
X149267549Y-182095222D01*
X149213875Y-182125646D01*
X149137547Y-182173125D01*
X149045128Y-182233194D01*
X148943179Y-182301392D01*
X148838263Y-182373254D01*
X148736943Y-182444317D01*
X148645781Y-182510117D01*
X148571340Y-182566190D01*
X148548300Y-182584424D01*
X148186800Y-182898257D01*
X147847407Y-183238486D01*
X147529382Y-183606053D01*
X147231984Y-184001899D01*
X146954473Y-184426962D01*
X146696108Y-184882185D01*
X146613141Y-185042714D01*
X146382530Y-185533588D01*
X146185362Y-186025804D01*
X146022435Y-186517174D01*
X145894543Y-187005509D01*
X145887166Y-187038429D01*
X145862880Y-187150980D01*
X145841694Y-187256816D01*
X145822277Y-187363835D01*
X145803298Y-187479932D01*
X145783429Y-187613007D01*
X145761339Y-187770955D01*
X145751191Y-187845786D01*
X145746043Y-187876112D01*
X145742253Y-187879227D01*
X145739772Y-187853487D01*
X145738546Y-187797249D01*
X145738524Y-187708872D01*
X145739655Y-187586713D01*
X145740670Y-187510143D01*
X145749071Y-187201495D01*
X145765706Y-186916684D01*
X145791584Y-186643987D01*
X145827713Y-186371683D01*
X145851441Y-186223046D01*
X145948499Y-185731546D01*
X146069859Y-185266864D01*
X146215629Y-184828771D01*
X146385918Y-184417043D01*
X146580832Y-184031453D01*
X146800481Y-183671775D01*
X147044972Y-183337783D01*
X147314413Y-183029252D01*
X147435878Y-182906393D01*
X147510380Y-182833446D01*
X147561410Y-182780320D01*
X147587179Y-182745107D01*
X147585896Y-182725897D01*
X147555773Y-182720781D01*
X147495019Y-182727848D01*
X147401844Y-182745191D01*
X147303392Y-182765051D01*
X146972607Y-182849945D01*
X146642407Y-182970181D01*
X146314568Y-183124831D01*
X145990866Y-183312972D01*
X145673078Y-183533677D01*
X145392283Y-183760521D01*
X145313429Y-183828456D01*
X145258710Y-183874546D01*
X145224870Y-183900747D01*
X145208653Y-183909012D01*
X145206801Y-183901295D01*
X145216060Y-183879552D01*
X145225615Y-183860542D01*
X145339871Y-183658443D01*
X145479664Y-183446934D01*
X145638630Y-183233890D01*
X145810402Y-183027184D01*
X145988613Y-182834691D01*
X146166897Y-182664285D01*
X146250878Y-182592444D01*
X146490112Y-182412753D01*
X146746583Y-182250441D01*
X147013321Y-182109019D01*
X147283355Y-181992002D01*
X147549716Y-181902903D01*
X147688608Y-181867846D01*
X147758254Y-181851663D01*
X147813214Y-181837484D01*
X147844703Y-181827629D01*
X147848646Y-181825545D01*
X147836017Y-181820262D01*
X147794802Y-181813564D01*
X147732610Y-181806572D01*
X147699762Y-181803624D01*
X147487181Y-181798088D01*
X147254950Y-181813873D01*
X147011748Y-181849626D01*
X146766252Y-181903990D01*
X146527141Y-181975612D01*
X146471072Y-181995436D01*
X146404358Y-182018856D01*
X146351970Y-182035498D01*
X146322088Y-182042838D01*
X146318277Y-182042611D01*
X146329336Y-182030176D01*
X146366049Y-182002280D01*
X146423169Y-181962475D01*
X146495446Y-181914315D01*
X146577631Y-181861353D01*
X146664475Y-181807143D01*
X146681101Y-181796976D01*
X146749233Y-181757797D01*
X146837779Y-181710166D01*
X146934156Y-181660723D01*
X147007673Y-181624690D01*
X147364030Y-181472924D01*
X147723386Y-181356441D01*
X148084566Y-181275329D01*
X148446397Y-181229676D01*
X148807705Y-181219567D01*
X149167316Y-181245090D01*
G36*
X149272782Y-179750545D02*
G01*
X149466355Y-179756117D01*
X149652067Y-179764662D01*
X149821131Y-179776001D01*
X149959429Y-179789326D01*
X150416780Y-179854210D01*
X150881496Y-179943247D01*
X151355618Y-180057079D01*
X151841190Y-180196346D01*
X152340253Y-180361691D01*
X152854851Y-180553756D01*
X153387027Y-180773180D01*
X153938822Y-181020608D01*
X154059160Y-181077024D01*
X154367067Y-181225605D01*
X154643286Y-181365890D01*
X154890926Y-181499870D01*
X155113097Y-181629538D01*
X155312906Y-181756884D01*
X155493463Y-181883900D01*
X155657877Y-182012577D01*
X155809257Y-182144906D01*
X155950713Y-182282880D01*
X155965203Y-182297865D01*
X156086246Y-182429320D01*
X156201378Y-182566657D01*
X156313410Y-182714070D01*
X156425151Y-182875751D01*
X156539412Y-183055894D01*
X156659003Y-183258691D01*
X156786734Y-183488337D01*
X156880672Y-183663857D01*
X157057970Y-183999500D01*
X157884517Y-184552857D01*
X158188035Y-184756171D01*
X158463338Y-184940869D01*
X158712460Y-185108378D01*
X158937433Y-185260126D01*
X159140290Y-185397538D01*
X159323064Y-185522043D01*
X159487789Y-185635067D01*
X159636497Y-185738038D01*
X159771222Y-185832383D01*
X159893995Y-185919528D01*
X160006851Y-186000902D01*
X160111823Y-186077930D01*
X160210942Y-186152041D01*
X160306243Y-186224661D01*
X160399758Y-186297217D01*
X160493521Y-186371137D01*
X160589564Y-186447847D01*
X160627429Y-186478306D01*
X160821486Y-186637196D01*
X161003890Y-186791540D01*
X161172125Y-186938987D01*
X161323678Y-187077189D01*
X161456035Y-187203796D01*
X161566681Y-187316458D01*
X161653102Y-187412826D01*
X161712785Y-187490549D01*
X161716408Y-187496012D01*
X161787983Y-187637526D01*
X161829660Y-187793071D01*
X161840521Y-187954842D01*
X161819646Y-188115035D01*
X161797975Y-188189390D01*
X161731019Y-188331763D01*
X161629979Y-188475845D01*
X161496886Y-188619804D01*
X161333768Y-188761805D01*
X161142656Y-188900016D01*
X160925579Y-189032603D01*
X160776189Y-189112527D01*
X160488945Y-189246157D01*
X160215135Y-189347687D01*
X159952352Y-189417662D01*
X159698190Y-189456630D01*
X159450243Y-189465136D01*
X159275786Y-189452883D01*
X159080774Y-189424893D01*
X158875519Y-189383851D01*
X158658034Y-189329007D01*
X158426328Y-189259611D01*
X158178414Y-189174914D01*
X157912302Y-189074166D01*
X157626003Y-188956616D01*
X157317529Y-188821515D01*
X156984891Y-188668113D01*
X156626100Y-188495661D01*
X156275202Y-188321544D01*
X156138369Y-188253099D01*
X156011887Y-188190488D01*
X155899365Y-188135446D01*
X155804411Y-188089711D01*
X155730635Y-188055019D01*
X155681644Y-188033107D01*
X155661048Y-188025710D01*
X155660692Y-188025832D01*
X155666110Y-188044598D01*
X155691248Y-188086561D01*
X155732680Y-188146975D01*
X155786978Y-188221094D01*
X155850714Y-188304173D01*
X155920462Y-188391466D01*
X155955333Y-188433786D01*
X156171397Y-188668111D01*
X156403445Y-188870515D01*
X156654088Y-189042809D01*
X156925938Y-189186806D01*
X157199001Y-189296540D01*
X157398149Y-189374038D01*
X157565901Y-189457879D01*
X157706995Y-189551078D01*
X157826169Y-189656654D01*
X157903558Y-189745191D01*
X158027650Y-189929858D01*
X158121748Y-190130611D01*
X158186321Y-190349119D01*
X158221841Y-190587050D01*
X158228778Y-190846072D01*
X158227168Y-190891885D01*
X158213186Y-191100177D01*
X158190390Y-191275537D01*
X158158044Y-191420404D01*
X158115414Y-191537221D01*
X158061769Y-191628429D01*
X157996372Y-191696468D01*
X157982059Y-191707338D01*
X157929712Y-191740299D01*
X157878186Y-191759025D01*
X157811806Y-191768444D01*
X157781122Y-191770513D01*
X157704340Y-191770341D01*
X157631174Y-191758892D01*
X157553958Y-191733525D01*
X157465026Y-191691598D01*
X157356713Y-191630469D01*
X157332202Y-191615798D01*
X157268971Y-191578624D01*
X157221428Y-191555667D01*
X157176736Y-191543504D01*
X157122055Y-191538709D01*
X157044548Y-191537858D01*
X157040016Y-191537857D01*
X156834187Y-191532616D01*
X156613347Y-191517733D01*
X156388489Y-191494472D01*
X156170605Y-191464096D01*
X155970690Y-191427866D01*
X155855857Y-191401844D01*
X155579840Y-191322204D01*
X155320361Y-191224032D01*
X155072666Y-191104549D01*
X154831997Y-190960980D01*
X154593596Y-190790548D01*
X154352707Y-190590474D01*
X154159519Y-190411564D01*
X153953357Y-190218259D01*
X153763083Y-190052284D01*
X153584493Y-189910758D01*
X153413379Y-189790797D01*
X153245537Y-189689521D01*
X153076760Y-189604045D01*
X152902842Y-189531488D01*
X152844143Y-189510078D01*
X152717426Y-189467840D01*
X152603363Y-189436265D01*
X152492748Y-189413971D01*
X152376377Y-189399579D01*
X152245047Y-189391707D01*
X152089553Y-189388974D01*
X152036786Y-189388950D01*
X151863348Y-189391750D01*
X151714001Y-189400411D01*
X151577592Y-189416710D01*
X151442965Y-189442427D01*
X151298965Y-189479339D01*
X151134438Y-189529225D01*
X151112253Y-189536339D01*
X150985316Y-189578810D01*
X150871508Y-189621144D01*
X150767209Y-189665920D01*
X150668801Y-189715717D01*
X150572667Y-189773114D01*
X150475189Y-189840690D01*
X150372747Y-189921025D01*
X150261725Y-190016698D01*
X150138503Y-190130286D01*
X149999464Y-190264370D01*
X149840990Y-190421529D01*
X149768929Y-190493865D01*
X149646756Y-190616477D01*
X149526826Y-190736200D01*
X149412796Y-190849428D01*
X149308326Y-190952555D01*
X149217074Y-191041971D01*
X149142697Y-191114072D01*
X149088855Y-191165249D01*
X149075312Y-191177757D01*
X148925982Y-191313891D01*
X148906501Y-191530196D01*
X148896182Y-191748699D01*
X148901505Y-191997416D01*
X148922151Y-192273975D01*
X148957800Y-192576003D01*
X149008133Y-192901128D01*
X149072830Y-193246977D01*
X149151571Y-193611178D01*
X149231286Y-193941250D01*
X149251702Y-194024749D01*
X149267465Y-194094592D01*
X149277096Y-194143800D01*
X149279113Y-194165392D01*
X149278924Y-194165695D01*
X149262453Y-194158347D01*
X149222496Y-194133104D01*
X149164691Y-194093717D01*
X149094672Y-194043941D01*
X149079255Y-194032745D01*
X149007399Y-193981315D01*
X148946562Y-193939538D01*
X148902386Y-193911159D01*
X148880518Y-193899924D01*
X148879300Y-193900081D01*
X148883902Y-193919629D01*
X148905812Y-193966853D01*
X148943224Y-194038585D01*
X148994331Y-194131658D01*
X149057327Y-194242905D01*
X149130404Y-194369160D01*
X149211757Y-194507254D01*
X149299578Y-194654021D01*
X149392061Y-194806294D01*
X149450082Y-194900675D01*
X149524906Y-195022230D01*
X149592950Y-195133570D01*
X149652024Y-195231046D01*
X149699935Y-195311009D01*
X149734492Y-195369811D01*
X149753503Y-195403802D01*
X149756492Y-195410859D01*
X149736154Y-195407593D01*
X149687883Y-195391171D01*
X149616660Y-195363715D01*
X149527467Y-195327346D01*
X149425283Y-195284184D01*
X149315090Y-195236352D01*
X149201869Y-195185969D01*
X149090599Y-195135158D01*
X148986263Y-195086038D01*
X148932810Y-195060105D01*
X148534323Y-194851424D01*
X148169568Y-194633443D01*
X147836927Y-194405042D01*
X147534778Y-194165099D01*
X147261504Y-193912496D01*
X147234224Y-193884993D01*
X147030494Y-193664563D01*
X146858600Y-193448762D01*
X146715361Y-193232693D01*
X146597601Y-193011457D01*
X146502142Y-192780157D01*
X146484491Y-192729432D01*
X146458673Y-192655255D01*
X146440298Y-192609368D01*
X146429015Y-192593023D01*
X146424471Y-192607475D01*
X146426317Y-192653979D01*
X146434199Y-192733788D01*
X146447767Y-192848158D01*
X146448824Y-192856712D01*
X146481957Y-193102333D01*
X146519523Y-193335655D01*
X146562963Y-193562192D01*
X146613718Y-193787461D01*
X146673230Y-194016976D01*
X146742940Y-194256253D01*
X146824290Y-194510807D01*
X146918720Y-194786154D01*
X147027672Y-195087809D01*
X147042075Y-195126806D01*
X147085672Y-195245767D01*
X147124224Y-195353235D01*
X147156158Y-195444633D01*
X147179899Y-195515384D01*
X147193873Y-195560910D01*
X147196776Y-195576557D01*
X147177350Y-195572713D01*
X147130347Y-195554536D01*
X147060462Y-195524277D01*
X146972395Y-195484184D01*
X146870843Y-195436507D01*
X146760504Y-195383494D01*
X146646075Y-195327394D01*
X146532255Y-195270458D01*
X146423740Y-195214932D01*
X146325229Y-195163068D01*
X146267357Y-195131594D01*
X146140028Y-195059038D01*
X146006549Y-194979207D01*
X145874165Y-194896733D01*
X145750123Y-194816245D01*
X145641668Y-194742373D01*
X145556048Y-194679748D01*
X145538097Y-194665618D01*
X145480123Y-194619020D01*
X145524614Y-194763894D01*
X145584025Y-194940725D01*
X145659756Y-195139457D01*
X145748280Y-195351615D01*
X145846071Y-195568725D01*
X145943073Y-195769316D01*
X145976914Y-195837766D01*
X146003566Y-195893401D01*
X146019492Y-195928739D01*
X146022429Y-195937138D01*
X146017909Y-195943516D01*
X146001197Y-195944572D01*
X145967558Y-195939410D01*
X145912261Y-195927130D01*
X145830573Y-195906833D01*
X145741214Y-195883743D01*
X145306695Y-195752068D01*
X144885050Y-195587603D01*
X144478188Y-195391820D01*
X144088015Y-195166194D01*
X143716436Y-194912196D01*
X143365358Y-194631302D01*
X143036687Y-194324984D01*
X142732331Y-193994714D01*
X142454194Y-193641968D01*
X142204183Y-193268218D01*
X142078789Y-193053210D01*
X142034854Y-192972921D01*
X141998104Y-192903906D01*
X141971772Y-192852381D01*
X141959092Y-192824561D01*
X141958429Y-192821889D01*
X141944193Y-192808596D01*
X141937513Y-192807857D01*
X141929763Y-192824888D01*
X141925508Y-192871922D01*
X141924489Y-192942872D01*
X141926447Y-193031649D01*
X141931121Y-193132167D01*
X141938252Y-193238337D01*
X141947582Y-193344072D01*
X141958850Y-193443283D01*
X141967052Y-193501141D01*
X142005423Y-193717697D01*
X142056156Y-193958426D01*
X142116991Y-194214294D01*
X142185668Y-194476265D01*
X142259927Y-194735304D01*
X142337508Y-194982376D01*
X142337853Y-194983422D01*
X142365018Y-195067578D01*
X142386758Y-195138406D01*
X142401134Y-195189314D01*
X142406206Y-195213710D01*
X142405951Y-195214811D01*
X142388540Y-195208434D01*
X142346172Y-195185022D01*
X142283978Y-195147829D01*
X142207086Y-195100104D01*
X142120627Y-195045101D01*
X142029730Y-194986069D01*
X141939524Y-194926261D01*
X141855139Y-194868929D01*
X141804214Y-194833380D01*
X141480670Y-194591368D01*
X141164729Y-194329651D01*
X140861509Y-194053227D01*
X140576129Y-193767092D01*
X140313708Y-193476247D01*
X140079364Y-193185689D01*
X139984575Y-193056561D01*
X139762585Y-192716923D01*
X139575124Y-192371588D01*
X139422519Y-192021451D01*
X139305099Y-191667407D01*
X139223193Y-191310351D01*
X139177129Y-190951177D01*
X139170124Y-190838373D01*
X139159154Y-190601531D01*
X138912327Y-190578289D01*
X138603919Y-190542974D01*
X138271383Y-190493328D01*
X137923224Y-190430886D01*
X137567947Y-190357182D01*
X137214056Y-190273752D01*
X137186857Y-190266905D01*
X136626585Y-190111954D01*
X136096051Y-189937868D01*
X135593789Y-189744023D01*
X135118329Y-189529798D01*
X134668203Y-189294570D01*
X134416090Y-189142652D01*
X135502243Y-189142652D01*
X135506934Y-189154778D01*
X135542070Y-189177735D01*
X135603976Y-189209994D01*
X135688981Y-189250028D01*
X135793412Y-189296310D01*
X135913596Y-189347312D01*
X136045860Y-189401506D01*
X136186533Y-189457364D01*
X136331940Y-189513360D01*
X136478411Y-189567964D01*
X136622271Y-189619651D01*
X136759849Y-189666891D01*
X136773556Y-189671457D01*
X137121866Y-189780489D01*
X137460081Y-189872148D01*
X137797821Y-189948447D01*
X138144705Y-190011400D01*
X138510354Y-190063021D01*
X138795596Y-190094802D01*
X138907550Y-190106048D01*
X138928670Y-190000988D01*
X139021619Y-189610317D01*
X139138884Y-189240539D01*
X139279606Y-188893591D01*
X139442927Y-188571412D01*
X139627991Y-188275938D01*
X139783410Y-188069503D01*
X139839222Y-188004015D01*
X139908011Y-187927681D01*
X139983760Y-187846719D01*
X140060450Y-187767343D01*
X140132062Y-187695769D01*
X140192579Y-187638213D01*
X140235983Y-187600891D01*
X140240140Y-187597788D01*
X140258618Y-187586126D01*
X140266504Y-187587569D01*
X140262412Y-187605999D01*
X140244957Y-187645299D01*
X140212752Y-187709355D01*
X140173330Y-187785054D01*
X139983902Y-188185417D01*
X139826795Y-188602218D01*
X139702057Y-189035303D01*
X139609740Y-189484514D01*
X139597610Y-189560286D01*
X139578068Y-189721230D01*
X139564300Y-189906233D01*
X139556378Y-190105593D01*
X139554374Y-190309605D01*
X139558360Y-190508566D01*
X139568409Y-190692771D01*
X139584593Y-190852518D01*
X139587827Y-190875643D01*
X139664612Y-191277446D01*
X139775407Y-191667745D01*
X139919675Y-192044941D01*
X140096882Y-192407436D01*
X140109656Y-192430683D01*
X140248345Y-192666429D01*
X140397640Y-192889797D01*
X140562629Y-193107373D01*
X140748400Y-193325740D01*
X140960040Y-193551480D01*
X141032628Y-193624918D01*
X141129644Y-193720353D01*
X141229638Y-193815828D01*
X141329024Y-193908202D01*
X141424221Y-193994332D01*
X141511645Y-194071077D01*
X141587712Y-194135296D01*
X141648838Y-194183847D01*
X141691442Y-194213589D01*
X141711939Y-194221379D01*
X141712508Y-194220968D01*
X141711202Y-194201631D01*
X141702402Y-194154113D01*
X141687540Y-194085405D01*
X141668047Y-194002500D01*
X141666494Y-193996134D01*
X141596276Y-193633675D01*
X141561849Y-193268548D01*
X141563202Y-192902964D01*
X141600324Y-192539132D01*
X141673203Y-192179260D01*
X141676120Y-192167857D01*
X141706735Y-192054077D01*
X141737262Y-191949842D01*
X141766026Y-191860045D01*
X141791353Y-191789579D01*
X141811568Y-191743336D01*
X141824996Y-191726210D01*
X141827028Y-191726981D01*
X141837041Y-191745757D01*
X141858767Y-191791550D01*
X141889336Y-191858155D01*
X141925873Y-191939363D01*
X141939448Y-191969884D01*
X142080667Y-192269337D01*
X142239771Y-192573260D01*
X142410179Y-192869903D01*
X142585312Y-193147517D01*
X142662516Y-193261105D01*
X142840091Y-193502101D01*
X143035787Y-193743001D01*
X143243118Y-193976737D01*
X143455598Y-194196241D01*
X143666742Y-194394444D01*
X143827143Y-194530358D01*
X144080384Y-194720147D01*
X144353772Y-194900323D01*
X144637676Y-195065263D01*
X144922464Y-195209346D01*
X145178786Y-195319353D01*
X145267638Y-195353307D01*
X145327168Y-195373755D01*
X145361650Y-195380901D01*
X145375358Y-195374951D01*
X145372567Y-195356107D01*
X145359317Y-195327979D01*
X145302267Y-195204813D01*
X145243321Y-195054385D01*
X145184123Y-194883012D01*
X145126317Y-194697013D01*
X145071546Y-194502706D01*
X145021456Y-194306409D01*
X144977691Y-194114441D01*
X144941894Y-193933121D01*
X144915710Y-193768766D01*
X144900783Y-193627695D01*
X144897904Y-193554861D01*
X144897571Y-193476364D01*
X144963717Y-193563932D01*
X145198746Y-193850175D01*
X145451831Y-194109117D01*
X145728385Y-194345833D01*
X146026715Y-194560693D01*
X146097917Y-194606440D01*
X146178656Y-194655901D01*
X146263301Y-194705923D01*
X146346221Y-194753350D01*
X146421785Y-194795027D01*
X146484362Y-194827800D01*
X146528322Y-194848512D01*
X146548032Y-194854009D01*
X146548571Y-194853088D01*
X146543184Y-194834499D01*
X146528300Y-194787430D01*
X146505841Y-194717848D01*
X146477726Y-194631715D01*
X146458147Y-194572162D01*
X146300513Y-194036508D01*
X146178500Y-193493968D01*
X146092108Y-192944538D01*
X146041336Y-192388211D01*
X146027416Y-191870774D01*
X146661898Y-191870774D01*
X146672036Y-191944203D01*
X146684427Y-192018643D01*
X146756879Y-192351216D01*
X146862101Y-192668678D01*
X146999582Y-192970379D01*
X147168814Y-193255672D01*
X147369286Y-193523909D01*
X147600489Y-193774441D01*
X147861914Y-194006620D01*
X148153052Y-194219798D01*
X148473392Y-194413326D01*
X148631364Y-194496047D01*
X148703033Y-194531050D01*
X148761775Y-194558160D01*
X148800702Y-194574298D01*
X148812982Y-194577209D01*
X148807510Y-194559698D01*
X148787620Y-194517597D01*
X148756749Y-194457904D01*
X148731051Y-194410492D01*
X148596263Y-194151956D01*
X148468783Y-193880081D01*
X148352482Y-193604219D01*
X148251231Y-193333723D01*
X148168901Y-193077943D01*
X148146555Y-192998397D01*
X148120116Y-192900515D01*
X148104381Y-192835753D01*
X148101585Y-192801949D01*
X148113963Y-192796941D01*
X148143750Y-192818565D01*
X148193181Y-192864659D01*
X148239111Y-192908835D01*
X148308248Y-192973877D01*
X148383796Y-193042892D01*
X148460952Y-193111735D01*
X148534914Y-193176261D01*
X148600877Y-193232323D01*
X148654038Y-193275778D01*
X148689594Y-193302478D01*
X148702541Y-193308792D01*
X148701782Y-193289662D01*
X148694613Y-193244217D01*
X148682510Y-193181559D01*
X148679864Y-193168883D01*
X148650471Y-193013953D01*
X148621960Y-192834436D01*
X148595941Y-192642023D01*
X148574023Y-192448405D01*
X148560884Y-192304968D01*
X148554235Y-192193815D01*
X148550149Y-192062745D01*
X148548498Y-191919019D01*
X148549158Y-191769899D01*
X148552002Y-191622648D01*
X148556905Y-191484528D01*
X148563741Y-191362802D01*
X148572384Y-191264730D01*
X148579809Y-191211988D01*
X148591279Y-191160130D01*
X148607974Y-191120682D01*
X148636691Y-191083451D01*
X148684223Y-191038241D01*
X148711620Y-191014260D01*
X148748480Y-190980594D01*
X148807648Y-190924377D01*
X148885860Y-190848802D01*
X148979854Y-190757060D01*
X149086365Y-190652344D01*
X149202132Y-190537849D01*
X149323891Y-190416767D01*
X149402518Y-190338228D01*
X149566745Y-190174478D01*
X149708739Y-190034364D01*
X149831387Y-189915331D01*
X149937574Y-189814829D01*
X150030187Y-189730304D01*
X150112111Y-189659205D01*
X150186231Y-189598980D01*
X150255434Y-189547075D01*
X150322606Y-189500939D01*
X150390632Y-189458019D01*
X150412838Y-189444674D01*
X150637779Y-189328076D01*
X150887646Y-189229326D01*
X151154716Y-189150436D01*
X151431271Y-189093414D01*
X151709587Y-189060270D01*
X151920284Y-189052286D01*
X152242885Y-189069544D01*
X152567157Y-189120198D01*
X152885620Y-189202567D01*
X153190795Y-189314970D01*
X153291790Y-189360483D01*
X153413233Y-189420624D01*
X153520432Y-189480446D01*
X153620395Y-189544981D01*
X153720127Y-189619262D01*
X153826635Y-189708319D01*
X153946924Y-189817185D01*
X154009452Y-189875905D01*
X154157682Y-190014913D01*
X154286588Y-190132384D01*
X154401891Y-190233038D01*
X154509312Y-190321595D01*
X154614569Y-190402776D01*
X154723385Y-190481300D01*
X154837703Y-190559368D01*
X155149012Y-190749024D01*
X155463936Y-190903787D01*
X155785766Y-191025048D01*
X156117794Y-191114199D01*
X156182429Y-191127647D01*
X156333999Y-191154914D01*
X156486796Y-191177195D01*
X156635370Y-191194125D01*
X156774273Y-191205336D01*
X156898054Y-191210464D01*
X157001264Y-191209141D01*
X157078453Y-191201002D01*
X157115678Y-191190347D01*
X157161730Y-191158320D01*
X157189288Y-191127202D01*
X157216943Y-191084996D01*
X157346385Y-191185008D01*
X157442546Y-191255281D01*
X157535592Y-191315931D01*
X157619732Y-191363740D01*
X157689176Y-191395488D01*
X157738134Y-191407957D01*
X157746816Y-191407640D01*
X157772193Y-191394741D01*
X157793647Y-191361570D01*
X157812135Y-191304645D01*
X157828615Y-191220485D01*
X157844044Y-191105607D01*
X157853164Y-191020786D01*
X157864187Y-190784087D01*
X157848884Y-190561598D01*
X157807959Y-190356460D01*
X157742115Y-190171816D01*
X157652055Y-190010808D01*
X157616350Y-189962396D01*
X157531462Y-189874139D01*
X157422335Y-189795239D01*
X157284924Y-189723206D01*
X157121840Y-189657914D01*
X156856623Y-189551737D01*
X156611932Y-189428718D01*
X156383807Y-189285749D01*
X156168287Y-189119723D01*
X155961410Y-188927531D01*
X155759216Y-188706067D01*
X155557743Y-188452223D01*
X155519976Y-188401112D01*
X155381893Y-188213799D01*
X155261160Y-188053684D01*
X155155060Y-187917732D01*
X155060875Y-187802907D01*
X154975889Y-187706175D01*
X154897386Y-187624501D01*
X154822647Y-187554850D01*
X154748957Y-187494188D01*
X154673598Y-187439479D01*
X154637560Y-187415434D01*
X154577637Y-187374522D01*
X154534006Y-187341036D01*
X154512199Y-187319449D01*
X154512109Y-187313988D01*
X154545855Y-187311649D01*
X154607380Y-187315421D01*
X154688895Y-187324222D01*
X154782613Y-187336973D01*
X154880746Y-187352593D01*
X154975506Y-187370001D01*
X155059106Y-187388118D01*
X155075416Y-187392139D01*
X155195723Y-187424536D01*
X155317240Y-187461412D01*
X155443173Y-187504133D01*
X155576726Y-187554065D01*
X155721102Y-187612574D01*
X155879507Y-187681027D01*
X156055146Y-187760791D01*
X156251222Y-187853231D01*
X156470941Y-187959714D01*
X156717506Y-188081606D01*
X156862786Y-188154238D01*
X157140803Y-188293057D01*
X157389705Y-188415899D01*
X157612323Y-188523990D01*
X157811490Y-188618559D01*
X157990036Y-188700832D01*
X158150795Y-188772037D01*
X158296598Y-188833401D01*
X158430277Y-188886153D01*
X158554664Y-188931518D01*
X158672590Y-188970726D01*
X158786888Y-189005002D01*
X158890020Y-189032914D01*
X159085418Y-189078200D01*
X159260426Y-189106972D01*
X159426269Y-189120531D01*
X159594168Y-189120176D01*
X159629571Y-189118518D01*
X159758584Y-189108973D01*
X159874280Y-189093724D01*
X159988502Y-189070391D01*
X160113090Y-189036591D01*
X160246075Y-188994526D01*
X160348428Y-188956235D01*
X160470047Y-188903745D01*
X160601552Y-188841751D01*
X160733562Y-188774949D01*
X160856694Y-188708037D01*
X160961569Y-188645709D01*
X161018029Y-188608084D01*
X161141460Y-188507350D01*
X161255921Y-188390125D01*
X161352567Y-188266350D01*
X161414659Y-188162305D01*
X161449640Y-188087538D01*
X161469559Y-188028128D01*
X161478389Y-187968540D01*
X161480143Y-187906245D01*
X161476220Y-187828523D01*
X161462174Y-187759842D01*
X161434590Y-187694344D01*
X161390050Y-187626170D01*
X161325139Y-187549461D01*
X161236441Y-187458360D01*
X161196007Y-187418961D01*
X160847024Y-187091587D01*
X160512686Y-186797127D01*
X160192764Y-186535396D01*
X159887033Y-186306210D01*
X159595266Y-186109384D01*
X159558328Y-186086150D01*
X159478013Y-186036066D01*
X159512982Y-186088212D01*
X159649705Y-186292514D01*
X159766478Y-186467936D01*
X159863948Y-186615473D01*
X159942763Y-186736119D01*
X160003567Y-186830870D01*
X160047009Y-186900720D01*
X160073733Y-186946663D01*
X160082619Y-186964594D01*
X160097753Y-187014476D01*
X160092758Y-187057595D01*
X160083795Y-187081494D01*
X160068350Y-187124611D01*
X160047462Y-187191139D01*
X160024750Y-187269350D01*
X160015905Y-187301500D01*
X159996535Y-187378408D01*
X159984305Y-187444547D01*
X159978093Y-187511790D01*
X159976779Y-187592012D01*
X159979061Y-187691572D01*
X159983966Y-187800330D01*
X159991777Y-187884061D01*
X160004197Y-187954003D01*
X160022929Y-188021394D01*
X160034063Y-188054429D01*
X160081772Y-188190500D01*
X160025071Y-188239648D01*
X159929349Y-188302747D01*
X159805503Y-188353173D01*
X159659934Y-188389419D01*
X159499044Y-188409979D01*
X159329235Y-188413345D01*
X159293929Y-188411776D01*
X159161229Y-188400654D01*
X159022818Y-188381309D01*
X158876776Y-188352997D01*
X158721185Y-188314976D01*
X158554129Y-188266504D01*
X158373688Y-188206836D01*
X158177945Y-188135232D01*
X157964981Y-188050947D01*
X157732880Y-187953240D01*
X157479723Y-187841367D01*
X157203591Y-187714585D01*
X156902568Y-187572153D01*
X156574735Y-187413328D01*
X156218175Y-187237365D01*
X156068362Y-187162658D01*
X155747892Y-187004453D01*
X155456014Y-186864716D01*
X155190617Y-186742575D01*
X154949591Y-186637161D01*
X154730824Y-186547602D01*
X154532206Y-186473028D01*
X154351625Y-186412569D01*
X154186970Y-186365353D01*
X154065079Y-186336485D01*
X153988987Y-186320799D01*
X153922747Y-186308811D01*
X153859545Y-186300017D01*
X153792562Y-186293910D01*
X153714981Y-186289987D01*
X153619987Y-186287740D01*
X153500763Y-186286666D01*
X153388429Y-186286320D01*
X153245829Y-186286327D01*
X153133496Y-186287203D01*
X153045411Y-186289345D01*
X152975557Y-186293150D01*
X152917918Y-186299016D01*
X152866477Y-186307340D01*
X152815216Y-186318520D01*
X152784145Y-186326227D01*
X152550313Y-186400569D01*
X152336050Y-186498621D01*
X152145399Y-186618170D01*
X151982405Y-186757006D01*
X151966361Y-186773337D01*
X151859406Y-186884214D01*
X152010049Y-186893286D01*
X152160692Y-186902357D01*
X152156597Y-187040271D01*
X152163768Y-187173175D01*
X152194841Y-187301253D01*
X152251968Y-187428971D01*
X152337303Y-187560798D01*
X152452999Y-187701200D01*
X152499271Y-187751301D01*
X152608657Y-187861496D01*
X152724096Y-187966294D01*
X152849256Y-188068186D01*
X152987802Y-188169664D01*
X153143400Y-188273217D01*
X153319718Y-188381337D01*
X153520420Y-188496515D01*
X153749175Y-188621241D01*
X153887325Y-188694315D01*
X154154396Y-188838513D01*
X154392319Y-188976838D01*
X154606729Y-189113764D01*
X154803257Y-189253761D01*
X154987538Y-189401301D01*
X155165202Y-189560858D01*
X155341885Y-189736902D01*
X155523217Y-189933906D01*
X155686512Y-190122715D01*
X155804318Y-190260256D01*
X155904903Y-190372799D01*
X155992832Y-190464362D01*
X156072669Y-190538964D01*
X156148978Y-190600625D01*
X156226325Y-190653362D01*
X156309273Y-190701195D01*
X156390112Y-190742223D01*
X156456420Y-190776136D01*
X156490248Y-190798252D01*
X156491071Y-190808977D01*
X156458364Y-190808715D01*
X156391604Y-190797872D01*
X156333293Y-190786100D01*
X156041405Y-190706566D01*
X155764448Y-190594373D01*
X155504171Y-190450353D01*
X155266214Y-190278520D01*
X155227921Y-190245250D01*
X155168449Y-190191057D01*
X155092556Y-190120395D01*
X155004997Y-190037719D01*
X154910531Y-189947482D01*
X154839857Y-189879313D01*
X154669915Y-189717193D01*
X154518612Y-189578582D01*
X154381037Y-189459381D01*
X154252277Y-189355494D01*
X154127423Y-189262823D01*
X154001562Y-189177271D01*
X153987092Y-189167891D01*
X153604612Y-188942013D01*
X153210036Y-188749867D01*
X152804642Y-188591832D01*
X152389707Y-188468291D01*
X151966508Y-188379623D01*
X151536322Y-188326209D01*
X151102429Y-188308429D01*
X150683478Y-188325472D01*
X150276034Y-188376470D01*
X149880806Y-188461228D01*
X149498501Y-188579550D01*
X149129829Y-188731240D01*
X148775497Y-188916103D01*
X148665826Y-188981879D01*
X148595001Y-189026752D01*
X148519728Y-189076106D01*
X148446154Y-189125699D01*
X148380428Y-189171287D01*
X148328700Y-189208625D01*
X148297117Y-189233469D01*
X148290286Y-189241086D01*
X148306681Y-189240877D01*
X148350066Y-189235289D01*
X148411734Y-189225479D01*
X148424759Y-189223240D01*
X148584553Y-189199488D01*
X148754548Y-189181247D01*
X148923098Y-189169360D01*
X149078554Y-189164669D01*
X149197429Y-189167286D01*
X149288142Y-189175269D01*
X149385476Y-189188458D01*
X149481530Y-189205247D01*
X149568406Y-189224033D01*
X149638207Y-189243210D01*
X149683033Y-189261174D01*
X149692374Y-189267831D01*
X149685174Y-189283869D01*
X149653058Y-189314277D01*
X149601764Y-189354008D01*
X149566031Y-189378967D01*
X149419887Y-189482977D01*
X149261581Y-189606324D01*
X149088717Y-189751040D01*
X148898899Y-189919157D01*
X148689731Y-190112706D01*
X148598492Y-190199245D01*
X148380135Y-190406524D01*
X148183514Y-190590481D01*
X148005214Y-190753945D01*
X147841819Y-190899749D01*
X147689913Y-191030723D01*
X147546082Y-191149698D01*
X147406909Y-191259506D01*
X147268979Y-191362977D01*
X147128876Y-191462944D01*
X146983185Y-191562236D01*
X146843393Y-191654055D01*
X146763882Y-191705446D01*
X146709653Y-191744382D01*
X146677030Y-191779295D01*
X146662337Y-191818615D01*
X146661898Y-191870774D01*
X146027416Y-191870774D01*
X146026184Y-191824981D01*
X146046652Y-191254845D01*
X146102739Y-190677796D01*
X146194445Y-190093828D01*
X146224037Y-189941286D01*
X146249173Y-189822591D01*
X146278723Y-189692974D01*
X146311451Y-189556958D01*
X146346120Y-189419065D01*
X146381495Y-189283816D01*
X146416339Y-189155733D01*
X146449418Y-189039338D01*
X146479494Y-188939153D01*
X146505333Y-188859700D01*
X146525697Y-188805499D01*
X146539351Y-188781074D01*
X146541418Y-188780143D01*
X146558466Y-188791596D01*
X146593576Y-188821415D01*
X146632803Y-188857250D01*
X146753505Y-188958613D01*
X146894236Y-189057318D01*
X147039630Y-189142720D01*
X147060654Y-189153604D01*
X147120216Y-189183318D01*
X147166200Y-189205254D01*
X147190008Y-189215331D01*
X147191237Y-189215572D01*
X147188484Y-189200628D01*
X147173158Y-189161326D01*
X147148512Y-189105959D01*
X147146748Y-189102179D01*
X147099278Y-188992162D01*
X147063974Y-188887566D01*
X147039248Y-188779838D01*
X147023508Y-188660421D01*
X147015164Y-188520762D01*
X147012706Y-188381000D01*
X147013071Y-188270042D01*
X147015031Y-188165116D01*
X147018313Y-188074377D01*
X147022647Y-188005982D01*
X147026207Y-187975495D01*
X147041200Y-187887491D01*
X147189493Y-187818446D01*
X147442997Y-187714406D01*
X147725396Y-187623884D01*
X148031574Y-187547748D01*
X148356417Y-187486862D01*
X148694810Y-187442092D01*
X149041639Y-187414306D01*
X149391790Y-187404369D01*
X149614714Y-187407758D01*
X149728389Y-187412406D01*
X149852702Y-187419065D01*
X149982128Y-187427276D01*
X150111141Y-187436580D01*
X150234216Y-187446520D01*
X150345826Y-187456636D01*
X150440447Y-187466470D01*
X150512552Y-187475564D01*
X150556615Y-187483459D01*
X150566219Y-187486708D01*
X150575556Y-187488946D01*
X150567214Y-187479727D01*
X150543399Y-187464922D01*
X150494796Y-187439998D01*
X150429926Y-187409228D01*
X150394857Y-187393342D01*
X150080016Y-187238271D01*
X149781324Y-187061947D01*
X149503888Y-186867875D01*
X149252813Y-186659554D01*
X149081508Y-186492532D01*
X148950347Y-186346638D01*
X148843588Y-186208754D01*
X148754166Y-186068825D01*
X148675017Y-185916795D01*
X148670964Y-185908187D01*
X148601327Y-185736233D01*
X148558759Y-185570701D01*
X148540117Y-185397919D01*
X148538662Y-185333000D01*
X148554127Y-185138992D01*
X148602450Y-184957387D01*
X148684532Y-184786017D01*
X148801273Y-184622715D01*
X148861693Y-184555130D01*
X149031223Y-184398242D01*
X149222618Y-184263005D01*
X149439464Y-184147253D01*
X149685347Y-184048825D01*
X149720336Y-184036953D01*
X149900327Y-183981543D01*
X150080249Y-183935884D01*
X150266948Y-183898846D01*
X150467271Y-183869302D01*
X150688066Y-183846121D01*
X150936179Y-183828173D01*
X151011714Y-183823920D01*
X151419929Y-183802163D01*
X151292929Y-183743237D01*
X151050174Y-183645457D01*
X150802836Y-183574110D01*
X150558604Y-183531036D01*
X150351659Y-183517977D01*
X150186214Y-183517240D01*
X150216325Y-183491500D01*
X153580397Y-183491500D01*
X153724806Y-183513523D01*
X153879880Y-183546743D01*
X154046945Y-183599156D01*
X154217284Y-183666766D01*
X154382180Y-183745579D01*
X154532915Y-183831602D01*
X154660773Y-183920840D01*
X154715815Y-183967641D01*
X154739038Y-183986838D01*
X154764534Y-183999831D01*
X154799901Y-184008046D01*
X154852733Y-184012905D01*
X154930627Y-184015834D01*
X154978887Y-184016967D01*
X155141064Y-184027163D01*
X155298315Y-184052010D01*
X155460414Y-184093753D01*
X155637135Y-184154637D01*
X155719786Y-184187151D01*
X155807074Y-184222265D01*
X155866213Y-184245053D01*
X155902528Y-184257194D01*
X155921344Y-184260366D01*
X155927987Y-184256246D01*
X155928429Y-184252897D01*
X155919780Y-184228046D01*
X155896242Y-184178798D01*
X155861428Y-184111969D01*
X155818949Y-184034377D01*
X155772420Y-183952839D01*
X155743465Y-183903865D01*
X155587226Y-183666359D01*
X155415951Y-183447746D01*
X155233432Y-183251942D01*
X155043463Y-183082859D01*
X154849835Y-182944412D01*
X154765908Y-182895007D01*
X154707852Y-182864962D01*
X154644154Y-182834863D01*
X154583037Y-182808197D01*
X154532722Y-182788449D01*
X154501432Y-182779107D01*
X154495187Y-182780198D01*
X154502804Y-182796895D01*
X154523304Y-182838929D01*
X154553221Y-182899240D01*
X154576830Y-182946407D01*
X154620160Y-183034728D01*
X154646208Y-183096411D01*
X154654871Y-183136781D01*
X154646047Y-183161160D01*
X154619633Y-183174873D01*
X154575527Y-183183244D01*
X154572250Y-183183702D01*
X154388976Y-183214243D01*
X154205791Y-183254349D01*
X154030866Y-183301711D01*
X153872369Y-183354022D01*
X153738469Y-183408974D01*
X153690489Y-183432840D01*
X153580397Y-183491500D01*
X150216325Y-183491500D01*
X150248814Y-183463728D01*
X150332010Y-183407673D01*
X150445169Y-183353821D01*
X150581970Y-183304108D01*
X150736090Y-183260473D01*
X150901208Y-183224854D01*
X151071002Y-183199187D01*
X151133285Y-183192643D01*
X151288974Y-183184438D01*
X151456459Y-183186097D01*
X151622345Y-183196920D01*
X151773233Y-183216208D01*
X151842823Y-183229686D01*
X151891506Y-183239439D01*
X151922071Y-183243358D01*
X151926885Y-183242652D01*
X151936895Y-183225705D01*
X151960667Y-183185201D01*
X151993645Y-183128909D01*
X152004419Y-183110500D01*
X152139082Y-182915427D01*
X152304199Y-182736413D01*
X152496564Y-182575959D01*
X152712975Y-182436567D01*
X152950225Y-182320738D01*
X153080000Y-182270919D01*
X153160177Y-182244451D01*
X153237455Y-182221670D01*
X153298309Y-182206489D01*
X153311322Y-182204004D01*
X153358283Y-182193283D01*
X153385605Y-182181511D01*
X153388429Y-182177361D01*
X153376958Y-182145830D01*
X153345901Y-182094328D01*
X153300291Y-182029543D01*
X153245162Y-181958159D01*
X153185545Y-181886863D01*
X153126474Y-181822341D01*
X153104823Y-181800606D01*
X152970802Y-181669998D01*
X153066223Y-181697943D01*
X153383356Y-181797631D01*
X153695326Y-181908887D01*
X153995489Y-182028948D01*
X154277197Y-182155054D01*
X154533804Y-182284443D01*
X154690380Y-182372782D01*
X154903501Y-182506781D01*
X155094551Y-182644097D01*
X155269450Y-182790328D01*
X155434114Y-182951068D01*
X155594462Y-183131917D01*
X155756412Y-183338470D01*
X155854456Y-183473735D01*
X155972443Y-183636994D01*
X156076455Y-183772396D01*
X156170213Y-183883762D01*
X156257437Y-183974912D01*
X156341847Y-184049667D01*
X156427164Y-184111848D01*
X156517109Y-184165277D01*
X156539096Y-184176860D01*
X156610585Y-184212720D01*
X156671126Y-184241210D01*
X156712868Y-184258741D01*
X156726585Y-184262572D01*
X156729136Y-184250136D01*
X156712086Y-184218393D01*
X156694837Y-184194536D01*
X156623505Y-184097073D01*
X156536864Y-183967922D01*
X156434731Y-183806800D01*
X156316923Y-183613425D01*
X156282019Y-183555000D01*
X156152287Y-183340310D01*
X156034918Y-183153691D01*
X155926503Y-182990536D01*
X155823632Y-182846235D01*
X155722896Y-182716182D01*
X155620887Y-182595767D01*
X155514197Y-182480384D01*
X155408696Y-182374441D01*
X155257651Y-182233959D01*
X155102856Y-182104095D01*
X154940110Y-181982284D01*
X154765209Y-181865963D01*
X154573951Y-181752569D01*
X154362133Y-181639540D01*
X154125551Y-181524310D01*
X153860003Y-181404318D01*
X153716318Y-181342273D01*
X153131636Y-181103607D01*
X152566542Y-180894478D01*
X152019927Y-180714618D01*
X151490682Y-180563761D01*
X150977700Y-180441637D01*
X150479871Y-180347980D01*
X149996088Y-180282522D01*
X149525242Y-180244995D01*
X149130499Y-180234857D01*
X148806125Y-180241657D01*
X148499369Y-180261720D01*
X148216361Y-180294537D01*
X148031139Y-180325703D01*
X147954550Y-180341123D01*
X147892353Y-180354728D01*
X147852467Y-180364721D01*
X147842105Y-180368562D01*
X147854020Y-180377504D01*
X147892590Y-180393961D01*
X147949851Y-180414581D01*
X147958020Y-180417316D01*
X148191752Y-180508511D01*
X148394678Y-180616521D01*
X148428059Y-180637853D01*
X148491280Y-180682069D01*
X148530911Y-180715401D01*
X148544907Y-180735487D01*
X148531221Y-180739964D01*
X148512536Y-180735355D01*
X148454567Y-180721163D01*
X148368389Y-180705140D01*
X148261962Y-180688381D01*
X148143244Y-180671979D01*
X148020194Y-180657028D01*
X147900771Y-180644622D01*
X147792934Y-180635855D01*
X147784752Y-180635325D01*
X147412877Y-180628249D01*
X147048431Y-180655188D01*
X146685759Y-180716726D01*
X146462898Y-180771526D01*
X146311291Y-180816572D01*
X146157813Y-180869613D01*
X145998582Y-180932456D01*
X145829715Y-181006908D01*
X145647330Y-181094775D01*
X145447544Y-181197863D01*
X145226475Y-181317979D01*
X144980239Y-181456930D01*
X144939720Y-181480183D01*
X144684900Y-181623986D01*
X144455538Y-181747169D01*
X144248121Y-181850963D01*
X144059136Y-181936597D01*
X143885069Y-182005299D01*
X143722409Y-182058300D01*
X143567642Y-182096828D01*
X143417254Y-182122113D01*
X143267734Y-182135384D01*
X143115567Y-182137870D01*
X143063991Y-182136526D01*
X142980226Y-182134532D01*
X142911532Y-182134785D01*
X142864929Y-182137126D01*
X142847434Y-182141394D01*
X142847429Y-182141480D01*
X142860601Y-182159806D01*
X142896346Y-182195946D01*
X142949007Y-182244920D01*
X143012924Y-182301746D01*
X143082442Y-182361443D01*
X143151901Y-182419029D01*
X143215645Y-182469524D01*
X143245322Y-182491813D01*
X143322421Y-182545298D01*
X143408856Y-182600900D01*
X143479885Y-182643110D01*
X143539151Y-182677444D01*
X143570496Y-182699866D01*
X143578375Y-182714846D01*
X143567243Y-182726857D01*
X143564794Y-182728339D01*
X143541383Y-182743572D01*
X143492485Y-182776500D01*
X143422443Y-182824160D01*
X143335601Y-182883588D01*
X143236303Y-182951819D01*
X143139731Y-183018403D01*
X142942921Y-183154164D01*
X142772710Y-183271152D01*
X142625950Y-183371369D01*
X142499495Y-183456820D01*
X142390196Y-183529511D01*
X142294905Y-183591446D01*
X142210476Y-183644629D01*
X142133760Y-183691066D01*
X142061610Y-183732761D01*
X141990878Y-183771718D01*
X141918417Y-183809943D01*
X141841079Y-183849440D01*
X141811642Y-183864254D01*
X141447793Y-184026672D01*
X141071654Y-184155063D01*
X140684029Y-184249239D01*
X140285727Y-184309015D01*
X139877552Y-184334200D01*
X139785821Y-184335081D01*
X139700257Y-184336380D01*
X139630155Y-184339885D01*
X139582337Y-184345082D01*
X139563621Y-184351458D01*
X139563571Y-184351815D01*
X139575728Y-184370318D01*
X139608901Y-184408713D01*
X139658144Y-184461544D01*
X139718512Y-184523351D01*
X139723862Y-184528708D01*
X139935879Y-184717994D01*
X140179979Y-184894519D01*
X140403578Y-185029147D01*
X140588643Y-185131778D01*
X140824500Y-185087955D01*
X141251932Y-184994021D01*
X141654159Y-184875380D01*
X142033399Y-184731093D01*
X142391866Y-184560218D01*
X142731776Y-184361815D01*
X143037929Y-184148183D01*
X143126793Y-184079597D01*
X143219612Y-184005075D01*
X143320343Y-183921239D01*
X143432941Y-183824716D01*
X143561361Y-183712131D01*
X143709559Y-183580108D01*
X143818072Y-183482538D01*
X144038024Y-183288893D01*
X144239729Y-183121698D01*
X144426894Y-182978515D01*
X144603232Y-182856906D01*
X144772451Y-182754433D01*
X144938261Y-182668658D01*
X145104373Y-182597144D01*
X145238925Y-182548906D01*
X145300999Y-182531209D01*
X145336707Y-182526601D01*
X145343647Y-182534268D01*
X145319418Y-182553396D01*
X145293865Y-182567518D01*
X145241011Y-182597748D01*
X145166504Y-182644423D01*
X145077913Y-182702475D01*
X144982803Y-182766837D01*
X144888744Y-182832440D01*
X144803303Y-182894217D01*
X144779643Y-182911878D01*
X144583567Y-183071397D01*
X144388768Y-183252111D01*
X144199883Y-183448443D01*
X144021545Y-183654817D01*
X143858389Y-183865658D01*
X143715049Y-184075388D01*
X143596162Y-184278432D01*
X143528230Y-184417521D01*
X143486232Y-184491634D01*
X143425908Y-184558363D01*
X143379816Y-184597514D01*
X143212687Y-184718315D01*
X143017826Y-184838776D01*
X142803537Y-184954323D01*
X142578126Y-185060383D01*
X142421809Y-185125111D01*
X142010193Y-185266469D01*
X141583102Y-185375277D01*
X141141124Y-185451519D01*
X140684844Y-185495182D01*
X140214848Y-185506252D01*
X139731722Y-185484717D01*
X139236052Y-185430561D01*
X138728425Y-185343772D01*
X138209426Y-185224336D01*
X138204801Y-185223138D01*
X138109771Y-185198905D01*
X138027915Y-185178817D01*
X137965272Y-185164293D01*
X137927882Y-185156753D01*
X137920019Y-185156219D01*
X137928361Y-185171814D01*
X137955031Y-185210965D01*
X137996297Y-185268418D01*
X138048429Y-185338916D01*
X138071669Y-185369830D01*
X138148349Y-185465286D01*
X138245745Y-185577206D01*
X138358037Y-185699666D01*
X138479407Y-185826740D01*
X138604034Y-185952504D01*
X138726100Y-186071032D01*
X138839786Y-186176401D01*
X138939272Y-186262685D01*
X138983000Y-186297688D01*
X139060319Y-186355305D01*
X139155944Y-186423718D01*
X139257564Y-186494250D01*
X139350393Y-186556600D01*
X139427059Y-186607833D01*
X139491489Y-186652457D01*
X139538223Y-186686569D01*
X139561800Y-186706265D01*
X139563571Y-186709005D01*
X139551562Y-186734373D01*
X139517801Y-186781995D01*
X139465686Y-186847968D01*
X139398616Y-186928393D01*
X139319989Y-187019365D01*
X139233204Y-187116986D01*
X139141660Y-187217352D01*
X139048755Y-187316562D01*
X138957888Y-187410715D01*
X138912392Y-187456558D01*
X138637492Y-187718200D01*
X138366773Y-187949934D01*
X138093718Y-188156528D01*
X137811810Y-188342745D01*
X137514532Y-188513352D01*
X137352840Y-188596916D01*
X137129357Y-188700948D01*
X136890394Y-188798537D01*
X136643162Y-188887464D01*
X136394876Y-188965511D01*
X136152748Y-189030460D01*
X135923994Y-189080093D01*
X135715825Y-189112193D01*
X135657763Y-189118134D01*
X135589692Y-189125570D01*
X135534337Y-189134201D01*
X135503099Y-189142230D01*
X135502243Y-189142652D01*
X134416090Y-189142652D01*
X134241943Y-189037715D01*
X134157000Y-188982084D01*
X133893929Y-188807357D01*
X134519857Y-188796122D01*
X134755841Y-188790904D01*
X134961919Y-188783945D01*
X135144454Y-188774665D01*
X135309808Y-188762479D01*
X135464343Y-188746807D01*
X135614420Y-188727065D01*
X135766403Y-188702671D01*
X135926653Y-188673043D01*
X135980357Y-188662434D01*
X136402576Y-188560539D01*
X136806902Y-188427227D01*
X137194401Y-188261979D01*
X137566141Y-188064272D01*
X137923190Y-187833586D01*
X138266616Y-187569402D01*
X138328369Y-187517134D01*
X138400709Y-187452743D01*
X138485500Y-187373611D01*
X138577715Y-187284802D01*
X138672330Y-187191382D01*
X138764319Y-187098416D01*
X138848657Y-187010969D01*
X138920319Y-186934107D01*
X138974280Y-186872895D01*
X139000765Y-186839388D01*
X139036594Y-186789071D01*
X138927212Y-186721557D01*
X138749018Y-186598838D01*
X138559961Y-186444536D01*
X138362276Y-186260908D01*
X138158198Y-186050211D01*
X137949962Y-185814701D01*
X137739803Y-185556635D01*
X137623957Y-185405572D01*
X137529939Y-185277991D01*
X137430224Y-185138478D01*
X137330055Y-184994688D01*
X137234678Y-184854273D01*
X137149338Y-184724887D01*
X137079279Y-184614182D01*
X137061337Y-184584607D01*
X137040166Y-184545258D01*
X137037179Y-184523364D01*
X137056224Y-184517914D01*
X137101149Y-184527897D01*
X137175804Y-184552301D01*
X137179481Y-184553569D01*
X137376651Y-184617847D01*
X137602383Y-184684882D01*
X137849244Y-184752838D01*
X138109801Y-184819877D01*
X138376622Y-184884162D01*
X138642275Y-184943856D01*
X138899327Y-184997122D01*
X139140347Y-185042123D01*
X139191643Y-185050927D01*
X139254372Y-185060625D01*
X139338274Y-185072379D01*
X139435604Y-185085237D01*
X139538617Y-185098250D01*
X139639568Y-185110467D01*
X139730711Y-185120938D01*
X139804303Y-185128712D01*
X139852598Y-185132840D01*
X139862605Y-185133254D01*
X139859729Y-185124603D01*
X139832791Y-185102305D01*
X139808176Y-185085039D01*
X139635213Y-184954831D01*
X139458149Y-184794456D01*
X139281615Y-184608968D01*
X139110245Y-184403416D01*
X138948671Y-184182855D01*
X138866022Y-184057551D01*
X138799288Y-183952316D01*
X139140608Y-183964498D01*
X139563814Y-183966152D01*
X139981050Y-183941293D01*
X140389306Y-183890712D01*
X140785572Y-183815202D01*
X141166839Y-183715552D01*
X141530096Y-183592555D01*
X141872335Y-183447002D01*
X142190544Y-183279685D01*
X142481716Y-183091395D01*
X142493643Y-183082797D01*
X142567944Y-183027307D01*
X142646483Y-182965811D01*
X142724005Y-182902770D01*
X142795255Y-182842643D01*
X142854976Y-182789893D01*
X142897914Y-182748980D01*
X142918812Y-182724364D01*
X142920000Y-182720913D01*
X142906778Y-182704685D01*
X142870321Y-182669803D01*
X142815447Y-182620634D01*
X142746972Y-182561541D01*
X142706822Y-182527700D01*
X142530238Y-182375472D01*
X142368841Y-182227197D01*
X142225367Y-182085746D01*
X142102548Y-181953995D01*
X142003122Y-181834814D01*
X141929822Y-181731078D01*
X141901836Y-181682044D01*
X141864372Y-181608608D01*
X141906865Y-181620274D01*
X142205621Y-181684933D01*
X142516663Y-181719627D01*
X142831399Y-181724068D01*
X143141236Y-181697970D01*
X143321276Y-181667520D01*
X143459926Y-181636349D01*
X143600529Y-181598417D01*
X143746369Y-181552362D01*
X143900731Y-181496820D01*
X144066899Y-181430430D01*
X144248158Y-181351829D01*
X144447792Y-181259654D01*
X144669087Y-181152545D01*
X144915326Y-181029137D01*
X145146943Y-180910280D01*
X145420342Y-180769777D01*
X145666271Y-180645750D01*
X145888666Y-180536505D01*
X146091465Y-180440345D01*
X146278604Y-180355575D01*
X146454020Y-180280500D01*
X146621651Y-180213423D01*
X146785432Y-180152650D01*
X146949301Y-180096484D01*
X147117195Y-180043230D01*
X147256143Y-180001849D01*
X147626963Y-179906240D01*
X148007750Y-179832585D01*
X148407271Y-179779312D01*
X148595644Y-179761558D01*
X148732780Y-179753452D01*
X148897206Y-179749033D01*
X149080136Y-179748124D01*
X149272782Y-179750545D01*
G37*
X149272782Y-179750545D02*
X149466355Y-179756117D01*
X149652067Y-179764662D01*
X149821131Y-179776001D01*
X149959429Y-179789326D01*
X150416780Y-179854210D01*
X150881496Y-179943247D01*
X151355618Y-180057079D01*
X151841190Y-180196346D01*
X152340253Y-180361691D01*
X152854851Y-180553756D01*
X153387027Y-180773180D01*
X153938822Y-181020608D01*
X154059160Y-181077024D01*
X154367067Y-181225605D01*
X154643286Y-181365890D01*
X154890926Y-181499870D01*
X155113097Y-181629538D01*
X155312906Y-181756884D01*
X155493463Y-181883900D01*
X155657877Y-182012577D01*
X155809257Y-182144906D01*
X155950713Y-182282880D01*
X155965203Y-182297865D01*
X156086246Y-182429320D01*
X156201378Y-182566657D01*
X156313410Y-182714070D01*
X156425151Y-182875751D01*
X156539412Y-183055894D01*
X156659003Y-183258691D01*
X156786734Y-183488337D01*
X156880672Y-183663857D01*
X157057970Y-183999500D01*
X157884517Y-184552857D01*
X158188035Y-184756171D01*
X158463338Y-184940869D01*
X158712460Y-185108378D01*
X158937433Y-185260126D01*
X159140290Y-185397538D01*
X159323064Y-185522043D01*
X159487789Y-185635067D01*
X159636497Y-185738038D01*
X159771222Y-185832383D01*
X159893995Y-185919528D01*
X160006851Y-186000902D01*
X160111823Y-186077930D01*
X160210942Y-186152041D01*
X160306243Y-186224661D01*
X160399758Y-186297217D01*
X160493521Y-186371137D01*
X160589564Y-186447847D01*
X160627429Y-186478306D01*
X160821486Y-186637196D01*
X161003890Y-186791540D01*
X161172125Y-186938987D01*
X161323678Y-187077189D01*
X161456035Y-187203796D01*
X161566681Y-187316458D01*
X161653102Y-187412826D01*
X161712785Y-187490549D01*
X161716408Y-187496012D01*
X161787983Y-187637526D01*
X161829660Y-187793071D01*
X161840521Y-187954842D01*
X161819646Y-188115035D01*
X161797975Y-188189390D01*
X161731019Y-188331763D01*
X161629979Y-188475845D01*
X161496886Y-188619804D01*
X161333768Y-188761805D01*
X161142656Y-188900016D01*
X160925579Y-189032603D01*
X160776189Y-189112527D01*
X160488945Y-189246157D01*
X160215135Y-189347687D01*
X159952352Y-189417662D01*
X159698190Y-189456630D01*
X159450243Y-189465136D01*
X159275786Y-189452883D01*
X159080774Y-189424893D01*
X158875519Y-189383851D01*
X158658034Y-189329007D01*
X158426328Y-189259611D01*
X158178414Y-189174914D01*
X157912302Y-189074166D01*
X157626003Y-188956616D01*
X157317529Y-188821515D01*
X156984891Y-188668113D01*
X156626100Y-188495661D01*
X156275202Y-188321544D01*
X156138369Y-188253099D01*
X156011887Y-188190488D01*
X155899365Y-188135446D01*
X155804411Y-188089711D01*
X155730635Y-188055019D01*
X155681644Y-188033107D01*
X155661048Y-188025710D01*
X155660692Y-188025832D01*
X155666110Y-188044598D01*
X155691248Y-188086561D01*
X155732680Y-188146975D01*
X155786978Y-188221094D01*
X155850714Y-188304173D01*
X155920462Y-188391466D01*
X155955333Y-188433786D01*
X156171397Y-188668111D01*
X156403445Y-188870515D01*
X156654088Y-189042809D01*
X156925938Y-189186806D01*
X157199001Y-189296540D01*
X157398149Y-189374038D01*
X157565901Y-189457879D01*
X157706995Y-189551078D01*
X157826169Y-189656654D01*
X157903558Y-189745191D01*
X158027650Y-189929858D01*
X158121748Y-190130611D01*
X158186321Y-190349119D01*
X158221841Y-190587050D01*
X158228778Y-190846072D01*
X158227168Y-190891885D01*
X158213186Y-191100177D01*
X158190390Y-191275537D01*
X158158044Y-191420404D01*
X158115414Y-191537221D01*
X158061769Y-191628429D01*
X157996372Y-191696468D01*
X157982059Y-191707338D01*
X157929712Y-191740299D01*
X157878186Y-191759025D01*
X157811806Y-191768444D01*
X157781122Y-191770513D01*
X157704340Y-191770341D01*
X157631174Y-191758892D01*
X157553958Y-191733525D01*
X157465026Y-191691598D01*
X157356713Y-191630469D01*
X157332202Y-191615798D01*
X157268971Y-191578624D01*
X157221428Y-191555667D01*
X157176736Y-191543504D01*
X157122055Y-191538709D01*
X157044548Y-191537858D01*
X157040016Y-191537857D01*
X156834187Y-191532616D01*
X156613347Y-191517733D01*
X156388489Y-191494472D01*
X156170605Y-191464096D01*
X155970690Y-191427866D01*
X155855857Y-191401844D01*
X155579840Y-191322204D01*
X155320361Y-191224032D01*
X155072666Y-191104549D01*
X154831997Y-190960980D01*
X154593596Y-190790548D01*
X154352707Y-190590474D01*
X154159519Y-190411564D01*
X153953357Y-190218259D01*
X153763083Y-190052284D01*
X153584493Y-189910758D01*
X153413379Y-189790797D01*
X153245537Y-189689521D01*
X153076760Y-189604045D01*
X152902842Y-189531488D01*
X152844143Y-189510078D01*
X152717426Y-189467840D01*
X152603363Y-189436265D01*
X152492748Y-189413971D01*
X152376377Y-189399579D01*
X152245047Y-189391707D01*
X152089553Y-189388974D01*
X152036786Y-189388950D01*
X151863348Y-189391750D01*
X151714001Y-189400411D01*
X151577592Y-189416710D01*
X151442965Y-189442427D01*
X151298965Y-189479339D01*
X151134438Y-189529225D01*
X151112253Y-189536339D01*
X150985316Y-189578810D01*
X150871508Y-189621144D01*
X150767209Y-189665920D01*
X150668801Y-189715717D01*
X150572667Y-189773114D01*
X150475189Y-189840690D01*
X150372747Y-189921025D01*
X150261725Y-190016698D01*
X150138503Y-190130286D01*
X149999464Y-190264370D01*
X149840990Y-190421529D01*
X149768929Y-190493865D01*
X149646756Y-190616477D01*
X149526826Y-190736200D01*
X149412796Y-190849428D01*
X149308326Y-190952555D01*
X149217074Y-191041971D01*
X149142697Y-191114072D01*
X149088855Y-191165249D01*
X149075312Y-191177757D01*
X148925982Y-191313891D01*
X148906501Y-191530196D01*
X148896182Y-191748699D01*
X148901505Y-191997416D01*
X148922151Y-192273975D01*
X148957800Y-192576003D01*
X149008133Y-192901128D01*
X149072830Y-193246977D01*
X149151571Y-193611178D01*
X149231286Y-193941250D01*
X149251702Y-194024749D01*
X149267465Y-194094592D01*
X149277096Y-194143800D01*
X149279113Y-194165392D01*
X149278924Y-194165695D01*
X149262453Y-194158347D01*
X149222496Y-194133104D01*
X149164691Y-194093717D01*
X149094672Y-194043941D01*
X149079255Y-194032745D01*
X149007399Y-193981315D01*
X148946562Y-193939538D01*
X148902386Y-193911159D01*
X148880518Y-193899924D01*
X148879300Y-193900081D01*
X148883902Y-193919629D01*
X148905812Y-193966853D01*
X148943224Y-194038585D01*
X148994331Y-194131658D01*
X149057327Y-194242905D01*
X149130404Y-194369160D01*
X149211757Y-194507254D01*
X149299578Y-194654021D01*
X149392061Y-194806294D01*
X149450082Y-194900675D01*
X149524906Y-195022230D01*
X149592950Y-195133570D01*
X149652024Y-195231046D01*
X149699935Y-195311009D01*
X149734492Y-195369811D01*
X149753503Y-195403802D01*
X149756492Y-195410859D01*
X149736154Y-195407593D01*
X149687883Y-195391171D01*
X149616660Y-195363715D01*
X149527467Y-195327346D01*
X149425283Y-195284184D01*
X149315090Y-195236352D01*
X149201869Y-195185969D01*
X149090599Y-195135158D01*
X148986263Y-195086038D01*
X148932810Y-195060105D01*
X148534323Y-194851424D01*
X148169568Y-194633443D01*
X147836927Y-194405042D01*
X147534778Y-194165099D01*
X147261504Y-193912496D01*
X147234224Y-193884993D01*
X147030494Y-193664563D01*
X146858600Y-193448762D01*
X146715361Y-193232693D01*
X146597601Y-193011457D01*
X146502142Y-192780157D01*
X146484491Y-192729432D01*
X146458673Y-192655255D01*
X146440298Y-192609368D01*
X146429015Y-192593023D01*
X146424471Y-192607475D01*
X146426317Y-192653979D01*
X146434199Y-192733788D01*
X146447767Y-192848158D01*
X146448824Y-192856712D01*
X146481957Y-193102333D01*
X146519523Y-193335655D01*
X146562963Y-193562192D01*
X146613718Y-193787461D01*
X146673230Y-194016976D01*
X146742940Y-194256253D01*
X146824290Y-194510807D01*
X146918720Y-194786154D01*
X147027672Y-195087809D01*
X147042075Y-195126806D01*
X147085672Y-195245767D01*
X147124224Y-195353235D01*
X147156158Y-195444633D01*
X147179899Y-195515384D01*
X147193873Y-195560910D01*
X147196776Y-195576557D01*
X147177350Y-195572713D01*
X147130347Y-195554536D01*
X147060462Y-195524277D01*
X146972395Y-195484184D01*
X146870843Y-195436507D01*
X146760504Y-195383494D01*
X146646075Y-195327394D01*
X146532255Y-195270458D01*
X146423740Y-195214932D01*
X146325229Y-195163068D01*
X146267357Y-195131594D01*
X146140028Y-195059038D01*
X146006549Y-194979207D01*
X145874165Y-194896733D01*
X145750123Y-194816245D01*
X145641668Y-194742373D01*
X145556048Y-194679748D01*
X145538097Y-194665618D01*
X145480123Y-194619020D01*
X145524614Y-194763894D01*
X145584025Y-194940725D01*
X145659756Y-195139457D01*
X145748280Y-195351615D01*
X145846071Y-195568725D01*
X145943073Y-195769316D01*
X145976914Y-195837766D01*
X146003566Y-195893401D01*
X146019492Y-195928739D01*
X146022429Y-195937138D01*
X146017909Y-195943516D01*
X146001197Y-195944572D01*
X145967558Y-195939410D01*
X145912261Y-195927130D01*
X145830573Y-195906833D01*
X145741214Y-195883743D01*
X145306695Y-195752068D01*
X144885050Y-195587603D01*
X144478188Y-195391820D01*
X144088015Y-195166194D01*
X143716436Y-194912196D01*
X143365358Y-194631302D01*
X143036687Y-194324984D01*
X142732331Y-193994714D01*
X142454194Y-193641968D01*
X142204183Y-193268218D01*
X142078789Y-193053210D01*
X142034854Y-192972921D01*
X141998104Y-192903906D01*
X141971772Y-192852381D01*
X141959092Y-192824561D01*
X141958429Y-192821889D01*
X141944193Y-192808596D01*
X141937513Y-192807857D01*
X141929763Y-192824888D01*
X141925508Y-192871922D01*
X141924489Y-192942872D01*
X141926447Y-193031649D01*
X141931121Y-193132167D01*
X141938252Y-193238337D01*
X141947582Y-193344072D01*
X141958850Y-193443283D01*
X141967052Y-193501141D01*
X142005423Y-193717697D01*
X142056156Y-193958426D01*
X142116991Y-194214294D01*
X142185668Y-194476265D01*
X142259927Y-194735304D01*
X142337508Y-194982376D01*
X142337853Y-194983422D01*
X142365018Y-195067578D01*
X142386758Y-195138406D01*
X142401134Y-195189314D01*
X142406206Y-195213710D01*
X142405951Y-195214811D01*
X142388540Y-195208434D01*
X142346172Y-195185022D01*
X142283978Y-195147829D01*
X142207086Y-195100104D01*
X142120627Y-195045101D01*
X142029730Y-194986069D01*
X141939524Y-194926261D01*
X141855139Y-194868929D01*
X141804214Y-194833380D01*
X141480670Y-194591368D01*
X141164729Y-194329651D01*
X140861509Y-194053227D01*
X140576129Y-193767092D01*
X140313708Y-193476247D01*
X140079364Y-193185689D01*
X139984575Y-193056561D01*
X139762585Y-192716923D01*
X139575124Y-192371588D01*
X139422519Y-192021451D01*
X139305099Y-191667407D01*
X139223193Y-191310351D01*
X139177129Y-190951177D01*
X139170124Y-190838373D01*
X139159154Y-190601531D01*
X138912327Y-190578289D01*
X138603919Y-190542974D01*
X138271383Y-190493328D01*
X137923224Y-190430886D01*
X137567947Y-190357182D01*
X137214056Y-190273752D01*
X137186857Y-190266905D01*
X136626585Y-190111954D01*
X136096051Y-189937868D01*
X135593789Y-189744023D01*
X135118329Y-189529798D01*
X134668203Y-189294570D01*
X134416090Y-189142652D01*
X135502243Y-189142652D01*
X135506934Y-189154778D01*
X135542070Y-189177735D01*
X135603976Y-189209994D01*
X135688981Y-189250028D01*
X135793412Y-189296310D01*
X135913596Y-189347312D01*
X136045860Y-189401506D01*
X136186533Y-189457364D01*
X136331940Y-189513360D01*
X136478411Y-189567964D01*
X136622271Y-189619651D01*
X136759849Y-189666891D01*
X136773556Y-189671457D01*
X137121866Y-189780489D01*
X137460081Y-189872148D01*
X137797821Y-189948447D01*
X138144705Y-190011400D01*
X138510354Y-190063021D01*
X138795596Y-190094802D01*
X138907550Y-190106048D01*
X138928670Y-190000988D01*
X139021619Y-189610317D01*
X139138884Y-189240539D01*
X139279606Y-188893591D01*
X139442927Y-188571412D01*
X139627991Y-188275938D01*
X139783410Y-188069503D01*
X139839222Y-188004015D01*
X139908011Y-187927681D01*
X139983760Y-187846719D01*
X140060450Y-187767343D01*
X140132062Y-187695769D01*
X140192579Y-187638213D01*
X140235983Y-187600891D01*
X140240140Y-187597788D01*
X140258618Y-187586126D01*
X140266504Y-187587569D01*
X140262412Y-187605999D01*
X140244957Y-187645299D01*
X140212752Y-187709355D01*
X140173330Y-187785054D01*
X139983902Y-188185417D01*
X139826795Y-188602218D01*
X139702057Y-189035303D01*
X139609740Y-189484514D01*
X139597610Y-189560286D01*
X139578068Y-189721230D01*
X139564300Y-189906233D01*
X139556378Y-190105593D01*
X139554374Y-190309605D01*
X139558360Y-190508566D01*
X139568409Y-190692771D01*
X139584593Y-190852518D01*
X139587827Y-190875643D01*
X139664612Y-191277446D01*
X139775407Y-191667745D01*
X139919675Y-192044941D01*
X140096882Y-192407436D01*
X140109656Y-192430683D01*
X140248345Y-192666429D01*
X140397640Y-192889797D01*
X140562629Y-193107373D01*
X140748400Y-193325740D01*
X140960040Y-193551480D01*
X141032628Y-193624918D01*
X141129644Y-193720353D01*
X141229638Y-193815828D01*
X141329024Y-193908202D01*
X141424221Y-193994332D01*
X141511645Y-194071077D01*
X141587712Y-194135296D01*
X141648838Y-194183847D01*
X141691442Y-194213589D01*
X141711939Y-194221379D01*
X141712508Y-194220968D01*
X141711202Y-194201631D01*
X141702402Y-194154113D01*
X141687540Y-194085405D01*
X141668047Y-194002500D01*
X141666494Y-193996134D01*
X141596276Y-193633675D01*
X141561849Y-193268548D01*
X141563202Y-192902964D01*
X141600324Y-192539132D01*
X141673203Y-192179260D01*
X141676120Y-192167857D01*
X141706735Y-192054077D01*
X141737262Y-191949842D01*
X141766026Y-191860045D01*
X141791353Y-191789579D01*
X141811568Y-191743336D01*
X141824996Y-191726210D01*
X141827028Y-191726981D01*
X141837041Y-191745757D01*
X141858767Y-191791550D01*
X141889336Y-191858155D01*
X141925873Y-191939363D01*
X141939448Y-191969884D01*
X142080667Y-192269337D01*
X142239771Y-192573260D01*
X142410179Y-192869903D01*
X142585312Y-193147517D01*
X142662516Y-193261105D01*
X142840091Y-193502101D01*
X143035787Y-193743001D01*
X143243118Y-193976737D01*
X143455598Y-194196241D01*
X143666742Y-194394444D01*
X143827143Y-194530358D01*
X144080384Y-194720147D01*
X144353772Y-194900323D01*
X144637676Y-195065263D01*
X144922464Y-195209346D01*
X145178786Y-195319353D01*
X145267638Y-195353307D01*
X145327168Y-195373755D01*
X145361650Y-195380901D01*
X145375358Y-195374951D01*
X145372567Y-195356107D01*
X145359317Y-195327979D01*
X145302267Y-195204813D01*
X145243321Y-195054385D01*
X145184123Y-194883012D01*
X145126317Y-194697013D01*
X145071546Y-194502706D01*
X145021456Y-194306409D01*
X144977691Y-194114441D01*
X144941894Y-193933121D01*
X144915710Y-193768766D01*
X144900783Y-193627695D01*
X144897904Y-193554861D01*
X144897571Y-193476364D01*
X144963717Y-193563932D01*
X145198746Y-193850175D01*
X145451831Y-194109117D01*
X145728385Y-194345833D01*
X146026715Y-194560693D01*
X146097917Y-194606440D01*
X146178656Y-194655901D01*
X146263301Y-194705923D01*
X146346221Y-194753350D01*
X146421785Y-194795027D01*
X146484362Y-194827800D01*
X146528322Y-194848512D01*
X146548032Y-194854009D01*
X146548571Y-194853088D01*
X146543184Y-194834499D01*
X146528300Y-194787430D01*
X146505841Y-194717848D01*
X146477726Y-194631715D01*
X146458147Y-194572162D01*
X146300513Y-194036508D01*
X146178500Y-193493968D01*
X146092108Y-192944538D01*
X146041336Y-192388211D01*
X146027416Y-191870774D01*
X146661898Y-191870774D01*
X146672036Y-191944203D01*
X146684427Y-192018643D01*
X146756879Y-192351216D01*
X146862101Y-192668678D01*
X146999582Y-192970379D01*
X147168814Y-193255672D01*
X147369286Y-193523909D01*
X147600489Y-193774441D01*
X147861914Y-194006620D01*
X148153052Y-194219798D01*
X148473392Y-194413326D01*
X148631364Y-194496047D01*
X148703033Y-194531050D01*
X148761775Y-194558160D01*
X148800702Y-194574298D01*
X148812982Y-194577209D01*
X148807510Y-194559698D01*
X148787620Y-194517597D01*
X148756749Y-194457904D01*
X148731051Y-194410492D01*
X148596263Y-194151956D01*
X148468783Y-193880081D01*
X148352482Y-193604219D01*
X148251231Y-193333723D01*
X148168901Y-193077943D01*
X148146555Y-192998397D01*
X148120116Y-192900515D01*
X148104381Y-192835753D01*
X148101585Y-192801949D01*
X148113963Y-192796941D01*
X148143750Y-192818565D01*
X148193181Y-192864659D01*
X148239111Y-192908835D01*
X148308248Y-192973877D01*
X148383796Y-193042892D01*
X148460952Y-193111735D01*
X148534914Y-193176261D01*
X148600877Y-193232323D01*
X148654038Y-193275778D01*
X148689594Y-193302478D01*
X148702541Y-193308792D01*
X148701782Y-193289662D01*
X148694613Y-193244217D01*
X148682510Y-193181559D01*
X148679864Y-193168883D01*
X148650471Y-193013953D01*
X148621960Y-192834436D01*
X148595941Y-192642023D01*
X148574023Y-192448405D01*
X148560884Y-192304968D01*
X148554235Y-192193815D01*
X148550149Y-192062745D01*
X148548498Y-191919019D01*
X148549158Y-191769899D01*
X148552002Y-191622648D01*
X148556905Y-191484528D01*
X148563741Y-191362802D01*
X148572384Y-191264730D01*
X148579809Y-191211988D01*
X148591279Y-191160130D01*
X148607974Y-191120682D01*
X148636691Y-191083451D01*
X148684223Y-191038241D01*
X148711620Y-191014260D01*
X148748480Y-190980594D01*
X148807648Y-190924377D01*
X148885860Y-190848802D01*
X148979854Y-190757060D01*
X149086365Y-190652344D01*
X149202132Y-190537849D01*
X149323891Y-190416767D01*
X149402518Y-190338228D01*
X149566745Y-190174478D01*
X149708739Y-190034364D01*
X149831387Y-189915331D01*
X149937574Y-189814829D01*
X150030187Y-189730304D01*
X150112111Y-189659205D01*
X150186231Y-189598980D01*
X150255434Y-189547075D01*
X150322606Y-189500939D01*
X150390632Y-189458019D01*
X150412838Y-189444674D01*
X150637779Y-189328076D01*
X150887646Y-189229326D01*
X151154716Y-189150436D01*
X151431271Y-189093414D01*
X151709587Y-189060270D01*
X151920284Y-189052286D01*
X152242885Y-189069544D01*
X152567157Y-189120198D01*
X152885620Y-189202567D01*
X153190795Y-189314970D01*
X153291790Y-189360483D01*
X153413233Y-189420624D01*
X153520432Y-189480446D01*
X153620395Y-189544981D01*
X153720127Y-189619262D01*
X153826635Y-189708319D01*
X153946924Y-189817185D01*
X154009452Y-189875905D01*
X154157682Y-190014913D01*
X154286588Y-190132384D01*
X154401891Y-190233038D01*
X154509312Y-190321595D01*
X154614569Y-190402776D01*
X154723385Y-190481300D01*
X154837703Y-190559368D01*
X155149012Y-190749024D01*
X155463936Y-190903787D01*
X155785766Y-191025048D01*
X156117794Y-191114199D01*
X156182429Y-191127647D01*
X156333999Y-191154914D01*
X156486796Y-191177195D01*
X156635370Y-191194125D01*
X156774273Y-191205336D01*
X156898054Y-191210464D01*
X157001264Y-191209141D01*
X157078453Y-191201002D01*
X157115678Y-191190347D01*
X157161730Y-191158320D01*
X157189288Y-191127202D01*
X157216943Y-191084996D01*
X157346385Y-191185008D01*
X157442546Y-191255281D01*
X157535592Y-191315931D01*
X157619732Y-191363740D01*
X157689176Y-191395488D01*
X157738134Y-191407957D01*
X157746816Y-191407640D01*
X157772193Y-191394741D01*
X157793647Y-191361570D01*
X157812135Y-191304645D01*
X157828615Y-191220485D01*
X157844044Y-191105607D01*
X157853164Y-191020786D01*
X157864187Y-190784087D01*
X157848884Y-190561598D01*
X157807959Y-190356460D01*
X157742115Y-190171816D01*
X157652055Y-190010808D01*
X157616350Y-189962396D01*
X157531462Y-189874139D01*
X157422335Y-189795239D01*
X157284924Y-189723206D01*
X157121840Y-189657914D01*
X156856623Y-189551737D01*
X156611932Y-189428718D01*
X156383807Y-189285749D01*
X156168287Y-189119723D01*
X155961410Y-188927531D01*
X155759216Y-188706067D01*
X155557743Y-188452223D01*
X155519976Y-188401112D01*
X155381893Y-188213799D01*
X155261160Y-188053684D01*
X155155060Y-187917732D01*
X155060875Y-187802907D01*
X154975889Y-187706175D01*
X154897386Y-187624501D01*
X154822647Y-187554850D01*
X154748957Y-187494188D01*
X154673598Y-187439479D01*
X154637560Y-187415434D01*
X154577637Y-187374522D01*
X154534006Y-187341036D01*
X154512199Y-187319449D01*
X154512109Y-187313988D01*
X154545855Y-187311649D01*
X154607380Y-187315421D01*
X154688895Y-187324222D01*
X154782613Y-187336973D01*
X154880746Y-187352593D01*
X154975506Y-187370001D01*
X155059106Y-187388118D01*
X155075416Y-187392139D01*
X155195723Y-187424536D01*
X155317240Y-187461412D01*
X155443173Y-187504133D01*
X155576726Y-187554065D01*
X155721102Y-187612574D01*
X155879507Y-187681027D01*
X156055146Y-187760791D01*
X156251222Y-187853231D01*
X156470941Y-187959714D01*
X156717506Y-188081606D01*
X156862786Y-188154238D01*
X157140803Y-188293057D01*
X157389705Y-188415899D01*
X157612323Y-188523990D01*
X157811490Y-188618559D01*
X157990036Y-188700832D01*
X158150795Y-188772037D01*
X158296598Y-188833401D01*
X158430277Y-188886153D01*
X158554664Y-188931518D01*
X158672590Y-188970726D01*
X158786888Y-189005002D01*
X158890020Y-189032914D01*
X159085418Y-189078200D01*
X159260426Y-189106972D01*
X159426269Y-189120531D01*
X159594168Y-189120176D01*
X159629571Y-189118518D01*
X159758584Y-189108973D01*
X159874280Y-189093724D01*
X159988502Y-189070391D01*
X160113090Y-189036591D01*
X160246075Y-188994526D01*
X160348428Y-188956235D01*
X160470047Y-188903745D01*
X160601552Y-188841751D01*
X160733562Y-188774949D01*
X160856694Y-188708037D01*
X160961569Y-188645709D01*
X161018029Y-188608084D01*
X161141460Y-188507350D01*
X161255921Y-188390125D01*
X161352567Y-188266350D01*
X161414659Y-188162305D01*
X161449640Y-188087538D01*
X161469559Y-188028128D01*
X161478389Y-187968540D01*
X161480143Y-187906245D01*
X161476220Y-187828523D01*
X161462174Y-187759842D01*
X161434590Y-187694344D01*
X161390050Y-187626170D01*
X161325139Y-187549461D01*
X161236441Y-187458360D01*
X161196007Y-187418961D01*
X160847024Y-187091587D01*
X160512686Y-186797127D01*
X160192764Y-186535396D01*
X159887033Y-186306210D01*
X159595266Y-186109384D01*
X159558328Y-186086150D01*
X159478013Y-186036066D01*
X159512982Y-186088212D01*
X159649705Y-186292514D01*
X159766478Y-186467936D01*
X159863948Y-186615473D01*
X159942763Y-186736119D01*
X160003567Y-186830870D01*
X160047009Y-186900720D01*
X160073733Y-186946663D01*
X160082619Y-186964594D01*
X160097753Y-187014476D01*
X160092758Y-187057595D01*
X160083795Y-187081494D01*
X160068350Y-187124611D01*
X160047462Y-187191139D01*
X160024750Y-187269350D01*
X160015905Y-187301500D01*
X159996535Y-187378408D01*
X159984305Y-187444547D01*
X159978093Y-187511790D01*
X159976779Y-187592012D01*
X159979061Y-187691572D01*
X159983966Y-187800330D01*
X159991777Y-187884061D01*
X160004197Y-187954003D01*
X160022929Y-188021394D01*
X160034063Y-188054429D01*
X160081772Y-188190500D01*
X160025071Y-188239648D01*
X159929349Y-188302747D01*
X159805503Y-188353173D01*
X159659934Y-188389419D01*
X159499044Y-188409979D01*
X159329235Y-188413345D01*
X159293929Y-188411776D01*
X159161229Y-188400654D01*
X159022818Y-188381309D01*
X158876776Y-188352997D01*
X158721185Y-188314976D01*
X158554129Y-188266504D01*
X158373688Y-188206836D01*
X158177945Y-188135232D01*
X157964981Y-188050947D01*
X157732880Y-187953240D01*
X157479723Y-187841367D01*
X157203591Y-187714585D01*
X156902568Y-187572153D01*
X156574735Y-187413328D01*
X156218175Y-187237365D01*
X156068362Y-187162658D01*
X155747892Y-187004453D01*
X155456014Y-186864716D01*
X155190617Y-186742575D01*
X154949591Y-186637161D01*
X154730824Y-186547602D01*
X154532206Y-186473028D01*
X154351625Y-186412569D01*
X154186970Y-186365353D01*
X154065079Y-186336485D01*
X153988987Y-186320799D01*
X153922747Y-186308811D01*
X153859545Y-186300017D01*
X153792562Y-186293910D01*
X153714981Y-186289987D01*
X153619987Y-186287740D01*
X153500763Y-186286666D01*
X153388429Y-186286320D01*
X153245829Y-186286327D01*
X153133496Y-186287203D01*
X153045411Y-186289345D01*
X152975557Y-186293150D01*
X152917918Y-186299016D01*
X152866477Y-186307340D01*
X152815216Y-186318520D01*
X152784145Y-186326227D01*
X152550313Y-186400569D01*
X152336050Y-186498621D01*
X152145399Y-186618170D01*
X151982405Y-186757006D01*
X151966361Y-186773337D01*
X151859406Y-186884214D01*
X152010049Y-186893286D01*
X152160692Y-186902357D01*
X152156597Y-187040271D01*
X152163768Y-187173175D01*
X152194841Y-187301253D01*
X152251968Y-187428971D01*
X152337303Y-187560798D01*
X152452999Y-187701200D01*
X152499271Y-187751301D01*
X152608657Y-187861496D01*
X152724096Y-187966294D01*
X152849256Y-188068186D01*
X152987802Y-188169664D01*
X153143400Y-188273217D01*
X153319718Y-188381337D01*
X153520420Y-188496515D01*
X153749175Y-188621241D01*
X153887325Y-188694315D01*
X154154396Y-188838513D01*
X154392319Y-188976838D01*
X154606729Y-189113764D01*
X154803257Y-189253761D01*
X154987538Y-189401301D01*
X155165202Y-189560858D01*
X155341885Y-189736902D01*
X155523217Y-189933906D01*
X155686512Y-190122715D01*
X155804318Y-190260256D01*
X155904903Y-190372799D01*
X155992832Y-190464362D01*
X156072669Y-190538964D01*
X156148978Y-190600625D01*
X156226325Y-190653362D01*
X156309273Y-190701195D01*
X156390112Y-190742223D01*
X156456420Y-190776136D01*
X156490248Y-190798252D01*
X156491071Y-190808977D01*
X156458364Y-190808715D01*
X156391604Y-190797872D01*
X156333293Y-190786100D01*
X156041405Y-190706566D01*
X155764448Y-190594373D01*
X155504171Y-190450353D01*
X155266214Y-190278520D01*
X155227921Y-190245250D01*
X155168449Y-190191057D01*
X155092556Y-190120395D01*
X155004997Y-190037719D01*
X154910531Y-189947482D01*
X154839857Y-189879313D01*
X154669915Y-189717193D01*
X154518612Y-189578582D01*
X154381037Y-189459381D01*
X154252277Y-189355494D01*
X154127423Y-189262823D01*
X154001562Y-189177271D01*
X153987092Y-189167891D01*
X153604612Y-188942013D01*
X153210036Y-188749867D01*
X152804642Y-188591832D01*
X152389707Y-188468291D01*
X151966508Y-188379623D01*
X151536322Y-188326209D01*
X151102429Y-188308429D01*
X150683478Y-188325472D01*
X150276034Y-188376470D01*
X149880806Y-188461228D01*
X149498501Y-188579550D01*
X149129829Y-188731240D01*
X148775497Y-188916103D01*
X148665826Y-188981879D01*
X148595001Y-189026752D01*
X148519728Y-189076106D01*
X148446154Y-189125699D01*
X148380428Y-189171287D01*
X148328700Y-189208625D01*
X148297117Y-189233469D01*
X148290286Y-189241086D01*
X148306681Y-189240877D01*
X148350066Y-189235289D01*
X148411734Y-189225479D01*
X148424759Y-189223240D01*
X148584553Y-189199488D01*
X148754548Y-189181247D01*
X148923098Y-189169360D01*
X149078554Y-189164669D01*
X149197429Y-189167286D01*
X149288142Y-189175269D01*
X149385476Y-189188458D01*
X149481530Y-189205247D01*
X149568406Y-189224033D01*
X149638207Y-189243210D01*
X149683033Y-189261174D01*
X149692374Y-189267831D01*
X149685174Y-189283869D01*
X149653058Y-189314277D01*
X149601764Y-189354008D01*
X149566031Y-189378967D01*
X149419887Y-189482977D01*
X149261581Y-189606324D01*
X149088717Y-189751040D01*
X148898899Y-189919157D01*
X148689731Y-190112706D01*
X148598492Y-190199245D01*
X148380135Y-190406524D01*
X148183514Y-190590481D01*
X148005214Y-190753945D01*
X147841819Y-190899749D01*
X147689913Y-191030723D01*
X147546082Y-191149698D01*
X147406909Y-191259506D01*
X147268979Y-191362977D01*
X147128876Y-191462944D01*
X146983185Y-191562236D01*
X146843393Y-191654055D01*
X146763882Y-191705446D01*
X146709653Y-191744382D01*
X146677030Y-191779295D01*
X146662337Y-191818615D01*
X146661898Y-191870774D01*
X146027416Y-191870774D01*
X146026184Y-191824981D01*
X146046652Y-191254845D01*
X146102739Y-190677796D01*
X146194445Y-190093828D01*
X146224037Y-189941286D01*
X146249173Y-189822591D01*
X146278723Y-189692974D01*
X146311451Y-189556958D01*
X146346120Y-189419065D01*
X146381495Y-189283816D01*
X146416339Y-189155733D01*
X146449418Y-189039338D01*
X146479494Y-188939153D01*
X146505333Y-188859700D01*
X146525697Y-188805499D01*
X146539351Y-188781074D01*
X146541418Y-188780143D01*
X146558466Y-188791596D01*
X146593576Y-188821415D01*
X146632803Y-188857250D01*
X146753505Y-188958613D01*
X146894236Y-189057318D01*
X147039630Y-189142720D01*
X147060654Y-189153604D01*
X147120216Y-189183318D01*
X147166200Y-189205254D01*
X147190008Y-189215331D01*
X147191237Y-189215572D01*
X147188484Y-189200628D01*
X147173158Y-189161326D01*
X147148512Y-189105959D01*
X147146748Y-189102179D01*
X147099278Y-188992162D01*
X147063974Y-188887566D01*
X147039248Y-188779838D01*
X147023508Y-188660421D01*
X147015164Y-188520762D01*
X147012706Y-188381000D01*
X147013071Y-188270042D01*
X147015031Y-188165116D01*
X147018313Y-188074377D01*
X147022647Y-188005982D01*
X147026207Y-187975495D01*
X147041200Y-187887491D01*
X147189493Y-187818446D01*
X147442997Y-187714406D01*
X147725396Y-187623884D01*
X148031574Y-187547748D01*
X148356417Y-187486862D01*
X148694810Y-187442092D01*
X149041639Y-187414306D01*
X149391790Y-187404369D01*
X149614714Y-187407758D01*
X149728389Y-187412406D01*
X149852702Y-187419065D01*
X149982128Y-187427276D01*
X150111141Y-187436580D01*
X150234216Y-187446520D01*
X150345826Y-187456636D01*
X150440447Y-187466470D01*
X150512552Y-187475564D01*
X150556615Y-187483459D01*
X150566219Y-187486708D01*
X150575556Y-187488946D01*
X150567214Y-187479727D01*
X150543399Y-187464922D01*
X150494796Y-187439998D01*
X150429926Y-187409228D01*
X150394857Y-187393342D01*
X150080016Y-187238271D01*
X149781324Y-187061947D01*
X149503888Y-186867875D01*
X149252813Y-186659554D01*
X149081508Y-186492532D01*
X148950347Y-186346638D01*
X148843588Y-186208754D01*
X148754166Y-186068825D01*
X148675017Y-185916795D01*
X148670964Y-185908187D01*
X148601327Y-185736233D01*
X148558759Y-185570701D01*
X148540117Y-185397919D01*
X148538662Y-185333000D01*
X148554127Y-185138992D01*
X148602450Y-184957387D01*
X148684532Y-184786017D01*
X148801273Y-184622715D01*
X148861693Y-184555130D01*
X149031223Y-184398242D01*
X149222618Y-184263005D01*
X149439464Y-184147253D01*
X149685347Y-184048825D01*
X149720336Y-184036953D01*
X149900327Y-183981543D01*
X150080249Y-183935884D01*
X150266948Y-183898846D01*
X150467271Y-183869302D01*
X150688066Y-183846121D01*
X150936179Y-183828173D01*
X151011714Y-183823920D01*
X151419929Y-183802163D01*
X151292929Y-183743237D01*
X151050174Y-183645457D01*
X150802836Y-183574110D01*
X150558604Y-183531036D01*
X150351659Y-183517977D01*
X150186214Y-183517240D01*
X150216325Y-183491500D01*
X153580397Y-183491500D01*
X153724806Y-183513523D01*
X153879880Y-183546743D01*
X154046945Y-183599156D01*
X154217284Y-183666766D01*
X154382180Y-183745579D01*
X154532915Y-183831602D01*
X154660773Y-183920840D01*
X154715815Y-183967641D01*
X154739038Y-183986838D01*
X154764534Y-183999831D01*
X154799901Y-184008046D01*
X154852733Y-184012905D01*
X154930627Y-184015834D01*
X154978887Y-184016967D01*
X155141064Y-184027163D01*
X155298315Y-184052010D01*
X155460414Y-184093753D01*
X155637135Y-184154637D01*
X155719786Y-184187151D01*
X155807074Y-184222265D01*
X155866213Y-184245053D01*
X155902528Y-184257194D01*
X155921344Y-184260366D01*
X155927987Y-184256246D01*
X155928429Y-184252897D01*
X155919780Y-184228046D01*
X155896242Y-184178798D01*
X155861428Y-184111969D01*
X155818949Y-184034377D01*
X155772420Y-183952839D01*
X155743465Y-183903865D01*
X155587226Y-183666359D01*
X155415951Y-183447746D01*
X155233432Y-183251942D01*
X155043463Y-183082859D01*
X154849835Y-182944412D01*
X154765908Y-182895007D01*
X154707852Y-182864962D01*
X154644154Y-182834863D01*
X154583037Y-182808197D01*
X154532722Y-182788449D01*
X154501432Y-182779107D01*
X154495187Y-182780198D01*
X154502804Y-182796895D01*
X154523304Y-182838929D01*
X154553221Y-182899240D01*
X154576830Y-182946407D01*
X154620160Y-183034728D01*
X154646208Y-183096411D01*
X154654871Y-183136781D01*
X154646047Y-183161160D01*
X154619633Y-183174873D01*
X154575527Y-183183244D01*
X154572250Y-183183702D01*
X154388976Y-183214243D01*
X154205791Y-183254349D01*
X154030866Y-183301711D01*
X153872369Y-183354022D01*
X153738469Y-183408974D01*
X153690489Y-183432840D01*
X153580397Y-183491500D01*
X150216325Y-183491500D01*
X150248814Y-183463728D01*
X150332010Y-183407673D01*
X150445169Y-183353821D01*
X150581970Y-183304108D01*
X150736090Y-183260473D01*
X150901208Y-183224854D01*
X151071002Y-183199187D01*
X151133285Y-183192643D01*
X151288974Y-183184438D01*
X151456459Y-183186097D01*
X151622345Y-183196920D01*
X151773233Y-183216208D01*
X151842823Y-183229686D01*
X151891506Y-183239439D01*
X151922071Y-183243358D01*
X151926885Y-183242652D01*
X151936895Y-183225705D01*
X151960667Y-183185201D01*
X151993645Y-183128909D01*
X152004419Y-183110500D01*
X152139082Y-182915427D01*
X152304199Y-182736413D01*
X152496564Y-182575959D01*
X152712975Y-182436567D01*
X152950225Y-182320738D01*
X153080000Y-182270919D01*
X153160177Y-182244451D01*
X153237455Y-182221670D01*
X153298309Y-182206489D01*
X153311322Y-182204004D01*
X153358283Y-182193283D01*
X153385605Y-182181511D01*
X153388429Y-182177361D01*
X153376958Y-182145830D01*
X153345901Y-182094328D01*
X153300291Y-182029543D01*
X153245162Y-181958159D01*
X153185545Y-181886863D01*
X153126474Y-181822341D01*
X153104823Y-181800606D01*
X152970802Y-181669998D01*
X153066223Y-181697943D01*
X153383356Y-181797631D01*
X153695326Y-181908887D01*
X153995489Y-182028948D01*
X154277197Y-182155054D01*
X154533804Y-182284443D01*
X154690380Y-182372782D01*
X154903501Y-182506781D01*
X155094551Y-182644097D01*
X155269450Y-182790328D01*
X155434114Y-182951068D01*
X155594462Y-183131917D01*
X155756412Y-183338470D01*
X155854456Y-183473735D01*
X155972443Y-183636994D01*
X156076455Y-183772396D01*
X156170213Y-183883762D01*
X156257437Y-183974912D01*
X156341847Y-184049667D01*
X156427164Y-184111848D01*
X156517109Y-184165277D01*
X156539096Y-184176860D01*
X156610585Y-184212720D01*
X156671126Y-184241210D01*
X156712868Y-184258741D01*
X156726585Y-184262572D01*
X156729136Y-184250136D01*
X156712086Y-184218393D01*
X156694837Y-184194536D01*
X156623505Y-184097073D01*
X156536864Y-183967922D01*
X156434731Y-183806800D01*
X156316923Y-183613425D01*
X156282019Y-183555000D01*
X156152287Y-183340310D01*
X156034918Y-183153691D01*
X155926503Y-182990536D01*
X155823632Y-182846235D01*
X155722896Y-182716182D01*
X155620887Y-182595767D01*
X155514197Y-182480384D01*
X155408696Y-182374441D01*
X155257651Y-182233959D01*
X155102856Y-182104095D01*
X154940110Y-181982284D01*
X154765209Y-181865963D01*
X154573951Y-181752569D01*
X154362133Y-181639540D01*
X154125551Y-181524310D01*
X153860003Y-181404318D01*
X153716318Y-181342273D01*
X153131636Y-181103607D01*
X152566542Y-180894478D01*
X152019927Y-180714618D01*
X151490682Y-180563761D01*
X150977700Y-180441637D01*
X150479871Y-180347980D01*
X149996088Y-180282522D01*
X149525242Y-180244995D01*
X149130499Y-180234857D01*
X148806125Y-180241657D01*
X148499369Y-180261720D01*
X148216361Y-180294537D01*
X148031139Y-180325703D01*
X147954550Y-180341123D01*
X147892353Y-180354728D01*
X147852467Y-180364721D01*
X147842105Y-180368562D01*
X147854020Y-180377504D01*
X147892590Y-180393961D01*
X147949851Y-180414581D01*
X147958020Y-180417316D01*
X148191752Y-180508511D01*
X148394678Y-180616521D01*
X148428059Y-180637853D01*
X148491280Y-180682069D01*
X148530911Y-180715401D01*
X148544907Y-180735487D01*
X148531221Y-180739964D01*
X148512536Y-180735355D01*
X148454567Y-180721163D01*
X148368389Y-180705140D01*
X148261962Y-180688381D01*
X148143244Y-180671979D01*
X148020194Y-180657028D01*
X147900771Y-180644622D01*
X147792934Y-180635855D01*
X147784752Y-180635325D01*
X147412877Y-180628249D01*
X147048431Y-180655188D01*
X146685759Y-180716726D01*
X146462898Y-180771526D01*
X146311291Y-180816572D01*
X146157813Y-180869613D01*
X145998582Y-180932456D01*
X145829715Y-181006908D01*
X145647330Y-181094775D01*
X145447544Y-181197863D01*
X145226475Y-181317979D01*
X144980239Y-181456930D01*
X144939720Y-181480183D01*
X144684900Y-181623986D01*
X144455538Y-181747169D01*
X144248121Y-181850963D01*
X144059136Y-181936597D01*
X143885069Y-182005299D01*
X143722409Y-182058300D01*
X143567642Y-182096828D01*
X143417254Y-182122113D01*
X143267734Y-182135384D01*
X143115567Y-182137870D01*
X143063991Y-182136526D01*
X142980226Y-182134532D01*
X142911532Y-182134785D01*
X142864929Y-182137126D01*
X142847434Y-182141394D01*
X142847429Y-182141480D01*
X142860601Y-182159806D01*
X142896346Y-182195946D01*
X142949007Y-182244920D01*
X143012924Y-182301746D01*
X143082442Y-182361443D01*
X143151901Y-182419029D01*
X143215645Y-182469524D01*
X143245322Y-182491813D01*
X143322421Y-182545298D01*
X143408856Y-182600900D01*
X143479885Y-182643110D01*
X143539151Y-182677444D01*
X143570496Y-182699866D01*
X143578375Y-182714846D01*
X143567243Y-182726857D01*
X143564794Y-182728339D01*
X143541383Y-182743572D01*
X143492485Y-182776500D01*
X143422443Y-182824160D01*
X143335601Y-182883588D01*
X143236303Y-182951819D01*
X143139731Y-183018403D01*
X142942921Y-183154164D01*
X142772710Y-183271152D01*
X142625950Y-183371369D01*
X142499495Y-183456820D01*
X142390196Y-183529511D01*
X142294905Y-183591446D01*
X142210476Y-183644629D01*
X142133760Y-183691066D01*
X142061610Y-183732761D01*
X141990878Y-183771718D01*
X141918417Y-183809943D01*
X141841079Y-183849440D01*
X141811642Y-183864254D01*
X141447793Y-184026672D01*
X141071654Y-184155063D01*
X140684029Y-184249239D01*
X140285727Y-184309015D01*
X139877552Y-184334200D01*
X139785821Y-184335081D01*
X139700257Y-184336380D01*
X139630155Y-184339885D01*
X139582337Y-184345082D01*
X139563621Y-184351458D01*
X139563571Y-184351815D01*
X139575728Y-184370318D01*
X139608901Y-184408713D01*
X139658144Y-184461544D01*
X139718512Y-184523351D01*
X139723862Y-184528708D01*
X139935879Y-184717994D01*
X140179979Y-184894519D01*
X140403578Y-185029147D01*
X140588643Y-185131778D01*
X140824500Y-185087955D01*
X141251932Y-184994021D01*
X141654159Y-184875380D01*
X142033399Y-184731093D01*
X142391866Y-184560218D01*
X142731776Y-184361815D01*
X143037929Y-184148183D01*
X143126793Y-184079597D01*
X143219612Y-184005075D01*
X143320343Y-183921239D01*
X143432941Y-183824716D01*
X143561361Y-183712131D01*
X143709559Y-183580108D01*
X143818072Y-183482538D01*
X144038024Y-183288893D01*
X144239729Y-183121698D01*
X144426894Y-182978515D01*
X144603232Y-182856906D01*
X144772451Y-182754433D01*
X144938261Y-182668658D01*
X145104373Y-182597144D01*
X145238925Y-182548906D01*
X145300999Y-182531209D01*
X145336707Y-182526601D01*
X145343647Y-182534268D01*
X145319418Y-182553396D01*
X145293865Y-182567518D01*
X145241011Y-182597748D01*
X145166504Y-182644423D01*
X145077913Y-182702475D01*
X144982803Y-182766837D01*
X144888744Y-182832440D01*
X144803303Y-182894217D01*
X144779643Y-182911878D01*
X144583567Y-183071397D01*
X144388768Y-183252111D01*
X144199883Y-183448443D01*
X144021545Y-183654817D01*
X143858389Y-183865658D01*
X143715049Y-184075388D01*
X143596162Y-184278432D01*
X143528230Y-184417521D01*
X143486232Y-184491634D01*
X143425908Y-184558363D01*
X143379816Y-184597514D01*
X143212687Y-184718315D01*
X143017826Y-184838776D01*
X142803537Y-184954323D01*
X142578126Y-185060383D01*
X142421809Y-185125111D01*
X142010193Y-185266469D01*
X141583102Y-185375277D01*
X141141124Y-185451519D01*
X140684844Y-185495182D01*
X140214848Y-185506252D01*
X139731722Y-185484717D01*
X139236052Y-185430561D01*
X138728425Y-185343772D01*
X138209426Y-185224336D01*
X138204801Y-185223138D01*
X138109771Y-185198905D01*
X138027915Y-185178817D01*
X137965272Y-185164293D01*
X137927882Y-185156753D01*
X137920019Y-185156219D01*
X137928361Y-185171814D01*
X137955031Y-185210965D01*
X137996297Y-185268418D01*
X138048429Y-185338916D01*
X138071669Y-185369830D01*
X138148349Y-185465286D01*
X138245745Y-185577206D01*
X138358037Y-185699666D01*
X138479407Y-185826740D01*
X138604034Y-185952504D01*
X138726100Y-186071032D01*
X138839786Y-186176401D01*
X138939272Y-186262685D01*
X138983000Y-186297688D01*
X139060319Y-186355305D01*
X139155944Y-186423718D01*
X139257564Y-186494250D01*
X139350393Y-186556600D01*
X139427059Y-186607833D01*
X139491489Y-186652457D01*
X139538223Y-186686569D01*
X139561800Y-186706265D01*
X139563571Y-186709005D01*
X139551562Y-186734373D01*
X139517801Y-186781995D01*
X139465686Y-186847968D01*
X139398616Y-186928393D01*
X139319989Y-187019365D01*
X139233204Y-187116986D01*
X139141660Y-187217352D01*
X139048755Y-187316562D01*
X138957888Y-187410715D01*
X138912392Y-187456558D01*
X138637492Y-187718200D01*
X138366773Y-187949934D01*
X138093718Y-188156528D01*
X137811810Y-188342745D01*
X137514532Y-188513352D01*
X137352840Y-188596916D01*
X137129357Y-188700948D01*
X136890394Y-188798537D01*
X136643162Y-188887464D01*
X136394876Y-188965511D01*
X136152748Y-189030460D01*
X135923994Y-189080093D01*
X135715825Y-189112193D01*
X135657763Y-189118134D01*
X135589692Y-189125570D01*
X135534337Y-189134201D01*
X135503099Y-189142230D01*
X135502243Y-189142652D01*
X134416090Y-189142652D01*
X134241943Y-189037715D01*
X134157000Y-188982084D01*
X133893929Y-188807357D01*
X134519857Y-188796122D01*
X134755841Y-188790904D01*
X134961919Y-188783945D01*
X135144454Y-188774665D01*
X135309808Y-188762479D01*
X135464343Y-188746807D01*
X135614420Y-188727065D01*
X135766403Y-188702671D01*
X135926653Y-188673043D01*
X135980357Y-188662434D01*
X136402576Y-188560539D01*
X136806902Y-188427227D01*
X137194401Y-188261979D01*
X137566141Y-188064272D01*
X137923190Y-187833586D01*
X138266616Y-187569402D01*
X138328369Y-187517134D01*
X138400709Y-187452743D01*
X138485500Y-187373611D01*
X138577715Y-187284802D01*
X138672330Y-187191382D01*
X138764319Y-187098416D01*
X138848657Y-187010969D01*
X138920319Y-186934107D01*
X138974280Y-186872895D01*
X139000765Y-186839388D01*
X139036594Y-186789071D01*
X138927212Y-186721557D01*
X138749018Y-186598838D01*
X138559961Y-186444536D01*
X138362276Y-186260908D01*
X138158198Y-186050211D01*
X137949962Y-185814701D01*
X137739803Y-185556635D01*
X137623957Y-185405572D01*
X137529939Y-185277991D01*
X137430224Y-185138478D01*
X137330055Y-184994688D01*
X137234678Y-184854273D01*
X137149338Y-184724887D01*
X137079279Y-184614182D01*
X137061337Y-184584607D01*
X137040166Y-184545258D01*
X137037179Y-184523364D01*
X137056224Y-184517914D01*
X137101149Y-184527897D01*
X137175804Y-184552301D01*
X137179481Y-184553569D01*
X137376651Y-184617847D01*
X137602383Y-184684882D01*
X137849244Y-184752838D01*
X138109801Y-184819877D01*
X138376622Y-184884162D01*
X138642275Y-184943856D01*
X138899327Y-184997122D01*
X139140347Y-185042123D01*
X139191643Y-185050927D01*
X139254372Y-185060625D01*
X139338274Y-185072379D01*
X139435604Y-185085237D01*
X139538617Y-185098250D01*
X139639568Y-185110467D01*
X139730711Y-185120938D01*
X139804303Y-185128712D01*
X139852598Y-185132840D01*
X139862605Y-185133254D01*
X139859729Y-185124603D01*
X139832791Y-185102305D01*
X139808176Y-185085039D01*
X139635213Y-184954831D01*
X139458149Y-184794456D01*
X139281615Y-184608968D01*
X139110245Y-184403416D01*
X138948671Y-184182855D01*
X138866022Y-184057551D01*
X138799288Y-183952316D01*
X139140608Y-183964498D01*
X139563814Y-183966152D01*
X139981050Y-183941293D01*
X140389306Y-183890712D01*
X140785572Y-183815202D01*
X141166839Y-183715552D01*
X141530096Y-183592555D01*
X141872335Y-183447002D01*
X142190544Y-183279685D01*
X142481716Y-183091395D01*
X142493643Y-183082797D01*
X142567944Y-183027307D01*
X142646483Y-182965811D01*
X142724005Y-182902770D01*
X142795255Y-182842643D01*
X142854976Y-182789893D01*
X142897914Y-182748980D01*
X142918812Y-182724364D01*
X142920000Y-182720913D01*
X142906778Y-182704685D01*
X142870321Y-182669803D01*
X142815447Y-182620634D01*
X142746972Y-182561541D01*
X142706822Y-182527700D01*
X142530238Y-182375472D01*
X142368841Y-182227197D01*
X142225367Y-182085746D01*
X142102548Y-181953995D01*
X142003122Y-181834814D01*
X141929822Y-181731078D01*
X141901836Y-181682044D01*
X141864372Y-181608608D01*
X141906865Y-181620274D01*
X142205621Y-181684933D01*
X142516663Y-181719627D01*
X142831399Y-181724068D01*
X143141236Y-181697970D01*
X143321276Y-181667520D01*
X143459926Y-181636349D01*
X143600529Y-181598417D01*
X143746369Y-181552362D01*
X143900731Y-181496820D01*
X144066899Y-181430430D01*
X144248158Y-181351829D01*
X144447792Y-181259654D01*
X144669087Y-181152545D01*
X144915326Y-181029137D01*
X145146943Y-180910280D01*
X145420342Y-180769777D01*
X145666271Y-180645750D01*
X145888666Y-180536505D01*
X146091465Y-180440345D01*
X146278604Y-180355575D01*
X146454020Y-180280500D01*
X146621651Y-180213423D01*
X146785432Y-180152650D01*
X146949301Y-180096484D01*
X147117195Y-180043230D01*
X147256143Y-180001849D01*
X147626963Y-179906240D01*
X148007750Y-179832585D01*
X148407271Y-179779312D01*
X148595644Y-179761558D01*
X148732780Y-179753452D01*
X148897206Y-179749033D01*
X149080136Y-179748124D01*
X149272782Y-179750545D01*
D12*
X297500000Y-147800000D03*
X297500000Y-152200000D03*
D13*
X294900000Y-148400000D03*
X294900000Y-149200000D03*
X294900000Y-150000000D03*
X294900000Y-150800000D03*
X294900000Y-151600000D03*
D14*
X294900000Y-145600000D03*
X294900000Y-154400000D03*
X300400000Y-145600000D03*
X300400000Y-154400000D03*
D15*
X281310000Y-164500000D03*
X276310000Y-164500000D03*
D16*
X265000000Y-152540000D03*
X265000000Y-150000000D03*
D17*
X265000000Y-147460000D03*
D18*
X281660000Y-150000000D03*
D19*
X213770000Y-151000000D03*
D20*
X211230000Y-151000000D03*
D19*
X212650000Y-92760000D03*
D20*
X215190000Y-92760000D03*
D19*
X212650000Y-87680000D03*
D20*
X215190000Y-87680000D03*
D15*
X265000000Y-167000000D03*
D21*
X265000000Y-164500000D03*
D19*
X184810000Y-202680000D03*
D20*
X187350000Y-202680000D03*
D19*
X179730000Y-202680000D03*
D20*
X182270000Y-202680000D03*
D22*
X224110000Y-77500000D03*
D23*
X219030000Y-77500000D03*
D22*
X205110000Y-77500000D03*
D23*
X200030000Y-77500000D03*
D22*
X186110000Y-77500000D03*
D23*
X181030000Y-77500000D03*
D24*
X217730000Y-81000000D03*
D15*
X225350000Y-81000000D03*
D24*
X198760000Y-81000000D03*
D15*
X206380000Y-81000000D03*
D24*
X179760000Y-81000000D03*
D15*
X187380000Y-81000000D03*
D22*
X224110000Y-192500000D03*
D23*
X219030000Y-192500000D03*
D22*
X205110000Y-192500000D03*
D23*
X200030000Y-192500000D03*
D22*
X186110000Y-192500000D03*
D23*
X181030000Y-192500000D03*
D24*
X217730000Y-196000000D03*
D15*
X225350000Y-196000000D03*
D24*
X198730000Y-196000000D03*
D15*
X206350000Y-196000000D03*
D23*
X225000000Y-167132000D03*
D22*
X225000000Y-162052000D03*
D24*
X215500000Y-162052000D03*
D15*
X215500000Y-169672000D03*
D25*
X212650000Y-75920000D03*
D26*
X212650000Y-81000000D03*
X212650000Y-78460000D03*
D25*
X193650000Y-75920000D03*
D26*
X193650000Y-81000000D03*
X193650000Y-78460000D03*
D25*
X174650000Y-75920000D03*
D26*
X174650000Y-81000000D03*
X174650000Y-78460000D03*
D25*
X212650000Y-190920000D03*
D26*
X212650000Y-196000000D03*
X212650000Y-193460000D03*
D25*
X193650000Y-190920000D03*
D26*
X193650000Y-196000000D03*
X193650000Y-193460000D03*
D25*
X220750000Y-167132000D03*
D26*
X220750000Y-162052000D03*
X220750000Y-164592000D03*
D19*
X225350000Y-87680000D03*
D20*
X222810000Y-87680000D03*
D19*
X225350000Y-92760000D03*
D20*
X222810000Y-92760000D03*
D19*
X225350000Y-97840000D03*
D20*
X222810000Y-97840000D03*
D19*
X225350000Y-102920000D03*
D20*
X222810000Y-102920000D03*
D19*
X225350000Y-108000000D03*
D20*
X222810000Y-108000000D03*
D19*
X220270000Y-108000000D03*
D20*
X217730000Y-108000000D03*
D19*
X212650000Y-108000000D03*
D20*
X215190000Y-108000000D03*
D19*
X212650000Y-102920000D03*
D20*
X215190000Y-102920000D03*
D19*
X212650000Y-97840000D03*
D20*
X215190000Y-97840000D03*
D19*
X206350000Y-108000000D03*
D20*
X203810000Y-108000000D03*
D19*
X196190000Y-108000000D03*
D20*
X193650000Y-108000000D03*
D19*
X201270000Y-108000000D03*
D20*
X198730000Y-108000000D03*
D19*
X201270000Y-102920000D03*
D20*
X198730000Y-102920000D03*
D19*
X201270000Y-97840000D03*
D20*
X198730000Y-97840000D03*
D19*
X201270000Y-92760000D03*
D20*
X198730000Y-92760000D03*
D19*
X206350000Y-87680000D03*
D20*
X203810000Y-87680000D03*
D19*
X201270000Y-87680000D03*
D20*
X198730000Y-87680000D03*
D19*
X196190000Y-87680000D03*
D20*
X193650000Y-87680000D03*
D19*
X177190000Y-108000000D03*
D20*
X174650000Y-108000000D03*
D19*
X182270000Y-108000000D03*
D20*
X179730000Y-108000000D03*
D19*
X187350000Y-108000000D03*
D20*
X184810000Y-108000000D03*
D19*
X187350000Y-102920000D03*
D20*
X184810000Y-102920000D03*
D19*
X187380000Y-97840000D03*
D20*
X184840000Y-97840000D03*
D19*
X182270000Y-97840000D03*
D20*
X179730000Y-97840000D03*
D19*
X177190000Y-97840000D03*
D20*
X174650000Y-97840000D03*
D19*
X177190000Y-92760000D03*
D20*
X174650000Y-92760000D03*
D19*
X187380000Y-87680000D03*
D20*
X184840000Y-87680000D03*
D19*
X182270000Y-87680000D03*
D20*
X179730000Y-87680000D03*
D19*
X177190000Y-87680000D03*
D20*
X174650000Y-87680000D03*
D19*
X222810000Y-223000000D03*
D20*
X225350000Y-223000000D03*
D19*
X217730000Y-223000000D03*
D20*
X220270000Y-223000000D03*
D19*
X212650000Y-223000000D03*
D20*
X215190000Y-223000000D03*
D19*
X212650000Y-217920000D03*
D20*
X215190000Y-217920000D03*
D19*
X222810000Y-212840000D03*
D20*
X225350000Y-212840000D03*
D19*
X217730000Y-212840000D03*
D20*
X220270000Y-212840000D03*
D19*
X212650000Y-212840000D03*
D20*
X215190000Y-212840000D03*
D19*
X212650000Y-207760000D03*
D20*
X215190000Y-207760000D03*
D19*
X222810000Y-202680000D03*
D20*
X225350000Y-202680000D03*
D19*
X217730000Y-202680000D03*
D20*
X220270000Y-202680000D03*
D19*
X212650000Y-202680000D03*
D20*
X215190000Y-202680000D03*
D19*
X203810000Y-202680000D03*
D20*
X206350000Y-202680000D03*
D19*
X193650000Y-207760000D03*
D20*
X196190000Y-207760000D03*
D19*
X203810000Y-223000000D03*
D20*
X206350000Y-223000000D03*
D19*
X198730000Y-223000000D03*
D20*
X201270000Y-223000000D03*
D19*
X193650000Y-223000000D03*
D20*
X196190000Y-223000000D03*
D19*
X193650000Y-217920000D03*
D20*
X196190000Y-217920000D03*
D19*
X193650000Y-212840000D03*
D20*
X196190000Y-212840000D03*
D19*
X198730000Y-202680000D03*
D20*
X201270000Y-202680000D03*
D19*
X193650000Y-202680000D03*
D20*
X196190000Y-202680000D03*
D19*
X208730000Y-181000000D03*
D20*
X211270000Y-181000000D03*
D19*
X188730000Y-181000000D03*
D20*
X191270000Y-181000000D03*
D19*
X211730000Y-176500000D03*
D20*
X214270000Y-176500000D03*
D19*
X203730000Y-176500000D03*
D20*
X206270000Y-176500000D03*
D19*
X193730000Y-176500000D03*
D20*
X196270000Y-176500000D03*
D19*
X185730000Y-176500000D03*
D20*
X188270000Y-176500000D03*
D19*
X207730000Y-172000000D03*
D20*
X210270000Y-172000000D03*
D19*
X198730000Y-172000000D03*
D20*
X201270000Y-172000000D03*
D19*
X189730000Y-172000000D03*
D20*
X192270000Y-172000000D03*
D19*
X202730000Y-167000000D03*
D20*
X205270000Y-167000000D03*
D19*
X194730000Y-167000000D03*
D20*
X197270000Y-167000000D03*
D19*
X198730000Y-161500000D03*
D20*
X201270000Y-161500000D03*
D19*
X211270000Y-156500000D03*
D20*
X208730000Y-156500000D03*
D19*
X218770000Y-153750000D03*
D20*
X216230000Y-153750000D03*
X213980000Y-145000000D03*
D19*
X216520000Y-145000000D03*
X188730000Y-156500000D03*
D20*
X191270000Y-156500000D03*
D19*
X186230000Y-151000000D03*
D20*
X188770000Y-151000000D03*
D19*
X181230000Y-153750000D03*
D20*
X183770000Y-153750000D03*
D19*
X183480000Y-145000000D03*
D20*
X186020000Y-145000000D03*
D19*
X207770000Y-139000000D03*
D20*
X205230000Y-139000000D03*
D19*
X211270000Y-132000000D03*
D20*
X208730000Y-132000000D03*
D19*
X206270000Y-134000000D03*
D20*
X203730000Y-134000000D03*
D19*
X209270000Y-127000000D03*
D20*
X206730000Y-127000000D03*
D19*
X192230000Y-139000000D03*
D20*
X194770000Y-139000000D03*
D19*
X193730000Y-134000000D03*
D20*
X196270000Y-134000000D03*
D19*
X188730000Y-132000000D03*
D20*
X191270000Y-132000000D03*
D19*
X190730000Y-127000000D03*
D20*
X193270000Y-127000000D03*
D25*
X253000000Y-147990000D03*
D26*
X247920000Y-147990000D03*
X250460000Y-147990000D03*
D25*
X174650000Y-190920000D03*
D26*
X174650000Y-196000000D03*
X174650000Y-193460000D03*
D24*
X243810000Y-132750000D03*
X236190000Y-150530000D03*
X243810000Y-135290000D03*
X236190000Y-147990000D03*
X243810000Y-137830000D03*
X236190000Y-145450000D03*
X243810000Y-140370000D03*
X236190000Y-142910000D03*
X243810000Y-142910000D03*
X236190000Y-140370000D03*
X243810000Y-145450000D03*
X236190000Y-137830000D03*
X243810000Y-147990000D03*
X236190000Y-135290000D03*
X243810000Y-150530000D03*
D21*
X236190000Y-132750000D03*
X236190000Y-160530000D03*
D24*
X243810000Y-168150000D03*
X236190000Y-163070000D03*
X243810000Y-165610000D03*
X236190000Y-165610000D03*
X243810000Y-163070000D03*
X236190000Y-168150000D03*
X243810000Y-160530000D03*
D22*
X253000000Y-152750000D03*
D23*
X247920000Y-152750000D03*
D22*
X242540000Y-173150000D03*
D23*
X237460000Y-173150000D03*
D22*
X247920000Y-144000000D03*
D23*
X253000000Y-144000000D03*
D24*
X179760000Y-196000000D03*
D15*
X187380000Y-196000000D03*
D27*
X282620000Y-136000000D03*
D28*
X275000000Y-136000000D03*
D15*
X237500000Y-177130000D03*
X242500000Y-177130000D03*
X237500000Y-127750000D03*
X242500000Y-127750000D03*
X237500000Y-155530000D03*
X242500000Y-155530000D03*
X270000000Y-158500000D03*
X265000000Y-158500000D03*
X270000000Y-141500000D03*
X265000000Y-141500000D03*
D19*
X174650000Y-202680000D03*
D20*
X177190000Y-202680000D03*
D19*
X174650000Y-207760000D03*
D20*
X177190000Y-207760000D03*
D19*
X174650000Y-212840000D03*
D20*
X177190000Y-212840000D03*
D19*
X179730000Y-212840000D03*
D20*
X182270000Y-212840000D03*
D19*
X184810000Y-212840000D03*
D20*
X187350000Y-212840000D03*
D19*
X174650000Y-217920000D03*
D20*
X177190000Y-217920000D03*
D19*
X184810000Y-223000000D03*
D20*
X187350000Y-223000000D03*
D19*
X179730000Y-223000000D03*
D20*
X182270000Y-223000000D03*
D19*
X174650000Y-223000000D03*
D20*
X177190000Y-223000000D03*
D29*
X296949747Y-159050253D03*
D30*
G36*
X292000000Y-161878680D02*
G01*
X294121320Y-164000000D01*
X292000000Y-166121320D01*
X289878680Y-164000000D01*
X292000000Y-161878680D01*
G37*
D29*
X296949747Y-140949747D03*
D31*
X292000000Y-136000000D03*
D32*
X284861000Y-155321000D02*
X269621000Y-155321000D01*
X269621000Y-144653000D01*
X284861000Y-144653000D01*
X284861000Y-155321000D01*
D30*
G36*
X284861000Y-155321000D02*
G01*
X269621000Y-155321000D01*
X269621000Y-144653000D01*
X284861000Y-144653000D01*
X284861000Y-155321000D01*
G37*
M02*
