M48
; DRILL file {KiCad (5.1.8)-1} date 04/20/21 17:46:36
; FORMAT={-:-/ absolute / inch / decimal}
; #@! TF.CreationDate,2021-04-20T17:46:36-05:00
; #@! TF.GenerationSoftware,Kicad,Pcbnew,(5.1.8)-1
FMAT,2
INCH
T1C0.0157
T2C0.0276
T3C0.0315
T4C0.0354
T5C0.0433
T6C0.0591
T7C0.0354
T8C0.0689
T9C0.1378
%
G90
G05
T1
X10.7279Y-5.5748
X10.7279Y-6.1949
X10.7693Y-5.6162
X10.7693Y-6.2363
X10.8106Y-5.5748
X10.8106Y-6.1949
X10.8519Y-5.6162
X10.8519Y-6.2363
X10.8933Y-5.5748
X10.8933Y-6.1949
X10.9346Y-5.6162
X10.9346Y-6.2363
X10.9759Y-5.5748
X10.9759Y-6.1949
X11.0173Y-5.6162
X11.0173Y-6.2363
X11.0586Y-5.5748
X11.0586Y-6.1949
X11.1Y-5.6162
X11.1Y-6.2363
X11.1413Y-5.5748
X11.1413Y-6.1949
X11.1826Y-5.6162
X11.1826Y-6.2363
X11.224Y-5.5748
X11.224Y-6.1949
X11.2653Y-5.6162
X11.2653Y-5.6989
X11.2653Y-5.7815
X11.2653Y-5.8642
X11.2653Y-5.9469
X11.2653Y-6.0296
X11.2653Y-6.1122
X11.2653Y-6.2363
X11.3067Y-5.5748
X11.3067Y-5.6575
X11.3067Y-5.7402
X11.3067Y-5.8229
X11.3067Y-5.9056
X11.3067Y-5.9882
X11.3067Y-6.0709
X11.3067Y-6.1536
X11.348Y-5.6162
X11.348Y-5.6989
X11.348Y-5.7815
X11.348Y-5.8642
X11.348Y-5.9469
X11.348Y-6.0296
X11.348Y-6.1122
X11.348Y-6.1949
T2
X9.3488Y-6.8169
X9.5488Y-6.8169
X7.8752Y-7.5787
X8.0752Y-7.5787
X8.8583Y-6.38
X8.8583Y-6.58
X7.1272Y-7.5787
X7.3272Y-7.5787
X9.7606Y-6.0138
X9.9606Y-6.0138
X7.8752Y-3.0512
X8.0752Y-3.0512
X8.6232Y-3.0512
X8.8232Y-3.0512
X8.6232Y-7.5787
X8.8232Y-7.5787
X7.1272Y-3.0512
X7.3272Y-3.0512
X9.7606Y-5.6693
X9.9606Y-5.6693
T3
X7.824Y-7.7165
X8.124Y-7.7165
X9.3504Y-5.0295
X9.5472Y-5.0295
X6.876Y-7.5165
X6.876Y-7.6165
X6.876Y-7.7165
X8.4843Y-6.38
X8.4843Y-6.68
X7.0772Y-3.189
X7.3772Y-3.189
X10.4331Y-5.5709
X10.6299Y-5.5709
X10.8783Y-6.4764
X11.0752Y-6.4764
X8.572Y-7.7165
X8.872Y-7.7165
X7.8252Y-3.189
X8.1252Y-3.189
X6.876Y-2.989
X6.876Y-3.089
X6.876Y-3.189
X8.6909Y-6.38
X8.6909Y-6.48
X8.6909Y-6.58
X7.624Y-2.989
X7.624Y-3.089
X7.624Y-3.189
X9.2988Y-6.3201
X9.2988Y-6.4201
X9.2988Y-6.5201
X9.2988Y-6.6201
X9.5988Y-6.3201
X9.5988Y-6.4201
X9.5988Y-6.5201
X9.5988Y-6.6201
X8.372Y-7.5165
X8.372Y-7.6165
X8.372Y-7.7165
X7.624Y-7.5165
X7.624Y-7.6165
X7.624Y-7.7165
X8.372Y-2.989
X8.372Y-3.089
X8.372Y-3.189
X9.7606Y-5.8264
X9.8606Y-5.8264
X9.9606Y-5.8264
X10.4331Y-6.2402
X10.6299Y-6.2402
X9.3504Y-6.9736
X9.5472Y-6.9736
X8.572Y-3.189
X8.872Y-3.189
X9.3504Y-6.1232
X9.5472Y-6.1232
X7.0772Y-7.7165
X7.3772Y-7.7165
X9.2988Y-5.2264
X9.2988Y-5.3264
X9.2988Y-5.4264
X9.2988Y-5.5264
X9.2988Y-5.6264
X9.2988Y-5.7264
X9.2988Y-5.8264
X9.2988Y-5.9264
X9.5988Y-5.2264
X9.5988Y-5.3264
X9.5988Y-5.4264
X9.5988Y-5.5264
X9.5988Y-5.6264
X9.5988Y-5.7264
X9.5988Y-5.8264
X9.5988Y-5.9264
X10.4331Y-6.4764
X10.4331Y-6.5748
T4
X6.876Y-8.3795
X6.976Y-8.3795
X7.076Y-7.9795
X7.176Y-7.9795
X7.2772Y-3.852
X7.3772Y-3.852
X6.876Y-7.9795
X6.976Y-7.9795
X8.772Y-8.7795
X8.872Y-8.7795
X8.772Y-4.052
X8.872Y-4.052
X8.372Y-8.5795
X8.472Y-8.5795
X8.372Y-4.252
X8.472Y-4.252
X7.624Y-8.7795
X7.724Y-8.7795
X8.1783Y-6.7717
X8.2783Y-6.7717
X8.2177Y-7.126
X8.3177Y-7.126
X8.2177Y-6.1614
X8.3177Y-6.1614
X7.4303Y-6.1614
X7.5303Y-6.1614
X6.876Y-8.7795
X6.976Y-8.7795
X7.276Y-8.3795
X7.376Y-8.3795
X7.276Y-4.052
X7.376Y-4.052
X7.276Y-8.7795
X7.376Y-8.7795
X6.876Y-3.852
X6.976Y-3.852
X7.824Y-4.052
X7.924Y-4.052
X8.572Y-8.7795
X8.672Y-8.7795
X8.772Y-4.252
X8.872Y-4.252
X8.024Y-8.7795
X8.124Y-8.7795
X8.0209Y-5.2756
X8.1209Y-5.2756
X7.624Y-7.9795
X7.724Y-7.9795
X7.824Y-6.3583
X7.924Y-6.3583
X7.076Y-4.252
X7.176Y-4.252
X7.824Y-3.452
X7.924Y-3.452
X7.076Y-3.852
X7.176Y-3.852
X7.624Y-4.252
X7.724Y-4.252
X8.772Y-3.852
X8.872Y-3.852
X7.4303Y-7.126
X7.5303Y-7.126
X8.2177Y-5.1969
X8.3177Y-5.1969
X7.624Y-8.3795
X7.724Y-8.3795
X7.6665Y-6.5748
X7.7665Y-6.5748
X7.5091Y-5.0
X7.6091Y-5.0
X7.076Y-8.3795
X7.176Y-8.3795
X8.372Y-3.652
X8.472Y-3.652
X6.876Y-4.252
X6.976Y-4.252
X8.024Y-3.452
X8.124Y-3.452
X7.076Y-3.452
X7.176Y-3.452
X8.772Y-3.652
X8.872Y-3.652
X7.824Y-4.252
X7.924Y-4.252
X7.824Y-7.9795
X7.924Y-7.9795
X7.824Y-8.7795
X7.924Y-8.7795
X8.0799Y-5.4724
X8.1799Y-5.4724
X8.024Y-7.9795
X8.124Y-7.9795
X7.3122Y-6.9488
X7.4122Y-6.9488
X7.6272Y-5.2756
X7.7272Y-5.2756
X7.5681Y-5.4724
X7.6681Y-5.4724
X6.876Y-8.5795
X6.976Y-8.5795
X7.276Y-7.9795
X7.376Y-7.9795
X7.076Y-8.7795
X7.176Y-8.7795
X8.372Y-8.3795
X8.472Y-8.3795
X7.824Y-3.652
X7.924Y-3.652
X7.2772Y-3.452
X7.3772Y-3.452
X8.572Y-4.252
X8.672Y-4.252
X8.372Y-4.052
X8.472Y-4.052
X7.6272Y-6.9488
X7.7272Y-6.9488
X7.9815Y-6.5748
X8.0815Y-6.5748
X8.372Y-7.9795
X8.472Y-7.9795
X8.513Y-6.0531
X8.613Y-6.0531
X7.624Y-8.5795
X7.724Y-8.5795
X7.2236Y-5.7087
X7.3236Y-5.7087
X8.139Y-5.0
X8.239Y-5.0
X7.4303Y-5.1969
X7.5303Y-5.1969
X6.876Y-3.452
X6.976Y-3.452
X8.372Y-8.7795
X8.472Y-8.7795
X8.372Y-3.852
X8.472Y-3.852
X8.572Y-8.3795
X8.672Y-8.3795
X8.024Y-4.252
X8.124Y-4.252
X7.624Y-3.452
X7.724Y-3.452
X8.0209Y-6.9488
X8.1209Y-6.9488
X8.3161Y-5.9449
X8.4161Y-5.9449
X8.372Y-8.1795
X8.472Y-8.1795
X7.3319Y-5.9449
X7.4319Y-5.9449
X8.772Y-7.9795
X8.872Y-7.9795
X7.135Y-6.0531
X7.235Y-6.0531
X6.876Y-8.1795
X6.976Y-8.1795
X8.372Y-3.452
X8.472Y-3.452
X6.876Y-3.652
X6.976Y-3.652
X8.772Y-8.3795
X8.872Y-8.3795
X7.824Y-3.852
X7.924Y-3.852
X7.276Y-4.252
X7.376Y-4.252
X8.772Y-3.452
X8.872Y-3.452
X8.3358Y-6.9488
X8.4358Y-6.9488
X7.824Y-6.7717
X7.924Y-6.7717
X8.572Y-7.9795
X8.672Y-7.9795
X8.4244Y-5.7087
X8.5244Y-5.7087
X7.624Y-8.1795
X7.724Y-8.1795
X7.4697Y-6.7717
X7.5697Y-6.7717
T5
X10.4331Y-5.8055
X10.4331Y-5.9055
X10.4331Y-6.0055
X10.8268Y-5.3543
X11.1268Y-5.3543
T6
X11.4961Y-5.3543
X11.4961Y-6.4567
T7
X11.7126Y-5.8189
X11.7126Y-5.9921
T8
X11.6909Y-5.5492
X11.6909Y-6.2618
T9
X11.089Y-5.9055
T0
M30
