G04 #@! TF.GenerationSoftware,KiCad,Pcbnew,(5.1.8)-1*
G04 #@! TF.CreationDate,2021-04-20T17:46:32-05:00*
G04 #@! TF.ProjectId,Graduation_Cap,47726164-7561-4746-996f-6e5f4361702e,rev?*
G04 #@! TF.SameCoordinates,Original*
G04 #@! TF.FileFunction,Soldermask,Bot*
G04 #@! TF.FilePolarity,Negative*
%FSLAX46Y46*%
G04 Gerber Fmt 4.6, Leading zero omitted, Abs format (unit mm)*
G04 Created by KiCad (PCBNEW (5.1.8)-1) date 2021-04-20 17:46:32*
%MOMM*%
%LPD*%
G01*
G04 APERTURE LIST*
G04 #@! TA.AperFunction,Profile*
%ADD10C,0.254000*%
G04 #@! TD*
%ADD11C,0.900000*%
%ADD12C,1.600000*%
%ADD13O,2.000000X1.905000*%
%ADD14R,2.000000X1.905000*%
%ADD15O,3.500000X3.500000*%
%ADD16C,1.800000*%
%ADD17R,1.800000X1.800000*%
%ADD18R,1.600000X1.600000*%
%ADD19O,1.400000X1.400000*%
%ADD20C,1.400000*%
%ADD21O,1.600000X1.600000*%
%ADD22R,1.500000X1.500000*%
%ADD23C,1.500000*%
%ADD24O,2.200000X2.200000*%
%ADD25R,2.200000X2.200000*%
%ADD26C,1.750000*%
%ADD27C,0.150000*%
%ADD28C,3.000000*%
G04 APERTURE END LIST*
D10*
X208000000Y-150000000D02*
G75*
G03*
X208000000Y-150000000I-8000000J0D01*
G01*
X310000000Y-150000000D02*
X200000000Y-260000000D01*
X200000000Y-260000000D02*
X90000000Y-150000000D01*
X310000000Y-150000000D02*
X200000000Y-40000000D01*
X90000000Y-150000000D02*
X200000000Y-40000000D01*
D11*
X297500000Y-147800000D03*
X297500000Y-152200000D03*
D12*
X281310000Y-164500000D03*
X276310000Y-164500000D03*
D13*
X265000000Y-152540000D03*
X265000000Y-150000000D03*
D14*
X265000000Y-147460000D03*
D15*
X281660000Y-150000000D03*
D16*
X213770000Y-151000000D03*
D17*
X211230000Y-151000000D03*
D16*
X212650000Y-92760000D03*
D17*
X215190000Y-92760000D03*
D16*
X212650000Y-87680000D03*
D17*
X215190000Y-87680000D03*
D12*
X265000000Y-167000000D03*
D18*
X265000000Y-164500000D03*
D16*
X184810000Y-202680000D03*
D17*
X187350000Y-202680000D03*
D16*
X179730000Y-202680000D03*
D17*
X182270000Y-202680000D03*
D19*
X224110000Y-77500000D03*
D20*
X219030000Y-77500000D03*
D19*
X205110000Y-77500000D03*
D20*
X200030000Y-77500000D03*
D19*
X186110000Y-77500000D03*
D20*
X181030000Y-77500000D03*
D21*
X217730000Y-81000000D03*
D12*
X225350000Y-81000000D03*
D21*
X198760000Y-81000000D03*
D12*
X206380000Y-81000000D03*
D21*
X179760000Y-81000000D03*
D12*
X187380000Y-81000000D03*
D19*
X224110000Y-192500000D03*
D20*
X219030000Y-192500000D03*
D19*
X205110000Y-192500000D03*
D20*
X200030000Y-192500000D03*
D19*
X186110000Y-192500000D03*
D20*
X181030000Y-192500000D03*
D21*
X217730000Y-196000000D03*
D12*
X225350000Y-196000000D03*
D21*
X198730000Y-196000000D03*
D12*
X206350000Y-196000000D03*
D20*
X225000000Y-167132000D03*
D19*
X225000000Y-162052000D03*
D21*
X215500000Y-162052000D03*
D12*
X215500000Y-169672000D03*
D22*
X212650000Y-75920000D03*
D23*
X212650000Y-81000000D03*
X212650000Y-78460000D03*
D22*
X193650000Y-75920000D03*
D23*
X193650000Y-81000000D03*
X193650000Y-78460000D03*
D22*
X174650000Y-75920000D03*
D23*
X174650000Y-81000000D03*
X174650000Y-78460000D03*
D22*
X212650000Y-190920000D03*
D23*
X212650000Y-196000000D03*
X212650000Y-193460000D03*
D22*
X193650000Y-190920000D03*
D23*
X193650000Y-196000000D03*
X193650000Y-193460000D03*
D22*
X220750000Y-167132000D03*
D23*
X220750000Y-162052000D03*
X220750000Y-164592000D03*
D16*
X225350000Y-87680000D03*
D17*
X222810000Y-87680000D03*
D16*
X225350000Y-92760000D03*
D17*
X222810000Y-92760000D03*
D16*
X225350000Y-97840000D03*
D17*
X222810000Y-97840000D03*
D16*
X225350000Y-102920000D03*
D17*
X222810000Y-102920000D03*
D16*
X225350000Y-108000000D03*
D17*
X222810000Y-108000000D03*
D16*
X220270000Y-108000000D03*
D17*
X217730000Y-108000000D03*
D16*
X212650000Y-108000000D03*
D17*
X215190000Y-108000000D03*
D16*
X212650000Y-102920000D03*
D17*
X215190000Y-102920000D03*
D16*
X212650000Y-97840000D03*
D17*
X215190000Y-97840000D03*
D16*
X206350000Y-108000000D03*
D17*
X203810000Y-108000000D03*
D16*
X196190000Y-108000000D03*
D17*
X193650000Y-108000000D03*
D16*
X201270000Y-108000000D03*
D17*
X198730000Y-108000000D03*
D16*
X201270000Y-102920000D03*
D17*
X198730000Y-102920000D03*
D16*
X201270000Y-97840000D03*
D17*
X198730000Y-97840000D03*
D16*
X201270000Y-92760000D03*
D17*
X198730000Y-92760000D03*
D16*
X206350000Y-87680000D03*
D17*
X203810000Y-87680000D03*
D16*
X201270000Y-87680000D03*
D17*
X198730000Y-87680000D03*
D16*
X196190000Y-87680000D03*
D17*
X193650000Y-87680000D03*
D16*
X177190000Y-108000000D03*
D17*
X174650000Y-108000000D03*
D16*
X182270000Y-108000000D03*
D17*
X179730000Y-108000000D03*
D16*
X187350000Y-108000000D03*
D17*
X184810000Y-108000000D03*
D16*
X187350000Y-102920000D03*
D17*
X184810000Y-102920000D03*
D16*
X187380000Y-97840000D03*
D17*
X184840000Y-97840000D03*
D16*
X182270000Y-97840000D03*
D17*
X179730000Y-97840000D03*
D16*
X177190000Y-97840000D03*
D17*
X174650000Y-97840000D03*
D16*
X177190000Y-92760000D03*
D17*
X174650000Y-92760000D03*
D16*
X187380000Y-87680000D03*
D17*
X184840000Y-87680000D03*
D16*
X182270000Y-87680000D03*
D17*
X179730000Y-87680000D03*
D16*
X177190000Y-87680000D03*
D17*
X174650000Y-87680000D03*
D16*
X222810000Y-223000000D03*
D17*
X225350000Y-223000000D03*
D16*
X217730000Y-223000000D03*
D17*
X220270000Y-223000000D03*
D16*
X212650000Y-223000000D03*
D17*
X215190000Y-223000000D03*
D16*
X212650000Y-217920000D03*
D17*
X215190000Y-217920000D03*
D16*
X222810000Y-212840000D03*
D17*
X225350000Y-212840000D03*
D16*
X217730000Y-212840000D03*
D17*
X220270000Y-212840000D03*
D16*
X212650000Y-212840000D03*
D17*
X215190000Y-212840000D03*
D16*
X212650000Y-207760000D03*
D17*
X215190000Y-207760000D03*
D16*
X222810000Y-202680000D03*
D17*
X225350000Y-202680000D03*
D16*
X217730000Y-202680000D03*
D17*
X220270000Y-202680000D03*
D16*
X212650000Y-202680000D03*
D17*
X215190000Y-202680000D03*
D16*
X203810000Y-202680000D03*
D17*
X206350000Y-202680000D03*
D16*
X193650000Y-207760000D03*
D17*
X196190000Y-207760000D03*
D16*
X203810000Y-223000000D03*
D17*
X206350000Y-223000000D03*
D16*
X198730000Y-223000000D03*
D17*
X201270000Y-223000000D03*
D16*
X193650000Y-223000000D03*
D17*
X196190000Y-223000000D03*
D16*
X193650000Y-217920000D03*
D17*
X196190000Y-217920000D03*
D16*
X193650000Y-212840000D03*
D17*
X196190000Y-212840000D03*
D16*
X198730000Y-202680000D03*
D17*
X201270000Y-202680000D03*
D16*
X193650000Y-202680000D03*
D17*
X196190000Y-202680000D03*
D16*
X208730000Y-181000000D03*
D17*
X211270000Y-181000000D03*
D16*
X188730000Y-181000000D03*
D17*
X191270000Y-181000000D03*
D16*
X211730000Y-176500000D03*
D17*
X214270000Y-176500000D03*
D16*
X203730000Y-176500000D03*
D17*
X206270000Y-176500000D03*
D16*
X193730000Y-176500000D03*
D17*
X196270000Y-176500000D03*
D16*
X185730000Y-176500000D03*
D17*
X188270000Y-176500000D03*
D16*
X207730000Y-172000000D03*
D17*
X210270000Y-172000000D03*
D16*
X198730000Y-172000000D03*
D17*
X201270000Y-172000000D03*
D16*
X189730000Y-172000000D03*
D17*
X192270000Y-172000000D03*
D16*
X202730000Y-167000000D03*
D17*
X205270000Y-167000000D03*
D16*
X194730000Y-167000000D03*
D17*
X197270000Y-167000000D03*
D16*
X198730000Y-161500000D03*
D17*
X201270000Y-161500000D03*
D16*
X211270000Y-156500000D03*
D17*
X208730000Y-156500000D03*
D16*
X218770000Y-153750000D03*
D17*
X216230000Y-153750000D03*
X213980000Y-145000000D03*
D16*
X216520000Y-145000000D03*
X188730000Y-156500000D03*
D17*
X191270000Y-156500000D03*
D16*
X186230000Y-151000000D03*
D17*
X188770000Y-151000000D03*
D16*
X181230000Y-153750000D03*
D17*
X183770000Y-153750000D03*
D16*
X183480000Y-145000000D03*
D17*
X186020000Y-145000000D03*
D16*
X207770000Y-139000000D03*
D17*
X205230000Y-139000000D03*
D16*
X211270000Y-132000000D03*
D17*
X208730000Y-132000000D03*
D16*
X206270000Y-134000000D03*
D17*
X203730000Y-134000000D03*
D16*
X209270000Y-127000000D03*
D17*
X206730000Y-127000000D03*
D16*
X192230000Y-139000000D03*
D17*
X194770000Y-139000000D03*
D16*
X193730000Y-134000000D03*
D17*
X196270000Y-134000000D03*
D16*
X188730000Y-132000000D03*
D17*
X191270000Y-132000000D03*
D16*
X190730000Y-127000000D03*
D17*
X193270000Y-127000000D03*
D22*
X253000000Y-147990000D03*
D23*
X247920000Y-147990000D03*
X250460000Y-147990000D03*
D22*
X174650000Y-190920000D03*
D23*
X174650000Y-196000000D03*
X174650000Y-193460000D03*
D21*
X243810000Y-132750000D03*
X236190000Y-150530000D03*
X243810000Y-135290000D03*
X236190000Y-147990000D03*
X243810000Y-137830000D03*
X236190000Y-145450000D03*
X243810000Y-140370000D03*
X236190000Y-142910000D03*
X243810000Y-142910000D03*
X236190000Y-140370000D03*
X243810000Y-145450000D03*
X236190000Y-137830000D03*
X243810000Y-147990000D03*
X236190000Y-135290000D03*
X243810000Y-150530000D03*
D18*
X236190000Y-132750000D03*
X236190000Y-160530000D03*
D21*
X243810000Y-168150000D03*
X236190000Y-163070000D03*
X243810000Y-165610000D03*
X236190000Y-165610000D03*
X243810000Y-163070000D03*
X236190000Y-168150000D03*
X243810000Y-160530000D03*
D19*
X253000000Y-152750000D03*
D20*
X247920000Y-152750000D03*
D19*
X242540000Y-173150000D03*
D20*
X237460000Y-173150000D03*
D19*
X247920000Y-144000000D03*
D20*
X253000000Y-144000000D03*
D21*
X179760000Y-196000000D03*
D12*
X187380000Y-196000000D03*
D24*
X282620000Y-136000000D03*
D25*
X275000000Y-136000000D03*
D12*
X237500000Y-177130000D03*
X242500000Y-177130000D03*
X237500000Y-127750000D03*
X242500000Y-127750000D03*
X237500000Y-155530000D03*
X242500000Y-155530000D03*
X270000000Y-158500000D03*
X265000000Y-158500000D03*
X270000000Y-141500000D03*
X265000000Y-141500000D03*
D16*
X174650000Y-202680000D03*
D17*
X177190000Y-202680000D03*
D16*
X174650000Y-207760000D03*
D17*
X177190000Y-207760000D03*
D16*
X174650000Y-212840000D03*
D17*
X177190000Y-212840000D03*
D16*
X179730000Y-212840000D03*
D17*
X182270000Y-212840000D03*
D16*
X184810000Y-212840000D03*
D17*
X187350000Y-212840000D03*
D16*
X174650000Y-217920000D03*
D17*
X177190000Y-217920000D03*
D16*
X184810000Y-223000000D03*
D17*
X187350000Y-223000000D03*
D16*
X179730000Y-223000000D03*
D17*
X182270000Y-223000000D03*
D16*
X174650000Y-223000000D03*
D17*
X177190000Y-223000000D03*
D26*
X296949747Y-159050253D03*
D27*
G36*
X292000000Y-161878680D02*
G01*
X294121320Y-164000000D01*
X292000000Y-166121320D01*
X289878680Y-164000000D01*
X292000000Y-161878680D01*
G37*
D26*
X296949747Y-140949747D03*
D28*
X292000000Y-136000000D03*
M02*
